<svg width="20" height="20" viewBox="0 0 20 20" fill="none" xmlns="http://www.w3.org/2000/svg">
<path d="M14.201 10.4267C14.1943 9.19765 14.7456 8.27002 15.8615 7.58686C15.2371 6.68603 14.294 6.1904 13.0486 6.09329C11.8697 5.99952 10.5812 6.78649 10.1096 6.78649C9.61145 6.78649 8.46905 6.12678 7.5724 6.12678C5.71931 6.15692 3.75 7.617 3.75 10.5874C3.75 11.4648 3.9094 12.3712 4.22821 13.3067C4.65329 14.5357 6.18757 17.5496 7.78826 17.4994C8.62513 17.4793 9.21626 16.8999 10.3055 16.8999C11.3616 16.8999 11.9095 17.4994 12.8427 17.4994C14.4567 17.4759 15.8448 14.7366 16.25 13.5042C14.0848 12.4761 14.201 10.4903 14.201 10.4267ZM12.3213 4.9279C13.2279 3.84288 13.1449 2.85498 13.1184 2.5C12.318 2.54688 11.3915 3.04921 10.8634 3.66874C10.2823 4.33181 9.94022 5.15227 10.0133 6.07654C10.88 6.14352 11.6704 5.69478 12.3213 4.9279Z" fill="white"/>
</svg>
