<svg width="40" height="40" viewBox="0 0 40 40" fill="none" xmlns="http://www.w3.org/2000/svg">
<rect width="40" height="40" rx="20" fill="#272B35"/>
<path d="M28.8484 11.6579C27.226 10.8905 25.4862 10.3252 23.6672 10.0014C23.6341 9.99511 23.601 10.0107 23.5839 10.042C23.3602 10.4522 23.1123 10.9874 22.9388 11.408C20.9823 11.1061 19.0358 11.1061 17.1195 11.408C16.9459 10.978 16.689 10.4522 16.4643 10.042C16.4472 10.0118 16.4141 9.99615 16.381 10.0014C14.563 10.3241 12.8232 10.8895 11.1998 11.6579C11.1858 11.6641 11.1737 11.6746 11.1657 11.6881C7.86577 16.7701 6.96177 21.7273 7.40524 26.6229C7.40725 26.6469 7.42029 26.6698 7.43835 26.6843C9.61557 28.3325 11.7246 29.3331 13.7944 29.9964C13.8276 30.0068 13.8627 29.9943 13.8837 29.9662C14.3734 29.2769 14.8098 28.5502 15.184 27.7859C15.2061 27.7412 15.185 27.688 15.1399 27.6703C14.4476 27.3996 13.7884 27.0696 13.1543 26.6948C13.1042 26.6646 13.1001 26.5906 13.1463 26.5552C13.2797 26.4521 13.4132 26.3449 13.5406 26.2366C13.5637 26.2168 13.5958 26.2127 13.6229 26.2252C17.7887 28.1857 22.2987 28.1857 26.4153 26.2252C26.4424 26.2116 26.4745 26.2158 26.4986 26.2356C26.626 26.3439 26.7595 26.4521 26.8939 26.5552C26.9401 26.5906 26.937 26.6646 26.8869 26.6948C26.2528 27.0769 25.5936 27.3996 24.9003 27.6693C24.8552 27.687 24.8351 27.7412 24.8572 27.7859C25.2394 28.5491 25.6759 29.2759 26.1565 29.9651C26.1765 29.9943 26.2126 30.0068 26.2458 29.9964C28.3256 29.3331 30.4346 28.3325 32.6119 26.6843C32.6309 26.6698 32.643 26.6479 32.645 26.624C33.1757 20.964 31.756 16.0476 28.8815 11.6891C28.8745 11.6746 28.8625 11.6641 28.8484 11.6579ZM15.8061 23.642C14.5519 23.642 13.5185 22.455 13.5185 20.9974C13.5185 19.5397 14.5319 18.3528 15.8061 18.3528C17.0904 18.3528 18.1138 19.5501 18.0937 20.9974C18.0937 22.455 17.0803 23.642 15.8061 23.642ZM24.2642 23.642C23.01 23.642 21.9766 22.455 21.9766 20.9974C21.9766 19.5397 22.9899 18.3528 24.2642 18.3528C25.5484 18.3528 26.5718 19.5501 26.5518 20.9974C26.5518 22.455 25.5484 23.642 24.2642 23.642Z" fill="white"/>
</svg>
