<svg width="101" height="66" viewBox="0 0 101 66" fill="none" xmlns="http://www.w3.org/2000/svg">
<g clip-path="url(#clip0_6924_3237)">
<g clip-path="url(#clip1_6924_3237)">
<path opacity="0.3" d="M96.7815 0.184212H4.31465C2.35862 0.184212 0.772949 1.77024 0.772949 3.7267V27.1567C0.772949 29.1132 2.35862 30.6992 4.31465 30.6992H96.7815C98.7375 30.6992 100.323 29.1132 100.323 27.1567V3.7267C100.323 1.77024 98.7375 0.184212 96.7815 0.184212Z" fill="#3E85D0" stroke="#3E85D0" stroke-miterlimit="10"/>
<path opacity="0.3" d="M96.6857 34.7624H4.21895C2.26292 34.7624 0.677246 36.3485 0.677246 38.3049V61.7349C0.677246 63.6914 2.26292 65.2774 4.21895 65.2774H96.6857C98.6418 65.2774 100.227 63.6914 100.227 61.7349V38.3049C100.227 36.3485 98.6418 34.7624 96.6857 34.7624Z" fill="#E54B4B" stroke="#E54B4B" stroke-miterlimit="10"/>
<path d="M96.6857 0.177124H4.21895C2.26292 0.177124 0.677246 1.76315 0.677246 3.71961V27.1496C0.677246 29.1061 2.26292 30.6921 4.21895 30.6921H96.6857C98.6418 30.6921 100.227 29.1061 100.227 27.1496V3.71961C100.227 1.76315 98.6418 0.177124 96.6857 0.177124Z" stroke="#3E85D0" stroke-miterlimit="10"/>
<path d="M96.6857 34.7624H4.21895C2.26292 34.7624 0.677246 36.3485 0.677246 38.3049V61.7349C0.677246 63.6914 2.26292 65.2774 4.21895 65.2774H96.6857C98.6418 65.2774 100.227 63.6914 100.227 61.7349V38.3049C100.227 36.3485 98.6418 34.7624 96.6857 34.7624Z" stroke="#E54B4B" stroke-miterlimit="10"/>
<path d="M88.7062 6.42253H77.4152C75.4592 6.42253 73.8735 8.00856 73.8735 9.96502V21.2585C73.8735 23.2149 75.4592 24.801 77.4152 24.801H88.7062C90.6622 24.801 92.2479 23.2149 92.2479 21.2585V9.96502C92.2479 8.00856 90.6622 6.42253 88.7062 6.42253Z" fill="#3E85D0"/>
<path d="M83.0609 10.5566C80.2558 10.5566 77.9785 12.8309 77.9785 15.6401C77.9785 18.4493 80.2523 20.7236 83.0609 20.7236C85.8694 20.7236 88.1432 18.4493 88.1432 15.6401C88.1432 12.8309 85.8694 10.5566 83.0609 10.5566ZM85.4586 16.4053L83.3336 18.3891C83.2592 18.4599 83.16 18.4989 83.0609 18.4989C82.9617 18.4989 82.859 18.4599 82.7882 18.3891L80.6631 16.4053C80.5746 16.3202 80.5215 16.2033 80.5215 16.0829C80.5215 15.8385 80.7198 15.6401 80.9642 15.6401H82.1081V13.7342C82.1081 13.3835 82.3915 13.1001 82.7421 13.1001H83.3761C83.7267 13.1001 84.01 13.3835 84.01 13.7342V15.6401H85.154C85.3984 15.6401 85.5967 15.8385 85.5967 16.0829C85.5967 16.2069 85.5436 16.3238 85.4551 16.4053H85.4586Z" fill="white"/>
<path d="M88.7062 40.8307H77.4152C75.4592 40.8307 73.8735 42.4167 73.8735 44.3732V55.6667C73.8735 57.6231 75.4592 59.2091 77.4152 59.2091H88.7062C90.6622 59.2091 92.2479 57.6231 92.2479 55.6667V44.3732C92.2479 42.4167 90.6622 40.8307 88.7062 40.8307Z" fill="#E54B4B"/>
<path d="M63.6828 8.80265C63.6828 9.18878 63.527 9.53594 63.2755 9.78392C63.0241 10.0354 62.677 10.1913 62.2909 10.1913H24.8303L24.6674 9.9079C24.3912 9.45092 24.0795 9.01166 23.736 8.59364C23.5978 8.42715 23.442 8.27482 23.2755 8.1402C23.2755 8.1402 22.4362 7.41399 23.7005 7.41399H62.2909C63.0595 7.41399 63.6828 8.03393 63.6828 8.80265Z" fill="white"/>
<path d="M44.8907 15.4767C44.8907 15.8628 44.7349 16.21 44.4834 16.4615C44.232 16.713 43.8849 16.8689 43.5024 16.8689H25.4893C25.3122 16.4261 25.0324 16.0187 24.6605 15.6857L24.3843 15.4306L24.6499 15.1897C25.0005 14.8745 25.2697 14.499 25.4503 14.088H43.5024C44.2674 14.088 44.8907 14.7115 44.8907 15.4767Z" fill="white"/>
<path d="M56.4614 22.1543C56.4614 22.5369 56.3056 22.884 56.0541 23.1356C55.8027 23.3871 55.452 23.5429 55.0695 23.5429H23.1021C21.8873 23.5146 22.8684 23.0045 22.8684 23.0045C23.1977 22.8167 23.4882 22.5617 23.7361 22.2606C24.0796 21.8461 24.3913 21.4068 24.664 20.9534L24.7773 20.7621H55.0695C55.8381 20.7621 56.4614 21.3856 56.4614 22.1543Z" fill="white"/>
<path d="M23.6192 12.5435C23.7219 12.8234 23.6369 13.1351 23.4138 13.337L22.0184 14.6052C22.0538 14.8709 22.0715 15.1472 22.0715 15.4236C22.0715 15.6999 22.0538 15.9726 22.0184 16.2419L23.4138 17.5101C23.6369 17.7085 23.7219 18.0237 23.6192 18.3036C23.4775 18.6862 23.3075 19.0546 23.1092 19.4089L22.9569 19.671C22.7444 20.0252 22.5071 20.3618 22.245 20.6771C22.0538 20.9073 21.7386 20.9853 21.4552 20.8967L19.6631 20.3264C19.231 20.6594 18.7565 20.9357 18.2464 21.1447L17.8427 22.9832C17.7789 23.2773 17.5523 23.5075 17.2583 23.5571C16.8156 23.6315 16.3552 23.6705 15.8912 23.6705C15.4273 23.6705 14.9668 23.6315 14.5241 23.5571C14.2266 23.5075 14.0035 23.2773 13.9397 22.9832L13.536 21.1447C13.026 20.9357 12.5514 20.6594 12.1193 20.3264L10.3307 20.9002C10.0474 20.9888 9.73219 20.9109 9.54094 20.6806C9.27885 20.3653 9.04156 20.0288 8.82906 19.6745L8.67676 19.4124C8.48197 19.0581 8.30843 18.6897 8.16676 18.3071C8.06405 18.0273 8.14905 17.7155 8.37218 17.5136L9.76761 16.2454C9.73219 15.9762 9.71448 15.6999 9.71448 15.4236C9.71448 15.1472 9.73219 14.8745 9.76761 14.6052L8.37218 13.337C8.14905 13.1387 8.06405 12.8234 8.16676 12.5435C8.30843 12.1609 8.47843 11.7925 8.67676 11.4383L8.82906 11.1761C9.04156 10.8219 9.27885 10.4853 9.54094 10.17C9.73219 9.93979 10.0474 9.86185 10.3307 9.95041L12.1228 10.5208C12.5549 10.1878 13.0295 9.91145 13.5395 9.70244L13.9433 7.86389C14.007 7.56986 14.2337 7.3396 14.5277 7.29001C14.9704 7.21207 15.4308 7.1731 15.8948 7.1731C16.3587 7.1731 16.8191 7.21207 17.2619 7.28646C17.5594 7.33606 17.7825 7.56632 17.8462 7.86035L18.25 9.6989C18.76 9.9079 19.2346 10.1842 19.6667 10.5172L21.4588 9.94687C21.7421 9.85831 22.0573 9.93624 22.2486 10.1665C22.5107 10.4818 22.748 10.8183 22.9605 11.1726L23.1127 11.4347C23.3075 11.789 23.4811 12.1574 23.6228 12.54L23.6192 12.5435ZM15.8948 17.9989C17.3185 17.9989 18.4696 16.8441 18.4696 15.4236C18.4696 14.003 17.315 12.8482 15.8948 12.8482C14.4745 12.8482 13.3199 14.003 13.3199 15.4236C13.3199 16.8441 14.4745 17.9989 15.8948 17.9989Z" fill="white"/>
<path d="M63.7229 43.4026C63.7229 43.7887 63.567 44.1359 63.3156 44.3838C63.0641 44.6353 62.717 44.7912 62.331 44.7912H24.8704L24.7075 44.5078C24.4312 44.0508 24.1195 43.6116 23.776 43.1936C23.6379 43.0271 23.482 42.8747 23.3156 42.7401C23.3156 42.7401 22.4762 42.0139 23.7406 42.0139H62.331C63.0995 42.0139 63.7229 42.6338 63.7229 43.4026Z" fill="white"/>
<path d="M44.9308 50.0766C44.9308 50.4627 44.7749 50.8099 44.5235 51.0614C44.272 51.3129 43.9249 51.4688 43.5424 51.4688H25.5293C25.3522 51.026 25.0724 50.6186 24.7006 50.2856L24.4243 50.0306L24.6899 49.7897C25.0406 49.4744 25.3097 49.0989 25.4904 48.688H43.5424C44.3074 48.688 44.9308 49.3114 44.9308 50.0766Z" fill="white"/>
<path d="M56.5015 56.7542C56.5015 57.1368 56.3456 57.4839 56.0942 57.7355C55.8427 57.987 55.4921 58.1428 55.1096 58.1428H23.1422C21.9273 58.1145 22.9084 57.6044 22.9084 57.6044C23.2378 57.4166 23.5282 57.1616 23.7761 56.8605C24.1197 56.446 24.4313 56.0067 24.704 55.5533L24.8174 55.362H55.1096C55.8781 55.362 56.5015 55.9855 56.5015 56.7542Z" fill="white"/>
<path d="M23.6593 47.1399C23.762 47.4197 23.677 47.7315 23.4538 47.9334L22.0584 49.2016C22.0938 49.4673 22.1115 49.7436 22.1115 50.0199C22.1115 50.2962 22.0938 50.569 22.0584 50.8382L23.4538 52.1064C23.677 52.3048 23.762 52.6201 23.6593 52.9C23.5176 53.2826 23.3476 53.651 23.1492 54.0052L22.997 54.2674C22.7844 54.6216 22.5472 54.9582 22.2851 55.2734C22.0938 55.5037 21.7786 55.5816 21.4953 55.4931L19.7032 54.9227C19.2711 55.2557 18.7965 55.532 18.2865 55.741L17.8827 57.5796C17.819 57.8736 17.5923 58.1039 17.2984 58.1535C16.8556 58.2279 16.3952 58.2668 15.9313 58.2668C15.4673 58.2668 15.0069 58.2279 14.5642 58.1535C14.2667 58.1039 14.0435 57.8736 13.9798 57.5796L13.576 55.741C13.066 55.532 12.5914 55.2557 12.1593 54.9227L10.3708 55.4966C10.0874 55.5852 9.77223 55.5072 9.58098 55.277C9.31889 54.9617 9.0816 54.6252 8.8691 54.2709L8.7168 54.0088C8.52201 53.6545 8.34847 53.2861 8.2068 52.9035C8.10409 52.6237 8.18909 52.3119 8.41222 52.11L9.80765 50.8418C9.77223 50.5726 9.75452 50.2962 9.75452 50.0199C9.75452 49.7436 9.77223 49.4708 9.80765 49.2016L8.41222 47.9334C8.18909 47.735 8.10409 47.4197 8.2068 47.1399C8.34847 46.7573 8.51847 46.3889 8.7168 46.0346L8.8691 45.7725C9.0816 45.4182 9.31889 45.0817 9.58098 44.7664C9.77223 44.5362 10.0874 44.4582 10.3708 44.5468L12.1629 45.1171C12.595 44.7841 13.0696 44.5078 13.5796 44.2988L13.9833 42.4603C14.0471 42.1662 14.2737 41.936 14.5677 41.8864C15.0104 41.8084 15.4708 41.7695 15.9348 41.7695C16.3988 41.7695 16.8592 41.8084 17.3019 41.8828C17.5994 41.9324 17.8225 42.1627 17.8863 42.4567L18.29 44.2953C18.8 44.5043 19.2746 44.7806 19.7067 45.1136L21.4988 44.5432C21.7821 44.4547 22.0974 44.5326 22.2886 44.7629C22.5507 45.0782 22.788 45.4147 23.0005 45.7689L23.1528 46.0311C23.3476 46.3853 23.5211 46.7538 23.6628 47.1363L23.6593 47.1399ZM15.9348 52.5953C17.3586 52.5953 18.5096 51.4405 18.5096 50.0199C18.5096 48.5994 17.355 47.4445 15.9348 47.4445C14.5146 47.4445 13.36 48.5994 13.36 50.0199C13.36 51.4405 14.5146 52.5953 15.9348 52.5953Z" fill="white"/>
<path d="M81.4565 45.9283L81.3254 46.187H79.59C79.2712 46.187 79.0127 46.4455 79.0127 46.7644C79.0127 47.0832 79.2712 47.3418 79.59 47.3418H86.5282C86.8469 47.3418 87.1055 47.0832 87.1055 46.7644C87.1055 46.4455 86.8469 46.187 86.5282 46.187H84.7928L84.6617 45.9283C84.5626 45.73 84.3642 45.6095 84.1446 45.6095H81.97C81.7504 45.6095 81.5521 45.7335 81.4529 45.9283H81.4565ZM86.5282 47.9228H79.59L79.9725 54.0477C80.0008 54.5047 80.3798 54.8625 80.8367 54.8625H85.278C85.7349 54.8625 86.1138 54.5083 86.1421 54.0477L86.5247 47.9228H86.5282Z" fill="white"/>
</g>
</g>
<defs>
<clipPath id="clip0_6924_3237">
<rect width="100" height="65.4545" fill="white" transform="translate(0.5)"/>
</clipPath>
<clipPath id="clip1_6924_3237">
<rect width="100" height="65.4545" fill="white" transform="translate(0.5)"/>
</clipPath>
</defs>
</svg>
