<svg width="101" height="66" viewBox="0 0 101 66" fill="none" xmlns="http://www.w3.org/2000/svg">
<g clip-path="url(#clip0_6924_3650)">
<path opacity="0.3" d="M65.2328 37.8648V61.0311C65.2328 62.876 63.7383 64.3705 61.8934 64.3705H38.7271C36.8822 64.3705 35.3877 62.876 35.3877 61.0311V37.8648C35.3877 36.0233 36.8822 34.5254 38.7271 34.5254H61.8934C63.7383 34.5254 65.2328 36.0198 65.2328 37.8648Z" fill="#3E85D0" stroke="#3E85D0" stroke-miterlimit="10"/>
<path opacity="0.3" d="M99.1698 3.92783V27.0941C99.1698 28.9391 97.6753 30.4336 95.8304 30.4336H72.6641C70.8192 30.4336 69.3247 28.9391 69.3247 27.0941V3.92783C69.3247 2.08635 70.8192 0.588425 72.6641 0.588425H95.8304C97.6753 0.588425 99.1698 2.08291 99.1698 3.92783Z" fill="#3E85D0" stroke="#3E85D0" stroke-miterlimit="10"/>
<path opacity="0.3" d="M98.5995 38.095V61.2613C98.5995 63.1063 97.105 64.6007 95.2601 64.6007H72.0938C70.2489 64.6007 68.7544 63.1063 68.7544 61.2613V38.095C68.7544 36.2536 70.2489 34.7556 72.0938 34.7556H95.2601C97.105 34.7556 98.5995 36.2501 98.5995 38.095Z" fill="#3E85D0" stroke="#3E85D0" stroke-miterlimit="10"/>
<path opacity="0.3" d="M65.2328 3.92783V27.0941C65.2328 28.9391 63.7383 30.4336 61.8934 30.4336H38.7271C36.8822 30.4336 35.3877 28.9391 35.3877 27.0941V3.92783C35.3877 2.08635 36.8822 0.588425 38.7271 0.588425H61.8934C63.7383 0.588425 65.2328 2.08291 65.2328 3.92783Z" fill="#3E85D0" stroke="#3E85D0" stroke-miterlimit="10"/>
<path d="M65.185 37.8889V61.0552C65.185 62.9001 63.6905 64.3946 61.8456 64.3946H38.6793C36.8343 64.3946 35.3398 62.9001 35.3398 61.0552V37.8889C35.3398 36.0474 36.8343 34.5495 38.6793 34.5495H61.8456C63.6905 34.5495 65.185 36.0439 65.185 37.8889Z" stroke="#3E85D0" stroke-miterlimit="10"/>
<path d="M99.1254 3.95194V27.1182C99.1254 28.9632 97.6309 30.4576 95.786 30.4576H72.6197C70.7748 30.4576 69.2803 28.9632 69.2803 27.1182V3.95194C69.2803 2.11046 70.7748 0.612534 72.6197 0.612534H95.786C97.6309 0.612534 99.1254 2.10702 99.1254 3.95194Z" stroke="#3E85D0" stroke-miterlimit="10"/>
<path d="M98.5512 38.1191V61.2854C98.5512 63.1303 97.0567 64.6248 95.2118 64.6248H72.0455C70.2005 64.6248 68.7061 63.1303 68.7061 61.2854V38.1191C68.7061 36.2776 70.2005 34.7797 72.0455 34.7797H95.2118C97.0567 34.7797 98.5512 36.2742 98.5512 38.1191Z" stroke="#3E85D0" stroke-miterlimit="10"/>
<path d="M65.185 3.95194V27.1182C65.185 28.9632 63.6905 30.4576 61.8456 30.4576H38.6793C36.8343 30.4576 35.3398 28.9632 35.3398 27.1182V3.95194C35.3398 2.11046 36.8343 0.612534 38.6793 0.612534H61.8456C63.6905 0.612534 65.185 2.10702 65.185 3.95194Z" stroke="#3E85D0" stroke-miterlimit="10"/>
<path opacity="0.3" d="M27.1423 0.454529H4.65973C2.76229 0.454529 1.22412 1.9927 1.22412 3.89014V61.2613C1.22412 63.1588 2.76229 64.697 4.65973 64.697H27.1423C29.0398 64.697 30.5779 63.1588 30.5779 61.2613V3.89014C30.5779 1.9927 29.0398 0.454529 27.1423 0.454529Z" fill="#29A335"/>
<path d="M27.2898 0.454529H4.80719C2.90976 0.454529 1.37158 1.9927 1.37158 3.89014V61.2613C1.37158 63.1588 2.90976 64.697 4.80719 64.697H27.2898C29.1872 64.697 30.7254 63.1588 30.7254 61.2613V3.89014C30.7254 1.9927 29.1872 0.454529 27.2898 0.454529Z" stroke="#29A335" stroke-miterlimit="10"/>
<path d="M24.7065 4.8761H6.53555C5.81073 4.8761 5.22314 5.46367 5.22314 6.18849V6.19193C5.22314 6.91675 5.81073 7.50434 6.53555 7.50434H24.7065C25.4313 7.50434 26.0189 6.91675 26.0189 6.19193V6.18849C26.0189 5.46367 25.4313 4.8761 24.7065 4.8761Z" fill="white"/>
<path d="M24.7065 11.634H6.53555C5.81073 11.634 5.22314 12.2216 5.22314 12.9464V12.9498C5.22314 13.6747 5.81073 14.2622 6.53555 14.2622H24.7065C25.4313 14.2622 26.0189 13.6747 26.0189 12.9498V12.9464C26.0189 12.2216 25.4313 11.634 24.7065 11.634Z" fill="white"/>
<path d="M24.7065 18.3884H6.53555C5.81073 18.3884 5.22314 18.976 5.22314 19.7008V19.7042C5.22314 20.429 5.81073 21.0166 6.53555 21.0166H24.7065C25.4313 21.0166 26.0189 20.429 26.0189 19.7042V19.7008C26.0189 18.976 25.4313 18.3884 24.7065 18.3884Z" fill="white"/>
<path d="M21.0202 29.5851H10.0229C9.29803 29.5851 8.71045 30.1727 8.71045 30.8975V30.9009C8.71045 31.6257 9.29803 32.2133 10.0229 32.2133H21.0202C21.7451 32.2133 22.3326 31.6257 22.3326 30.9009V30.8975C22.3326 30.1727 21.7451 29.5851 21.0202 29.5851Z" fill="white"/>
<path d="M21.6934 27.321C23.1295 27.321 24.2976 28.4891 24.2976 29.9252V48.0755C24.2976 49.5116 23.1295 50.6797 21.6934 50.6797H9.54514C8.10905 50.6797 6.94095 49.5116 6.94095 48.0755V29.9252C6.94095 28.4891 8.10905 27.321 9.54514 27.321H21.6934ZM21.6934 25.6032H9.54514C7.15739 25.6032 5.22314 27.5374 5.22314 29.9252V48.0755C5.22314 50.4632 7.15739 52.3975 9.54514 52.3975H21.6934C24.0812 52.3975 26.0154 50.4632 26.0154 48.0755V29.9252C26.0154 27.5374 24.0812 25.6032 21.6934 25.6032Z" fill="white"/>
<path d="M43.3584 10.0331C43.3584 9.023 44.1795 8.19846 45.193 8.19846H53.4453C54.4554 8.19846 55.28 9.01956 55.28 10.0331V11.8677C55.28 12.8777 54.4588 13.7023 53.4453 13.7023H45.193C44.1829 13.7023 43.3584 12.8812 43.3584 11.8677V10.0331ZM47.9415 18.2854C47.9415 17.7769 48.3503 17.3681 48.8588 17.3681V16.9112C48.8588 15.6434 49.886 14.6196 51.1504 14.6196H55.2765C55.785 14.6196 56.1938 14.2108 56.1938 13.7023V10.1911C57.2623 10.569 58.0284 11.586 58.0284 12.785V13.7023C58.0284 15.2208 56.7951 16.4542 55.2765 16.4542H51.1504C50.8996 16.4542 50.6934 16.6604 50.6934 16.9112V17.3681C51.2019 17.3681 51.6107 17.7769 51.6107 18.2854V21.9512C51.6107 22.4597 51.2019 22.8685 50.6934 22.8685H48.8588C48.3503 22.8685 47.9415 22.4597 47.9415 21.9512V18.2854Z" fill="white"/>
<path d="M57.5474 49.7039V49.7795C57.5371 50.817 56.5923 51.5248 55.5548 51.5248H52.7685C52.0161 51.5248 51.4046 52.1363 51.4046 52.8887C51.4046 52.9849 51.4149 53.0777 51.4321 53.1704C51.4905 53.459 51.6176 53.7407 51.7378 54.0225C51.913 54.4141 52.0814 54.8058 52.0814 55.218C52.0814 56.1216 51.4664 56.9462 50.5629 56.9805C50.4632 56.9805 50.3636 56.9874 50.2605 56.9874C46.2409 56.9874 42.9805 53.727 42.9805 49.7039C42.9805 45.6808 46.2409 42.4204 50.264 42.4204C54.2871 42.4204 57.5474 45.6808 57.5474 49.7039ZM46.6256 50.6143C46.6256 50.1127 46.2168 49.7039 45.7152 49.7039C45.2136 49.7039 44.8048 50.1127 44.8048 50.6143C44.8048 51.1159 45.2136 51.5248 45.7152 51.5248C46.2168 51.5248 46.6256 51.1159 46.6256 50.6143ZM46.6256 47.883C47.1272 47.883 47.5361 47.4742 47.5361 46.9726C47.5361 46.471 47.1272 46.0622 46.6256 46.0622C46.124 46.0622 45.7152 46.471 45.7152 46.9726C45.7152 47.4742 46.124 47.883 46.6256 47.883ZM51.1778 45.1517C51.1778 44.6501 50.769 44.2413 50.2674 44.2413C49.7658 44.2413 49.357 44.6501 49.357 45.1517C49.357 45.6533 49.7658 46.0622 50.2674 46.0622C50.769 46.0622 51.1778 45.6533 51.1778 45.1517ZM53.9091 47.883C54.4107 47.883 54.8196 47.4742 54.8196 46.9726C54.8196 46.471 54.4107 46.0622 53.9091 46.0622C53.4075 46.0622 52.9987 46.471 52.9987 46.9726C52.9987 47.4742 53.4075 47.883 53.9091 47.883Z" fill="white"/>
<path d="M81.545 6.81039H77.1646C76.2671 6.81039 75.5396 7.53795 75.5396 8.43544V12.8158C75.5396 13.7133 76.2671 14.4409 77.1646 14.4409H81.545C82.4425 14.4409 83.17 13.7133 83.17 12.8158V8.43544C83.17 7.53795 82.4425 6.81039 81.545 6.81039Z" fill="#3E85D0" stroke="#3E85D0" stroke-miterlimit="10"/>
<path d="M91.3365 6.81046H86.9561C86.0586 6.81046 85.3311 7.53802 85.3311 8.4355V12.8159C85.3311 13.7134 86.0586 14.4409 86.9561 14.4409H91.3365C92.234 14.4409 92.9615 13.7134 92.9615 12.8159V8.4355C92.9615 7.53802 92.234 6.81046 91.3365 6.81046Z" fill="#3E85D0" stroke="#3E85D0" stroke-miterlimit="10"/>
<path d="M81.545 16.6295H77.1646C76.2671 16.6295 75.5396 17.357 75.5396 18.2545V22.6349C75.5396 23.5324 76.2671 24.26 77.1646 24.26H81.545C82.4425 24.26 83.17 23.5324 83.17 22.6349V18.2545C83.17 17.357 82.4425 16.6295 81.545 16.6295Z" fill="#3E85D0" stroke="#3E85D0" stroke-miterlimit="10"/>
<path d="M91.3365 16.6295H86.9561C86.0586 16.6295 85.3311 17.357 85.3311 18.2545V22.6349C85.3311 23.5324 86.0586 24.26 86.9561 24.26H91.3365C92.234 24.26 92.9615 23.5324 92.9615 22.6349V18.2545C92.9615 17.357 92.234 16.6295 91.3365 16.6295Z" fill="#3E85D0" stroke="#3E85D0" stroke-miterlimit="10"/>
<path d="M81.4971 40.9809H77.1167C76.2193 40.9809 75.4917 41.7085 75.4917 42.606V46.9864C75.4917 47.8839 76.2193 48.6114 77.1167 48.6114H81.4971C82.3946 48.6114 83.1222 47.8839 83.1222 46.9864V42.606C83.1222 41.7085 82.3946 40.9809 81.4971 40.9809Z" fill="#3E85D0" stroke="#3E85D0" stroke-miterlimit="10"/>
<path d="M91.2886 40.981H86.9082C86.0108 40.981 85.2832 41.7085 85.2832 42.606V46.9864C85.2832 47.8839 86.0108 48.6115 86.9082 48.6115H91.2886C92.1861 48.6115 92.9137 47.8839 92.9137 46.9864V42.606C92.9137 41.7085 92.1861 40.981 91.2886 40.981Z" fill="#3E85D0" stroke="#3E85D0" stroke-miterlimit="10"/>
<path d="M81.4971 50.7965H77.1167C76.2193 50.7965 75.4917 51.5241 75.4917 52.4216V56.802C75.4917 57.6994 76.2193 58.427 77.1167 58.427H81.4971C82.3946 58.427 83.1222 57.6994 83.1222 56.802V52.4216C83.1222 51.5241 82.3946 50.7965 81.4971 50.7965Z" fill="#3E85D0" stroke="#3E85D0" stroke-miterlimit="10"/>
<path d="M91.2886 50.7965H86.9082C86.0108 50.7965 85.2832 51.5241 85.2832 52.4216V56.802C85.2832 57.6994 86.0108 58.427 86.9082 58.427H91.2886C92.1861 58.427 92.9137 57.6994 92.9137 56.802V52.4216C92.9137 51.5241 92.1861 50.7965 91.2886 50.7965Z" fill="#3E85D0" stroke="#3E85D0" stroke-miterlimit="10"/>
</g>
<defs>
<clipPath id="clip0_6924_3650">
<rect width="100" height="65.4545" fill="white" transform="translate(0.5 0.454529)"/>
</clipPath>
</defs>
</svg>
