<svg width="101" height="66" viewBox="0 0 101 66" fill="none" xmlns="http://www.w3.org/2000/svg">
<g clip-path="url(#clip0_6924_3143)">
<path opacity="0.3" d="M65.1728 38.2865V61.5118C65.1728 63.3614 63.6557 64.8597 61.7828 64.8597H38.2651C36.3922 64.8597 34.875 63.3614 34.875 61.5118V38.2865C34.875 36.4403 36.3922 34.9386 38.2651 34.9386H61.7828C63.6557 34.9386 65.1728 36.4369 65.1728 38.2865Z" fill="#3E85D0" stroke="#3E85D0" stroke-miterlimit="10"/>
<path opacity="0.3" d="M99.8794 3.67513V26.9005C99.8794 28.7501 98.3622 30.2484 96.4893 30.2484H72.9716C71.0987 30.2484 69.5815 28.7501 69.5815 26.9005V3.67513C69.5815 1.82896 71.0987 0.327217 72.9716 0.327217H96.4893C98.3622 0.327217 99.8794 1.82551 99.8794 3.67513Z" fill="#29A335"/>
<path opacity="0.3" d="M62.0338 0.172218H4.06438C2.1921 0.172218 0.674316 1.67113 0.674316 3.52014V26.7455C0.674316 28.5945 2.1921 30.0934 4.06438 30.0934H62.0338C63.9061 30.0934 65.4239 28.5945 65.4239 26.7455V3.52014C65.4239 1.67113 63.9061 0.172218 62.0338 0.172218Z" fill="#3E85D0" stroke="#3E85D0" stroke-miterlimit="10"/>
<path opacity="0.3" d="M30.9722 38.2668V61.4887C30.9722 63.3383 29.4515 64.8401 27.5786 64.8401H4.06438C2.19148 64.8401 0.674316 63.3383 0.674316 61.4887V38.2668C0.674316 36.4172 2.19148 34.9189 4.06438 34.9189H27.5786C29.4515 34.9189 30.9722 36.4172 30.9722 38.2668Z" fill="#F7BC3D"/>
<path d="M40.4556 43.8319L42.0564 45.7229V47.6552C42.0564 47.6552 48.3239 47.2901 48.3239 49.8182C48.3239 51.3441 45.7395 53.3039 45.314 53.3315C45.1361 53.8309 44.5327 55.9664 44.5327 55.9664C44.5327 55.9664 46.2557 53.452 52.3871 53.3728C50.978 53.8585 49.1051 54.7092 47.8984 55.9664H56.6002L55.7946 53.3866C55.7946 53.3866 52.7289 51.5611 52.7289 49.6977C52.7289 47.8343 55.4249 47.6448 56.2305 47.4416C57.0362 47.2384 59.0905 46.7114 59.5962 45.2648H53.6322V43.8319H40.4556Z" fill="white"/>
<path d="M8.9857 14.1357C9.87158 13.3262 10.8447 13.2057 11.9014 13.5708C12.2328 13.6844 12.5048 13.898 12.7071 14.1839C12.7803 14.2872 12.8187 14.3148 12.9233 14.2045C13.7011 13.4123 14.9567 13.1506 15.9995 13.5604C16.8122 13.8808 17.2132 14.518 17.283 15.3481C17.3876 16.5502 17.3109 17.7557 17.3283 18.9612C17.3283 19.0921 17.283 19.1369 17.1505 19.1334C16.8226 19.1265 16.4948 19.1231 16.1634 19.1334C16.0065 19.1403 15.9681 19.0818 15.9681 18.9336C15.9751 18.0071 15.9716 17.0806 15.9681 16.1506C15.9681 15.9715 15.9681 15.7958 15.9332 15.6202C15.7798 14.7866 15.159 14.3836 14.3219 14.5765C13.6558 14.7281 13.2163 15.2585 13.2024 15.9922C13.1814 16.9497 13.1849 17.9072 13.1919 18.8648C13.1919 19.0783 13.1326 19.1438 12.9199 19.1334C12.6234 19.1162 12.3235 19.1196 12.027 19.1334C11.8666 19.1403 11.8317 19.0818 11.8317 18.9336C11.8387 18.014 11.8352 17.0944 11.8317 16.1747C11.8317 15.9887 11.8317 15.8062 11.7968 15.6202C11.6468 14.8004 11.04 14.394 10.2099 14.5662C9.52281 14.7074 9.08336 15.2344 9.06592 15.9853C9.04499 16.9428 9.04848 17.9003 9.05197 18.8579C9.05197 19.0611 9.0136 19.1472 8.7869 19.1334C8.48347 19.1128 8.17655 19.1231 7.87312 19.1334C7.74058 19.1334 7.69873 19.0955 7.69873 18.9646C7.70222 17.1805 7.70222 15.3963 7.69873 13.6121C7.69873 13.4847 7.73361 13.433 7.86963 13.4364C8.18352 13.4433 8.49393 13.4433 8.80783 13.4364C8.94385 13.433 8.9857 13.4847 8.97872 13.6121C8.97175 13.7706 8.97872 13.9324 8.97872 14.1391L8.9857 14.1357Z" fill="white"/>
<path d="M31.6107 16.4675C31.6107 14.8004 31.6073 13.1299 31.6142 11.4628C31.6142 11.2631 31.5549 11.2114 31.3631 11.2217C31.0841 11.2355 30.7981 11.2424 30.5191 11.2217C30.2924 11.2045 30.2505 11.2941 30.254 11.4973C30.2645 12.286 30.2575 13.0748 30.254 13.8601C30.254 13.9324 30.2819 14.0117 30.2261 14.0805C29.0996 12.9646 27.1186 13.3021 26.2641 14.2424C25.2352 15.3756 25.2457 17.239 26.278 18.355C27.1465 19.2953 29.1798 19.6087 30.3063 18.4342C30.3063 18.6168 30.3168 18.7683 30.3063 18.9164C30.2889 19.0955 30.3621 19.1403 30.533 19.1334C30.8225 19.1196 31.112 19.1196 31.4015 19.1334C31.5689 19.1403 31.6107 19.0852 31.6107 18.9233C31.6038 18.1036 31.6107 17.2872 31.6107 16.4675ZM29.9576 17.3768C29.4972 18.0381 28.5346 18.2654 27.7777 17.8762C27.1255 17.5421 26.8779 16.9704 26.864 16.2505C26.8884 15.5341 27.1674 14.9347 27.8859 14.642C28.552 14.3699 29.1972 14.456 29.7413 14.9451C30.3796 15.5168 30.4703 16.6431 29.9576 17.3733V17.3768Z" fill="white"/>
<path d="M54.0713 14.084C54.8909 13.3848 55.7872 13.2539 56.7533 13.4812C57.6183 13.6844 58.2008 14.3251 58.3333 15.2069C58.3682 15.4445 58.3856 15.6822 58.3856 15.9233C58.3926 16.9187 58.3856 17.9176 58.3926 18.913C58.3926 19.0852 58.3472 19.1438 58.1694 19.1334C57.8659 19.1196 57.559 19.1196 57.2556 19.1334C57.0847 19.1403 57.0463 19.0783 57.0463 18.9199C57.0533 18.0071 57.0533 17.0944 57.0463 16.1851C57.0463 15.8544 57.0289 15.5203 56.8824 15.2103C56.7743 14.9864 56.6138 14.8142 56.3941 14.6971C55.3896 14.177 54.1864 14.8211 54.1027 15.9371C54.0294 16.9084 54.0783 17.8831 54.0783 18.8579C54.0783 19.0818 54.019 19.1541 53.7923 19.1369C53.5446 19.1162 53.29 19.1334 53.0424 19.1334C52.8378 19.1334 52.7355 19.0358 52.7355 18.8407C52.7355 16.5743 52.7355 14.3113 52.7355 12.0449C52.7355 11.8348 52.746 11.6282 52.7355 11.4181C52.725 11.2596 52.7878 11.2183 52.9378 11.2217C53.2412 11.2286 53.5481 11.2321 53.855 11.2217C54.0294 11.2148 54.0852 11.2631 54.0818 11.4422C54.0713 12.2309 54.0783 13.0197 54.0783 13.8084C54.0783 13.8842 54.0783 13.96 54.0783 14.084H54.0713Z" fill="white"/>
<path d="M23.6134 14.0013C22.8566 13.4261 21.9846 13.2815 21.0569 13.433C18.8666 13.7912 18.1168 15.9336 18.8736 17.5593C19.4107 18.7098 20.4117 19.161 21.451 19.1989C23.0798 19.2023 24.1889 18.4377 24.59 17.1667C24.9562 16.0059 24.576 14.735 23.6134 14.0013ZM22.7275 17.6937C22.1904 18.1173 21.5766 18.1724 20.9592 17.921C20.3419 17.6696 20.035 17.1667 19.9687 16.5157C19.9618 16.4399 19.9618 16.3607 19.9548 16.2849C19.9443 14.704 21.4719 14.1425 22.5357 14.7419C22.9926 15.0002 23.2542 15.4101 23.3239 15.9164C23.4216 16.5984 23.3065 17.2321 22.724 17.6937H22.7275Z" fill="white"/>
<path d="M42.1366 14.1529C43.019 13.3297 44.013 13.2332 45.0767 13.5329C45.8719 13.7568 46.4369 14.5145 46.4893 15.4273C46.559 16.6087 46.5032 17.7901 46.5172 18.975C46.5172 19.0955 46.4753 19.1369 46.3532 19.1334C46.0254 19.1265 45.6941 19.1231 45.3662 19.1334C45.2023 19.1403 45.1744 19.0749 45.1744 18.9302C45.1779 18.0106 45.1779 17.0909 45.1744 16.1713C45.1744 15.8475 45.1535 15.5237 45.0105 15.2206C44.8989 14.9795 44.728 14.8004 44.4838 14.6833C43.4619 14.1873 42.2866 14.8521 42.2203 15.9715C42.1645 16.9359 42.2028 17.9038 42.1994 18.8682C42.1994 19.0818 42.1401 19.1506 41.9238 19.1369C41.6274 19.1196 41.3309 19.1265 41.031 19.1369C40.9089 19.1369 40.8496 19.1162 40.8496 18.975C40.8531 17.1839 40.8531 15.3894 40.8496 13.5983C40.8496 13.4743 40.8984 13.4399 41.017 13.4433C41.3379 13.4502 41.6588 13.4502 41.9796 13.4433C42.0912 13.4433 42.1331 13.4778 42.1296 13.588C42.1226 13.7637 42.1296 13.9393 42.1296 14.1563L42.1366 14.1529Z" fill="white"/>
<path d="M48.3795 16.1678C48.3795 15.6305 48.3725 15.1827 48.383 14.735C48.3865 14.58 48.3341 14.5352 48.1842 14.5455C47.9889 14.5559 47.7935 14.5455 47.5982 14.549C47.4796 14.5524 47.4308 14.518 47.4343 14.394C47.4413 14.146 47.4413 13.898 47.4343 13.6534C47.4308 13.526 47.4657 13.4743 47.6052 13.4812C47.8075 13.4916 48.0133 13.4743 48.2156 13.4847C48.3551 13.4916 48.3865 13.4365 48.383 13.3125C48.376 12.9956 48.383 12.6787 48.3795 12.3618C48.3795 12.2413 48.3969 12.1758 48.5434 12.1793C48.8887 12.1896 49.2305 12.1861 49.5758 12.1793C49.7013 12.1793 49.7397 12.224 49.7362 12.3411C49.7292 12.658 49.7432 12.9749 49.7327 13.2918C49.7257 13.4468 49.785 13.4881 49.935 13.4847C50.3187 13.4743 50.7023 13.4847 51.086 13.4778C51.229 13.4778 51.2813 13.5191 51.2743 13.6603C51.2673 13.898 51.2673 14.1391 51.2743 14.3768C51.2778 14.5111 51.229 14.549 51.0964 14.5455C50.7197 14.5386 50.3466 14.5524 49.9699 14.5386C49.7885 14.5318 49.7292 14.5765 49.7327 14.766C49.7432 15.5616 49.7327 16.3573 49.7362 17.1529C49.7362 17.9864 50.3291 18.3516 51.0894 17.9727C51.2673 17.8831 51.3161 17.9176 51.372 18.0829C51.4347 18.2792 51.5184 18.4755 51.6021 18.665C51.6545 18.7821 51.6266 18.8441 51.5184 18.9095C51.3022 19.0404 51.065 19.1265 50.8174 19.1575C50.0362 19.2471 49.2933 19.1954 48.7527 18.5272C48.5504 18.2792 48.4597 17.9865 48.4213 17.673C48.3516 17.1426 48.4039 16.6087 48.3865 16.1644L48.3795 16.1678Z" fill="white"/>
<path d="M34.6205 14.1804C35.1123 13.619 35.7436 13.4261 36.4446 13.3813C36.612 13.371 36.6853 13.4054 36.6748 13.5914C36.6574 13.867 36.6609 14.1494 36.6748 14.425C36.6853 14.6041 36.6295 14.642 36.4481 14.6316C35.8238 14.5903 35.2867 14.7694 34.9379 15.3205C34.7112 15.6822 34.6868 16.0955 34.6833 16.5054C34.6798 17.301 34.6763 18.0967 34.6833 18.8923C34.6833 19.0886 34.624 19.1437 34.4322 19.1334C34.1357 19.1196 33.8393 19.1231 33.5393 19.1334C33.3929 19.1369 33.3336 19.1024 33.3371 18.944C33.344 17.1667 33.3405 15.3894 33.3371 13.6156C33.3371 13.4674 33.3894 13.433 33.5289 13.4364C33.8323 13.4433 34.1392 13.4433 34.4427 13.4364C34.5752 13.4364 34.624 13.4743 34.6171 13.6052C34.6066 13.7981 34.6171 13.9875 34.6171 14.1804H34.6205Z" fill="white"/>
<path d="M39.1264 16.2815C39.1264 17.1632 39.1229 18.0416 39.1264 18.9233C39.1264 19.0818 39.088 19.1403 38.9206 19.1334C38.6172 19.1196 38.3103 19.1196 38.0068 19.1334C37.8255 19.1403 37.7662 19.0921 37.7697 18.9026C37.7767 17.6833 37.7732 16.4606 37.7732 15.2413C37.7732 14.7005 37.7767 14.1598 37.7732 13.619C37.7732 13.4812 37.8115 13.4296 37.958 13.433C38.2789 13.4433 38.5998 13.4433 38.9206 13.433C39.0845 13.4261 39.1334 13.4778 39.1334 13.6397C39.1264 14.5214 39.1299 15.3997 39.1299 16.2815H39.1264Z" fill="white"/>
<path d="M38.4467 10.9117C38.9385 10.9083 39.3047 11.2252 39.3152 11.6592C39.3221 12.1345 38.949 12.503 38.4537 12.4996C37.9724 12.4996 37.5992 12.1551 37.5957 11.7074C37.5922 11.2596 37.9619 10.9152 38.4467 10.9117Z" fill="white"/>
<path d="M7.23486 50.4771C7.61851 50.4736 7.99867 50.4771 8.38232 50.4599C8.65437 50.4461 8.76249 50.5529 8.7869 50.8146C8.84619 51.4139 9.02755 51.9857 9.25077 52.5471C9.33796 52.7607 9.43562 52.7882 9.62395 52.6643C9.85763 52.5093 10.0983 52.3612 10.3459 52.2372C10.5726 52.1235 10.6005 51.996 10.5168 51.7618C9.97273 50.2394 10.039 48.7377 10.8063 47.3117C11.8352 45.3967 13.4918 44.4185 15.6752 44.2876C15.9507 44.2703 16.0414 44.3565 15.9786 44.632C15.9193 44.88 15.8844 45.1349 15.86 45.3898C15.8356 45.6515 15.7275 45.7583 15.4415 45.7893C13.8755 45.9512 12.728 46.74 12.0444 48.1418C11.5945 49.058 11.5527 50.019 11.8142 51.0006C11.877 51.2314 11.9572 51.2934 12.177 51.1522C12.5536 50.9111 12.9408 50.6837 13.3349 50.4668C13.5232 50.3634 13.5476 50.2463 13.4639 50.0603C13.3488 49.7951 13.2616 49.5196 13.15 49.2509C13.0803 49.0821 13.1117 48.9616 13.2407 48.8341C13.6592 48.4174 14.0708 47.9903 14.4858 47.5666C14.5382 47.5115 14.6009 47.446 14.6707 47.4288C15.2741 47.2911 15.8705 47.1223 16.4843 47.0499C16.8017 47.0121 16.9133 47.3978 17.0877 47.6114C17.2237 47.7767 17.0075 47.8594 16.9203 47.9524C16.5575 48.3485 16.1844 48.7067 15.6159 48.8376C15.2985 48.9099 14.9916 49.1786 14.9637 49.5196C14.9427 49.771 15.0822 50.0603 15.2601 50.2842C15.7344 50.8904 16.2995 50.918 16.7982 50.3049C17.1784 49.8364 17.7329 49.8192 18.2282 49.6332C18.2561 49.6229 18.2979 49.6263 18.3258 49.6401C18.5351 49.7262 18.7025 50.422 18.5595 50.6045C18.5525 50.6149 18.5456 50.6217 18.5386 50.6286C17.762 51.5931 16.7563 52.2372 15.5217 52.5609C15.3543 52.6057 15.2462 52.5747 15.1415 52.4507C14.9427 52.2234 14.73 52.0098 14.5382 51.7791C14.4091 51.6241 14.2905 51.5931 14.1092 51.7067C13.722 51.9513 13.3244 52.1889 12.9233 52.4094C12.7036 52.5299 12.7315 52.6298 12.892 52.7779C13.7011 53.5426 14.6567 53.9593 15.7763 53.949C16.0728 53.949 16.2018 54.042 16.2576 54.3175C16.3099 54.5793 16.3936 54.8342 16.4773 55.0856C16.5541 55.3095 16.5087 55.4025 16.2506 55.4163C14.4579 55.5196 12.9303 54.9548 11.7026 53.6562C11.455 53.3945 11.2702 53.3187 10.9877 53.5563C10.8691 53.6562 10.7191 53.7182 10.5866 53.8009C10.0634 54.1212 10.0774 54.0144 10.4819 54.4932C12.7873 57.197 17.0633 57.6758 19.9476 55.5713C20.8405 54.9203 21.5659 54.1315 22.0891 53.1671C22.1902 52.9777 22.3018 52.9467 22.4937 53.019C22.7762 53.1292 23.0622 53.2326 23.3516 53.3152C23.5993 53.3841 23.6097 53.4909 23.5016 53.6976C22.5704 55.4645 21.1962 56.7734 19.3652 57.6069C18.3956 58.0512 17.3702 58.2854 16.3029 58.3474C16.2262 58.3509 16.1425 58.344 16.0867 58.4129H15.5461C15.0509 58.3578 14.5521 58.3578 14.0603 58.3027C13.021 58.1925 12.1002 57.7653 11.2353 57.2246C9.37284 56.0638 8.05797 54.4691 7.44413 52.3543C7.30462 51.8755 7.32903 51.3692 7.24533 50.8801V50.4805L7.23486 50.4771Z" fill="white"/>
<path d="M16.6167 41.3461C17.0667 41.4391 17.5201 41.508 17.963 41.6285C20.7636 42.3897 22.7133 44.1119 23.8189 46.7572C24.4816 48.345 24.5478 49.988 24.2235 51.662C24.1712 51.9409 24.0805 52.0546 23.784 51.9168C23.5503 51.8101 23.3027 51.7308 23.0516 51.6654C22.7865 51.5965 22.7168 51.4518 22.7796 51.197C22.947 50.5322 22.9225 49.8537 22.8912 49.1751C22.8702 48.7515 22.8388 48.7342 22.4343 48.841C22.1936 48.903 21.9599 48.9822 21.7158 49.027C21.4682 49.0718 21.3914 49.1958 21.4054 49.4403C21.4682 50.3634 21.3252 51.259 20.938 52.1063C20.366 53.36 19.4523 54.2866 18.1967 54.8893C18.0188 54.9754 17.9525 54.9169 17.9142 54.755C17.9072 54.724 17.8967 54.6895 17.8898 54.6585C17.7991 54.3279 17.6073 53.9834 17.6421 53.6666C17.6805 53.3152 18.1479 53.2532 18.4094 53.0431C19.679 52.0408 20.2161 50.3359 19.7592 48.7515C19.4104 47.5425 18.671 46.678 17.527 46.1475C17.3282 46.0545 17.2585 45.9374 17.2969 45.7308C17.3492 45.4345 17.4015 45.1383 17.4364 44.8421C17.4643 44.5907 17.5759 44.5597 17.7991 44.6492C19.1663 45.1866 20.1882 46.0924 20.8404 47.3909C20.9694 47.6458 21.0985 47.7113 21.36 47.6183C21.6251 47.5253 21.9006 47.4633 22.1727 47.4013C22.3924 47.3531 22.4378 47.2566 22.3436 47.05C21.7681 45.7928 20.9241 44.756 19.7557 44.0017C16.8644 42.128 13.1813 42.5034 10.7539 44.9213C9.73895 45.934 9.08326 47.1498 8.84261 48.5586C8.78332 48.903 8.65079 49.0442 8.29853 48.9995C8.12065 48.9753 7.93929 48.996 7.75793 48.996C7.45101 48.996 7.29987 48.8456 7.30452 48.5448C7.26965 47.5012 7.63935 46.5746 8.1346 45.6825C8.96119 44.198 10.1366 43.0545 11.6328 42.2278C12.5954 41.694 13.6243 41.384 14.7369 41.3771C14.8031 41.3771 14.8729 41.3943 14.9287 41.3461H16.6167Z" fill="white"/>
<path d="M80.2294 10.6501H76.8184L75.4233 12.0588V19.9257H77.8264V16.1886H80.0446V13.9773H77.8264V12.8717H80.2294V10.6501Z" fill="white"/>
<path d="M81.2441 10.65V12.8716H82.988V19.9256C82.988 19.9256 85.3736 19.8981 85.4015 19.9256C85.4294 19.9532 85.4015 12.8716 85.4015 12.8716H87.0477V10.65H81.2441Z" fill="white"/>
<path d="M93.0714 15.1448L93.7096 14.6041V11.9691L92.3389 10.6465H88.1362V18.5892L89.5174 19.9222H94.0375V15.8578L93.0714 15.1414V15.1448ZM90.2777 12.6029H91.5891V14.363H90.2777V12.6029ZM91.9134 18.0037H90.2777V16.0266H91.9134V18.0037Z" fill="white"/>
<path d="M62.0338 0.185997H4.06438C2.19148 0.185997 0.674316 1.68429 0.674316 3.53391V26.7592C0.674316 28.6089 2.19148 30.1071 4.06438 30.1071H62.0338C63.9067 30.1071 65.4239 28.6089 65.4239 26.7592V3.53391C65.4239 1.68774 63.9067 0.185997 62.0338 0.185997Z" stroke="#3E85D0" stroke-miterlimit="10"/>
<path d="M65.1728 38.2865V61.5118C65.1728 63.3614 63.6557 64.8597 61.7828 64.8597H38.2651C36.3922 64.8597 34.875 63.3614 34.875 61.5118V38.2865C34.875 36.4403 36.3922 34.9386 38.2651 34.9386H61.7828C63.6557 34.9386 65.1728 36.4369 65.1728 38.2865Z" stroke="#3E85D0" stroke-miterlimit="10"/>
<path opacity="0.3" d="M99.7432 38.6631V61.8884C99.7432 63.738 98.226 65.2363 96.3531 65.2363H72.8354C70.9625 65.2363 69.4453 63.738 69.4453 61.8884V38.6631C69.4453 36.8169 70.9625 35.3152 72.8354 35.3152H96.3531C98.226 35.3152 99.7432 36.8135 99.7432 38.6631Z" fill="#3E85D0" stroke="#3E85D0" stroke-miterlimit="10"/>
<path d="M99.7432 38.4323V61.6576C99.7432 63.5072 98.226 65.0055 96.3531 65.0055H72.8354C70.9625 65.0055 69.4453 63.5072 69.4453 61.6576V38.4323C69.4453 36.5861 70.9625 35.0843 72.8354 35.0843H96.3531C98.226 35.0843 99.7432 36.5826 99.7432 38.4323Z" stroke="#3E85D0" stroke-miterlimit="10"/>
<path d="M31.0034 38.2668V61.4887C31.0034 63.3383 29.4828 64.8401 27.6099 64.8401H4.09563C2.22273 64.8401 0.705566 63.3383 0.705566 61.4887V38.2668C0.705566 36.4172 2.22273 34.9189 4.09563 34.9189H27.6099C29.4828 34.9189 31.0034 36.4172 31.0034 38.2668Z" stroke="#F7BC3D" stroke-miterlimit="10"/>
<path d="M99.8794 3.67513V26.9005C99.8794 28.7501 98.3622 30.2484 96.4893 30.2484H72.9716C71.0987 30.2484 69.5815 28.7501 69.5815 26.9005V3.67513C69.5815 1.82896 71.0987 0.327217 72.9716 0.327217H96.4893C98.3622 0.327217 99.8794 1.82551 99.8794 3.67513Z" stroke="#29A335" stroke-miterlimit="10"/>
<path d="M93.5001 49.8642C93.4862 49.8228 93.5001 49.7781 93.4932 49.7367C93.4932 49.6334 93.4932 49.5301 93.4862 49.4233C93.4757 49.2855 93.4757 49.1443 93.4583 49.0065C93.3781 48.4279 93.2316 47.8664 93.0293 47.3188C92.7817 46.6437 92.4538 46.0065 92.0458 45.4106C91.6063 44.7665 91.0866 44.1913 90.4902 43.6781C89.9915 43.251 89.4509 42.8825 88.8719 42.5725C88.1779 42.2039 87.4489 41.9318 86.6816 41.7527C86.2247 41.6459 85.7679 41.5736 85.297 41.5633C85.168 41.5633 85.0389 41.5633 84.9064 41.5495H84.4181C84.3623 41.5667 84.303 41.5495 84.2472 41.5564C84.1321 41.5529 84.017 41.5564 83.9019 41.5633C83.7031 41.5736 83.5043 41.5736 83.3055 41.6046C82.7266 41.6907 82.1615 41.825 81.6105 42.0179C80.9304 42.2556 80.2852 42.5725 79.6818 42.9617C78.9738 43.4198 78.3425 43.9674 77.7914 44.6046C77.3206 45.1488 76.9195 45.7413 76.5951 46.3819C76.3684 46.8297 76.1801 47.2947 76.0371 47.7769C75.8453 48.421 75.7058 49.0754 75.7093 49.754C75.7093 49.8607 75.7093 49.9709 75.6953 50.0777V50.5772C75.7058 50.6426 75.7058 50.7115 75.7093 50.7769C75.7162 51.0111 75.7197 51.2454 75.7511 51.4761C75.9011 52.5232 76.2324 53.5152 76.7451 54.4417C77.2508 55.3545 77.903 56.1536 78.6948 56.839C79.2493 57.3212 79.8597 57.7242 80.5119 58.0583C81.0176 58.3166 81.5477 58.5233 82.0953 58.6783C82.7475 58.8643 83.4067 58.9848 84.0903 58.9779C84.1426 58.9779 84.1914 58.9711 84.2437 58.9848H84.9727C85.018 58.9676 85.0633 58.9848 85.1122 58.9779H85.1157C85.2063 58.9848 85.2935 58.9779 85.3842 58.9711C85.5412 58.9642 85.6981 58.9642 85.855 58.9435C86.4759 58.8608 87.0827 58.7127 87.6722 58.5026C88.3523 58.2615 88.994 57.9412 89.5939 57.5451C90.274 57.0973 90.8774 56.5634 91.4145 55.9538C91.9307 55.3683 92.3527 54.7242 92.6945 54.025C92.9805 53.436 93.1932 52.8229 93.3397 52.1891C93.4269 51.8171 93.4862 51.4417 93.4897 51.0594C93.4897 50.9491 93.4827 50.8355 93.5036 50.7218V49.8573L93.5001 49.8642ZM84.7146 48.4761C84.596 48.4485 84.6064 48.4348 84.5716 48.5588C84.5472 48.6449 84.5227 48.7275 84.5018 48.8136C84.4913 48.8515 84.4704 48.8687 84.4321 48.8722C84.2646 48.8825 84.0937 48.8791 83.9263 48.8756C83.874 48.8756 83.8705 48.8687 83.867 48.8136C83.867 48.7895 83.867 48.7654 83.867 48.7413C83.867 48.0765 83.867 47.4118 83.867 46.747C83.867 46.6161 83.9473 46.5404 84.0833 46.5438C84.1147 46.5438 84.1461 46.5438 84.1809 46.5438H87.3199C87.4664 46.5438 87.4489 46.5438 87.4489 46.4164C87.4489 46.2614 87.4489 46.1029 87.4489 45.9479C87.4489 45.8963 87.435 45.8584 87.4001 45.8239C86.6956 45.0558 85.8306 44.5771 84.7948 44.4083C84.3344 44.3325 83.874 44.336 83.4136 44.4221C83.2079 44.46 83.0126 44.5254 82.8277 44.6219C82.3569 44.863 82.0848 45.2522 81.9837 45.7619C81.9627 45.879 81.9523 45.9927 81.9523 46.1133C81.9523 46.9916 81.9523 47.8699 81.9523 48.7516C81.9523 48.8825 81.9593 48.8584 81.8477 48.8825C81.5477 48.9445 81.2408 49.134 81.1675 49.5921C81.1292 49.8228 81.1606 50.0433 81.2199 50.2672C81.2582 50.4084 81.3036 50.5496 81.3629 50.6839C81.4501 50.8837 81.471 51.0869 81.457 51.3005C81.4466 51.4314 81.4431 51.5657 81.4501 51.6966C81.4501 51.793 81.4745 51.8894 81.5059 51.9824C81.5407 52.0858 81.607 52.1581 81.7012 52.2132C81.7639 52.2477 81.8302 52.2752 81.9 52.2959C81.9383 52.3097 81.9558 52.3303 81.9523 52.3717C81.9523 52.475 81.9523 52.5818 81.9523 52.6851C81.9523 52.7402 81.9453 52.7471 81.886 52.7471C81.7988 52.7471 81.7116 52.7471 81.6279 52.7471C81.5617 52.7471 81.5582 52.7505 81.5547 52.8194C81.5547 52.9606 81.5547 53.0984 81.5547 53.2362C81.5547 53.4739 81.5547 53.7115 81.5547 53.9457C81.5547 54.0181 81.5582 54.0215 81.6314 54.0215C81.7151 54.0215 81.7988 54.0215 81.8825 54.0215C81.9453 54.0215 81.9488 54.025 81.9523 54.087C81.9523 54.1352 81.9523 54.1834 81.9523 54.2351C81.9523 54.5898 81.9523 54.9446 81.9523 55.2959C81.9523 55.413 81.9523 55.5301 81.9802 55.6472C82.0046 55.7712 82.0534 55.8849 82.1302 55.9882C82.2278 56.1191 82.3534 56.2052 82.5173 56.2431C82.7475 56.2982 82.9812 56.312 83.2148 56.2535C83.4973 56.1811 83.6717 56.0055 83.738 55.723C83.7624 55.6162 83.7764 55.506 83.7799 55.3958C83.7799 55.3338 83.7833 55.2684 83.7903 55.2064C83.7903 55.1547 83.8043 55.1478 83.8496 55.1581C84.1077 55.2236 84.317 55.351 84.4495 55.5887C84.4983 55.6748 84.5192 55.7712 84.5192 55.8711C84.5192 56.2913 84.5262 56.7116 84.5262 57.1318C84.5262 57.2041 84.5227 57.2075 84.4425 57.2075C84.16 57.2075 83.881 57.18 83.602 57.1421C82.873 57.0388 82.179 56.8287 81.5163 56.5152C79.6225 55.6231 78.21 53.901 77.7182 51.8895C77.5612 51.235 77.4915 50.5737 77.5368 49.9055C77.6798 47.7838 78.611 46.0719 80.3096 44.77C81.1641 44.1155 82.1302 43.6953 83.1904 43.4818C83.7764 43.3647 84.3693 43.3199 84.9692 43.3509C86.3503 43.4232 87.6059 43.8434 88.7289 44.6391C90.0961 45.6069 91.0099 46.8917 91.4528 48.4968C91.6447 49.1925 91.7179 49.9021 91.6795 50.6219C91.554 53.1329 90.1205 55.0789 88.3313 56.1777C87.9268 56.4257 87.5013 56.6323 87.0513 56.7908C86.9258 56.8356 86.9258 56.8355 86.9293 56.7081C86.9362 55.8918 86.9467 55.072 86.9572 54.2557C86.9572 53.8941 86.9641 53.5324 86.9676 53.1708C86.9746 52.4474 86.9816 51.7241 86.9886 51.0008C86.992 50.5393 86.999 50.0777 87.006 49.6162C87.006 49.6024 87.006 49.5852 87.006 49.5714C87.006 49.5335 87.0199 49.5094 87.0583 49.4956C87.1036 49.4818 87.1455 49.4612 87.1908 49.4474C87.2292 49.4336 87.2536 49.413 87.2641 49.3716C87.2815 49.3062 87.3024 49.2407 87.3199 49.1753C87.3338 49.1202 87.3304 49.1133 87.2746 49.0995C87.0618 49.0444 86.8456 48.9927 86.6328 48.9411C85.9946 48.7861 85.3563 48.6311 84.7181 48.4761H84.7146ZM84.1565 53.8906V52.8745C84.1565 52.8573 84.1565 52.8401 84.1565 52.8229C84.1565 52.754 84.1496 52.7505 84.0798 52.7471C84.0066 52.7471 83.9298 52.7471 83.8566 52.7471C83.8008 52.7471 83.7938 52.7402 83.7903 52.6851C83.7903 52.5887 83.7903 52.4957 83.7903 52.3992C83.7903 52.3476 83.8008 52.3407 83.8531 52.3372C84.0484 52.3372 84.2437 52.3372 84.439 52.3372C84.4948 52.3372 84.5018 52.3441 84.5053 52.4027C84.5053 52.4991 84.5088 52.599 84.5088 52.6954C84.5088 52.9262 84.5088 53.1535 84.5088 53.3843H84.5192V54.3281C84.5192 54.3281 84.5192 54.3591 84.5192 54.3728C84.5192 54.4004 84.5018 54.4142 84.4774 54.4142C84.446 54.4142 84.4146 54.4142 84.3797 54.4142C84.2123 54.4142 84.0449 54.4142 83.874 54.4142C83.7938 54.4142 83.7903 54.4107 83.7903 54.3315C83.7903 54.2523 83.7903 54.1765 83.7903 54.0973C83.7903 54.0353 83.7973 54.0318 83.8601 54.0284C83.9403 54.0284 84.017 54.0284 84.0972 54.0284C84.1496 54.0284 84.1565 54.0215 84.16 53.9698C84.16 53.9457 84.16 53.9216 84.16 53.8975L84.1565 53.8906Z" fill="white"/>
</g>
<defs>
<clipPath id="clip0_6924_3143">
<rect width="100" height="65.4545" fill="white" transform="translate(0.5)"/>
</clipPath>
</defs>
</svg>
