<svg width="224" height="146" viewBox="0 0 224 146" fill="none" xmlns="http://www.w3.org/2000/svg">
<rect x="166" y="1" width="57" height="144" rx="8" fill="#29A335" fill-opacity="0.3" stroke="#29A335" stroke-miterlimit="10"/>
<rect x="1" y="1" width="150" height="144" rx="8" fill="#3E85D0" fill-opacity="0.3" stroke="#3E85D0" stroke-miterlimit="10"/>
<rect x="13" y="15" width="126" height="33" rx="8" fill="#3E85D0"/>
<rect x="68" y="19" width="67" height="26" rx="8" fill="#256EBB"/>
<rect x="13" y="56" width="126" height="33" rx="8" fill="#F7BC3D"/>
<rect x="68" y="60" width="67" height="26" rx="8" fill="#DAA22A"/>
<rect x="13" y="97" width="126" height="33" rx="8" fill="#29A335"/>
<rect x="68" y="101" width="67" height="26" rx="8" fill="#1C8B27"/>
<g clip-path="url(#clip0_171_244)">
<path d="M41 32C41 32.0316 41 32.0633 41 32.0949C40.9859 33.3781 39.8188 34.25 38.5355 34.25H35.0938C34.1621 34.25 33.4062 35.0059 33.4062 35.9375C33.4062 36.057 33.4203 36.173 33.4414 36.2855C33.5152 36.6441 33.6699 36.9887 33.8211 37.3367C34.0355 37.8219 34.2465 38.3035 34.2465 38.8133C34.2465 39.9312 33.4871 40.9473 32.3691 40.993C32.2461 40.9965 32.123 41 31.9965 41C27.0289 41 23 36.9711 23 32C23 27.0289 27.0289 23 32 23C36.9711 23 41 27.0289 41 32ZM27.5 33.125C27.5 32.8266 27.3815 32.5405 27.1705 32.3295C26.9595 32.1185 26.6734 32 26.375 32C26.0766 32 25.7905 32.1185 25.5795 32.3295C25.3685 32.5405 25.25 32.8266 25.25 33.125C25.25 33.4234 25.3685 33.7095 25.5795 33.9205C25.7905 34.1315 26.0766 34.25 26.375 34.25C26.6734 34.25 26.9595 34.1315 27.1705 33.9205C27.3815 33.7095 27.5 33.4234 27.5 33.125ZM27.5 29.75C27.7984 29.75 28.0845 29.6315 28.2955 29.4205C28.5065 29.2095 28.625 28.9234 28.625 28.625C28.625 28.3266 28.5065 28.0405 28.2955 27.8295C28.0845 27.6185 27.7984 27.5 27.5 27.5C27.2016 27.5 26.9155 27.6185 26.7045 27.8295C26.4935 28.0405 26.375 28.3266 26.375 28.625C26.375 28.9234 26.4935 29.2095 26.7045 29.4205C26.9155 29.6315 27.2016 29.75 27.5 29.75ZM33.125 26.375C33.125 26.0766 33.0065 25.7905 32.7955 25.5795C32.5845 25.3685 32.2984 25.25 32 25.25C31.7016 25.25 31.4155 25.3685 31.2045 25.5795C30.9935 25.7905 30.875 26.0766 30.875 26.375C30.875 26.6734 30.9935 26.9595 31.2045 27.1705C31.4155 27.3815 31.7016 27.5 32 27.5C32.2984 27.5 32.5845 27.3815 32.7955 27.1705C33.0065 26.9595 33.125 26.6734 33.125 26.375ZM36.5 29.75C36.7984 29.75 37.0845 29.6315 37.2955 29.4205C37.5065 29.2095 37.625 28.9234 37.625 28.625C37.625 28.3266 37.5065 28.0405 37.2955 27.8295C37.0845 27.6185 36.7984 27.5 36.5 27.5C36.2016 27.5 35.9155 27.6185 35.7045 27.8295C35.4935 28.0405 35.375 28.3266 35.375 28.625C35.375 28.9234 35.4935 29.2095 35.7045 29.4205C35.9155 29.6315 36.2016 29.75 36.5 29.75Z" fill="white"/>
</g>
<g clip-path="url(#clip1_171_244)">
<path d="M41 73C41 73.0316 41 73.0633 41 73.0949C40.9859 74.3781 39.8188 75.25 38.5355 75.25H35.0938C34.1621 75.25 33.4062 76.0059 33.4062 76.9375C33.4062 77.057 33.4203 77.173 33.4414 77.2855C33.5152 77.6441 33.6699 77.9887 33.8211 78.3367C34.0355 78.8219 34.2465 79.3035 34.2465 79.8133C34.2465 80.9312 33.4871 81.9473 32.3691 81.993C32.2461 81.9965 32.123 82 31.9965 82C27.0289 82 23 77.9711 23 73C23 68.0289 27.0289 64 32 64C36.9711 64 41 68.0289 41 73ZM27.5 74.125C27.5 73.8266 27.3815 73.5405 27.1705 73.3295C26.9595 73.1185 26.6734 73 26.375 73C26.0766 73 25.7905 73.1185 25.5795 73.3295C25.3685 73.5405 25.25 73.8266 25.25 74.125C25.25 74.4234 25.3685 74.7095 25.5795 74.9205C25.7905 75.1315 26.0766 75.25 26.375 75.25C26.6734 75.25 26.9595 75.1315 27.1705 74.9205C27.3815 74.7095 27.5 74.4234 27.5 74.125ZM27.5 70.75C27.7984 70.75 28.0845 70.6315 28.2955 70.4205C28.5065 70.2095 28.625 69.9234 28.625 69.625C28.625 69.3266 28.5065 69.0405 28.2955 68.8295C28.0845 68.6185 27.7984 68.5 27.5 68.5C27.2016 68.5 26.9155 68.6185 26.7045 68.8295C26.4935 69.0405 26.375 69.3266 26.375 69.625C26.375 69.9234 26.4935 70.2095 26.7045 70.4205C26.9155 70.6315 27.2016 70.75 27.5 70.75ZM33.125 67.375C33.125 67.0766 33.0065 66.7905 32.7955 66.5795C32.5845 66.3685 32.2984 66.25 32 66.25C31.7016 66.25 31.4155 66.3685 31.2045 66.5795C30.9935 66.7905 30.875 67.0766 30.875 67.375C30.875 67.6734 30.9935 67.9595 31.2045 68.1705C31.4155 68.3815 31.7016 68.5 32 68.5C32.2984 68.5 32.5845 68.3815 32.7955 68.1705C33.0065 67.9595 33.125 67.6734 33.125 67.375ZM36.5 70.75C36.7984 70.75 37.0845 70.6315 37.2955 70.4205C37.5065 70.2095 37.625 69.9234 37.625 69.625C37.625 69.3266 37.5065 69.0405 37.2955 68.8295C37.0845 68.6185 36.7984 68.5 36.5 68.5C36.2016 68.5 35.9155 68.6185 35.7045 68.8295C35.4935 69.0405 35.375 69.3266 35.375 69.625C35.375 69.9234 35.4935 70.2095 35.7045 70.4205C35.9155 70.6315 36.2016 70.75 36.5 70.75Z" fill="white"/>
</g>
<g clip-path="url(#clip2_171_244)">
<path d="M41 114C41 114.032 41 114.063 41 114.095C40.9859 115.378 39.8188 116.25 38.5355 116.25H35.0938C34.1621 116.25 33.4062 117.006 33.4062 117.938C33.4062 118.057 33.4203 118.173 33.4414 118.286C33.5152 118.644 33.6699 118.989 33.8211 119.337C34.0355 119.822 34.2465 120.304 34.2465 120.813C34.2465 121.931 33.4871 122.947 32.3691 122.993C32.2461 122.996 32.123 123 31.9965 123C27.0289 123 23 118.971 23 114C23 109.029 27.0289 105 32 105C36.9711 105 41 109.029 41 114ZM27.5 115.125C27.5 114.827 27.3815 114.54 27.1705 114.33C26.9595 114.119 26.6734 114 26.375 114C26.0766 114 25.7905 114.119 25.5795 114.33C25.3685 114.54 25.25 114.827 25.25 115.125C25.25 115.423 25.3685 115.71 25.5795 115.92C25.7905 116.131 26.0766 116.25 26.375 116.25C26.6734 116.25 26.9595 116.131 27.1705 115.92C27.3815 115.71 27.5 115.423 27.5 115.125ZM27.5 111.75C27.7984 111.75 28.0845 111.631 28.2955 111.42C28.5065 111.21 28.625 110.923 28.625 110.625C28.625 110.327 28.5065 110.04 28.2955 109.83C28.0845 109.619 27.7984 109.5 27.5 109.5C27.2016 109.5 26.9155 109.619 26.7045 109.83C26.4935 110.04 26.375 110.327 26.375 110.625C26.375 110.923 26.4935 111.21 26.7045 111.42C26.9155 111.631 27.2016 111.75 27.5 111.75ZM33.125 108.375C33.125 108.077 33.0065 107.79 32.7955 107.58C32.5845 107.369 32.2984 107.25 32 107.25C31.7016 107.25 31.4155 107.369 31.2045 107.58C30.9935 107.79 30.875 108.077 30.875 108.375C30.875 108.673 30.9935 108.96 31.2045 109.17C31.4155 109.381 31.7016 109.5 32 109.5C32.2984 109.5 32.5845 109.381 32.7955 109.17C33.0065 108.96 33.125 108.673 33.125 108.375ZM36.5 111.75C36.7984 111.75 37.0845 111.631 37.2955 111.42C37.5065 111.21 37.625 110.923 37.625 110.625C37.625 110.327 37.5065 110.04 37.2955 109.83C37.0845 109.619 36.7984 109.5 36.5 109.5C36.2016 109.5 35.9155 109.619 35.7045 109.83C35.4935 110.04 35.375 110.327 35.375 110.625C35.375 110.923 35.4935 111.21 35.7045 111.42C35.9155 111.631 36.2016 111.75 36.5 111.75Z" fill="white"/>
</g>
<rect x="111" y="22.8333" width="20" height="18.3333" rx="8" fill="white"/>
<g clip-path="url(#clip3_171_244)">
<path d="M118.644 29.4759C119.94 28.0877 122.033 28.081 123.338 29.4536L122.479 30.3708C122.335 30.5248 122.294 30.7547 122.371 30.9555C122.448 31.1564 122.631 31.2858 122.833 31.2858H125.323H125.5C125.777 31.2858 126 31.047 126 30.7502V27.8936C126 27.6771 125.879 27.4807 125.692 27.3981C125.504 27.3155 125.29 27.3602 125.146 27.5142L124.279 28.4426C122.454 26.5121 119.515 26.5188 117.7 28.4649C117.192 29.0094 116.825 29.65 116.6 30.3351C116.477 30.7078 116.66 31.114 117.006 31.2457C117.352 31.3773 117.733 31.1809 117.856 30.8105C118.017 30.3239 118.277 29.8664 118.644 29.4759ZM116 33.2498V33.4194V33.435V36.1064C116 36.3229 116.121 36.5193 116.308 36.6019C116.496 36.6845 116.71 36.6398 116.854 36.4858L117.721 35.5574C119.546 37.4879 122.485 37.4812 124.3 35.5351C124.808 34.9906 125.177 34.35 125.402 33.6671C125.525 33.2944 125.342 32.8882 124.996 32.7566C124.65 32.6249 124.269 32.8213 124.146 33.1918C123.985 33.6783 123.725 34.1358 123.358 34.5264C122.063 35.9145 119.969 35.9212 118.665 34.5487L119.521 33.6292C119.665 33.4752 119.706 33.2453 119.629 33.0445C119.552 32.8436 119.369 32.7142 119.167 32.7142H116.675H116.66H116.5C116.223 32.7142 116 32.953 116 33.2498Z" fill="#3E85D0"/>
</g>
<rect x="110" y="62.9167" width="22" height="20.1667" rx="8" fill="white"/>
<g clip-path="url(#clip4_171_244)">
<path d="M118.408 70.2235C119.834 68.6965 122.137 68.6891 123.571 70.1989L122.627 71.2079C122.469 71.3773 122.423 71.6301 122.508 71.8511C122.593 72.072 122.794 72.2144 123.017 72.2144H125.755H125.95C126.255 72.2144 126.5 71.9517 126.5 71.6252V68.4829C126.5 68.2448 126.367 68.0288 126.161 67.9379C125.955 67.8471 125.719 67.8962 125.56 68.0656L124.607 69.0868C122.6 66.9633 119.366 66.9707 117.37 69.1114C116.811 69.7104 116.408 70.415 116.16 71.1686C116.025 71.5786 116.226 72.0254 116.607 72.1702C116.987 72.3151 117.407 72.099 117.542 71.6915C117.718 71.1563 118.005 70.6531 118.408 70.2235ZM115.5 74.3748V74.5613V74.5785V77.5171C115.5 77.7552 115.633 77.9712 115.839 78.0621C116.045 78.1529 116.281 78.1038 116.44 77.9344L117.393 76.9132C119.4 79.0367 122.634 79.0293 124.63 76.8886C125.189 76.2896 125.595 75.585 125.842 74.8338C125.977 74.4239 125.776 73.9771 125.395 73.8322C125.015 73.6874 124.596 73.9034 124.46 74.3109C124.284 74.8461 123.998 75.3494 123.594 75.779C122.169 77.306 119.866 77.3133 118.431 75.8035L119.373 74.7921C119.531 74.6227 119.577 74.3699 119.492 74.1489C119.407 73.928 119.206 73.7856 118.983 73.7856H116.243H116.226H116.05C115.745 73.7856 115.5 74.0483 115.5 74.3748Z" fill="#F7BC3D"/>
</g>
<rect x="71" y="103.917" width="22" height="20.1667" rx="8" fill="white"/>
<g clip-path="url(#clip5_171_244)">
<path d="M87.2691 110.225C87.576 110.539 87.576 111.048 87.2691 111.361L80.9834 117.778C80.6765 118.091 80.178 118.091 79.8711 117.778L76.7282 114.569C76.4213 114.256 76.4213 113.747 76.7282 113.434C77.0352 113.12 77.5336 113.12 77.8405 113.434L80.4285 116.073L86.1593 110.225C86.4662 109.912 86.9646 109.912 87.2715 110.225H87.2691Z" fill="#29A335"/>
</g>
<rect x="174" y="13" width="42" height="17" rx="8" fill="#29A335"/>
<rect x="174" y="37" width="42" height="17" rx="8" fill="#29A335" fill-opacity="0.5"/>
<rect x="174" y="61" width="42" height="17" rx="8" fill="#29A335"/>
<rect x="174" y="85" width="42" height="17" rx="8" fill="#29A335" fill-opacity="0.5"/>
<defs>
<clipPath id="clip0_171_244">
<rect width="18" height="18" fill="white" transform="translate(23 23)"/>
</clipPath>
<clipPath id="clip1_171_244">
<rect width="18" height="18" fill="white" transform="translate(23 64)"/>
</clipPath>
<clipPath id="clip2_171_244">
<rect width="18" height="18" fill="white" transform="translate(23 105)"/>
</clipPath>
<clipPath id="clip3_171_244">
<rect width="10" height="10" fill="white" transform="translate(116 27)"/>
</clipPath>
<clipPath id="clip4_171_244">
<rect width="11" height="11" fill="white" transform="translate(115.5 67.5)"/>
</clipPath>
<clipPath id="clip5_171_244">
<rect width="11" height="12.8333" fill="white" transform="translate(76.5 107.583)"/>
</clipPath>
</defs>
</svg>
