<svg width="101" height="66" viewBox="0 0 101 66" fill="none" xmlns="http://www.w3.org/2000/svg">
<g clip-path="url(#clip0_6924_3325)">
<g clip-path="url(#clip1_6924_3325)">
<path opacity="0.3" d="M158.51 0.739655H7.49024C4.33941 0.739655 1.78516 3.29271 1.78516 6.44206V10.7474C1.78516 13.8967 4.33941 16.4498 7.49024 16.4498H158.51C161.66 16.4498 164.215 13.8967 164.215 10.7474V6.44206C164.215 3.29271 161.66 0.739655 158.51 0.739655Z" fill="#29A335"/>
<path opacity="0.3" d="M158.51 23.2927H7.49024C4.33941 23.2927 1.78516 25.8457 1.78516 28.9951V33.3004C1.78516 36.4497 4.33941 39.0028 7.49024 39.0028H158.51C161.66 39.0028 164.215 36.4497 164.215 33.3004V28.9951C164.215 25.8457 161.66 23.2927 158.51 23.2927Z" fill="#E54B4B" stroke="#E54B4B" stroke-miterlimit="10"/>
<path opacity="0.3" d="M158.51 45.8457H7.49024C4.33941 45.8457 1.78516 48.3988 1.78516 51.5481V55.8534C1.78516 59.0028 4.33941 61.5558 7.49024 61.5558H158.51C161.66 61.5558 164.215 59.0028 164.215 55.8534V51.5481C164.215 48.3988 161.66 45.8457 158.51 45.8457Z" fill="#3E85D0" stroke="#3E85D0" stroke-miterlimit="10"/>
<path d="M158.51 0.739655H7.49024C4.33941 0.739655 1.78516 3.29271 1.78516 6.44206V10.7474C1.78516 13.8967 4.33941 16.4498 7.49024 16.4498H158.51C161.66 16.4498 164.215 13.8967 164.215 10.7474V6.44206C164.215 3.29271 161.66 0.739655 158.51 0.739655Z" stroke="#29A335" stroke-miterlimit="10"/>
<path d="M158.51 23.2927H7.49024C4.33941 23.2927 1.78516 25.8457 1.78516 28.9951V33.3004C1.78516 36.4497 4.33941 39.0028 7.49024 39.0028H158.51C161.66 39.0028 164.215 36.4497 164.215 33.3004V28.9951C164.215 25.8457 161.66 23.2927 158.51 23.2927Z" stroke="#E54B4B" stroke-miterlimit="10"/>
<path d="M158.51 45.8457H7.49024C4.33941 45.8457 1.78516 48.3988 1.78516 51.5481V55.8534C1.78516 59.0028 4.33941 61.5558 7.49024 61.5558H158.51C161.66 61.5558 164.215 59.0028 164.215 55.8534V51.5481C164.215 48.3988 161.66 45.8457 158.51 45.8457Z" stroke="#3E85D0" stroke-miterlimit="10"/>
<path d="M10.571 12.5379C12.7503 12.5379 14.5189 10.7702 14.5189 8.59188C14.5189 6.41356 12.7503 4.64581 10.571 4.64581C8.39162 4.64581 6.62305 6.41356 6.62305 8.59188C6.62305 10.7702 8.39162 12.5379 10.571 12.5379ZM12.311 7.86767L10.3371 9.84071C10.1944 9.98327 9.96052 9.98327 9.81219 9.84071L8.82521 8.85419C8.68258 8.71163 8.68258 8.47783 8.82521 8.32957C8.96784 8.18131 9.20175 8.18701 9.35008 8.32957L10.0746 9.05377L11.7861 7.34305C11.9288 7.20049 12.1627 7.20049 12.311 7.34305C12.4594 7.48561 12.4536 7.71941 12.311 7.86767Z" fill="white"/>
<path d="M29.358 7.4856H19.0774C18.4945 7.4856 18.022 7.95791 18.022 8.54054C18.022 9.12317 18.4945 9.59549 19.0774 9.59549H29.358C29.9409 9.59549 30.4134 9.12317 30.4134 8.54054C30.4134 7.95791 29.9409 7.4856 29.358 7.4856Z" fill="white"/>
<path d="M43.7403 7.4856H33.4597C32.8768 7.4856 32.4043 7.95791 32.4043 8.54054C32.4043 9.12317 32.8768 9.59549 33.4597 9.59549H43.7403C44.3232 9.59549 44.7957 9.12317 44.7957 8.54054C44.7957 7.95791 44.3232 7.4856 43.7403 7.4856Z" fill="white"/>
<path d="M29.2779 52.6487H18.9973C18.4144 52.6487 17.9419 53.121 17.9419 53.7036C17.9419 54.2863 18.4144 54.7586 18.9973 54.7586H29.2779C29.8608 54.7586 30.3333 54.2863 30.3333 53.7036C30.3333 53.121 29.8608 52.6487 29.2779 52.6487Z" fill="white"/>
<path d="M43.6607 52.6487H33.3801C32.7972 52.6487 32.3247 53.121 32.3247 53.7036C32.3247 54.2863 32.7972 54.7586 33.3801 54.7586H43.6607C44.2436 54.7586 44.7162 54.2863 44.7162 53.7036C44.7162 53.121 44.2436 52.6487 43.6607 52.6487Z" fill="white"/>
<path d="M58.2027 7.4856H47.9221C47.3392 7.4856 46.8667 7.95791 46.8667 8.54054C46.8667 9.12317 47.3392 9.59549 47.9221 9.59549H58.2027C58.7856 9.59549 59.2581 9.12317 59.2581 8.54054C59.2581 7.95791 58.7856 7.4856 58.2027 7.4856Z" fill="white"/>
<path d="M29.3179 29.8048H19.0374C18.4545 29.8048 17.9819 30.2772 17.9819 30.8598C17.9819 31.4424 18.4545 31.9147 19.0374 31.9147H29.3179C29.9008 31.9147 30.3734 31.4424 30.3734 30.8598C30.3734 30.2772 29.9008 29.8048 29.3179 29.8048Z" fill="white"/>
<path d="M43.7008 29.8048H33.4202C32.8373 29.8048 32.3647 30.2772 32.3647 30.8598C32.3647 31.4424 32.8373 31.9147 33.4202 31.9147H43.7008C44.2837 31.9147 44.7562 31.4424 44.7562 30.8598C44.7562 30.2772 44.2837 29.8048 43.7008 29.8048Z" fill="white"/>
<path d="M58.1632 29.8048H47.8826C47.2997 29.8048 46.8271 30.2772 46.8271 30.8598C46.8271 31.4424 47.2997 31.9147 47.8826 31.9147H58.1632C58.7461 31.9147 59.2186 31.4424 59.2186 30.8598C59.2186 30.2772 58.7461 29.8048 58.1632 29.8048Z" fill="white"/>
<path d="M93.4603 29.8048H62.5901C62.0072 29.8048 61.5347 30.2772 61.5347 30.8598C61.5347 31.4424 62.0072 31.9147 62.5901 31.9147H93.4603C94.0432 31.9147 94.5158 31.4424 94.5158 30.8598C94.5158 30.2772 94.0432 29.8048 93.4603 29.8048Z" fill="white"/>
<path d="M10.571 27.1589C10.822 27.1589 11.0559 27.2901 11.1871 27.5125L15.0381 34.0702C15.1693 34.2926 15.1693 34.5663 15.0381 34.783C14.9068 34.9997 14.6729 35.1423 14.4219 35.1423H6.72005C6.46332 35.1423 6.22941 35.0054 6.1039 34.783C5.97839 34.5606 5.97839 34.2869 6.1039 34.0702L9.95483 27.5125C10.0803 27.2958 10.3143 27.1589 10.571 27.1589ZM10.571 29.4399C10.3314 29.4399 10.1431 29.628 10.1431 29.8675V31.8634C10.1431 32.1029 10.3314 32.2911 10.571 32.2911C10.8106 32.2911 10.9989 32.1029 10.9989 31.8634V29.8675C10.9989 29.628 10.8106 29.4399 10.571 29.4399ZM11.1415 33.4316C11.1415 33.1179 10.8848 32.8613 10.571 32.8613C10.2572 32.8613 10.0005 33.1179 10.0005 33.4316C10.0005 33.7452 10.2572 34.0018 10.571 34.0018C10.8848 34.0018 11.1415 33.7452 11.1415 33.4316Z" fill="white"/>
<path d="M10.5709 58.2655C13.0926 58.2655 15.135 56.2241 15.135 53.7036C15.135 51.1832 13.0926 49.1417 10.5709 49.1417C8.04926 49.1417 6.00684 51.1832 6.00684 53.7036C6.00684 56.2241 8.04926 58.2655 10.5709 58.2655ZM10.5709 51.4227C10.8105 51.4227 10.9988 51.6108 10.9988 51.8503V53.8462C10.9988 54.0857 10.8105 54.2739 10.5709 54.2739C10.3313 54.2739 10.143 54.0857 10.143 53.8462V51.8503C10.143 51.6108 10.3313 51.4227 10.5709 51.4227ZM10.0004 55.4143C10.0004 55.1007 10.2571 54.8441 10.5709 54.8441C10.8847 54.8441 11.1414 55.1007 11.1414 55.4143C11.1414 55.728 10.8847 55.9846 10.5709 55.9846C10.2571 55.9846 10.0004 55.728 10.0004 55.4143Z" fill="white"/>
</g>
</g>
<defs>
<clipPath id="clip0_6924_3325">
<rect width="100" height="65.4545" fill="white" transform="translate(0.5 0.454529)"/>
</clipPath>
<clipPath id="clip1_6924_3325">
<rect width="163" height="107" fill="white" transform="translate(1.5 0.454529)"/>
</clipPath>
</defs>
</svg>
