<svg width="101" height="66" viewBox="0 0 101 66" fill="none" xmlns="http://www.w3.org/2000/svg">
<g clip-path="url(#clip0_6924_3728)">
<g clip-path="url(#clip1_6924_3728)">
<path d="M82.0952 59.3544C82.0987 59.3296 82.1058 59.3048 82.1128 59.28H83.2098C82.8441 59.404 82.4714 59.3827 82.0952 59.3544Z" fill="#535353"/>
<path opacity="0.3" d="M43.5093 0.177124H4.19191C2.25001 0.177124 0.675781 1.76315 0.675781 3.71961V61.7314C0.675781 63.6878 2.25001 65.2739 4.19191 65.2739H43.5093C45.4512 65.2739 47.0254 63.6878 47.0254 61.7314V3.71961C47.0254 1.76315 45.4512 0.177124 43.5093 0.177124Z" fill="#3E85D0" stroke="#3E85D0" stroke-miterlimit="10"/>
<path opacity="0.3" d="M96.1987 0.177124H56.8814C54.9395 0.177124 53.3652 1.76315 53.3652 3.71961V61.7314C53.3652 63.6878 54.9395 65.2739 56.8814 65.2739H96.1987C98.1406 65.2739 99.7149 63.6878 99.7149 61.7314V3.71961C99.7149 1.76315 98.1406 0.177124 96.1987 0.177124Z" fill="#F7BC3D"/>
<path d="M43.5303 0.180664H4.21291C2.271 0.180664 0.696777 1.76669 0.696777 3.72315V61.7349C0.696777 63.6914 2.271 65.2774 4.21291 65.2774H43.5303C45.4722 65.2774 47.0464 63.6914 47.0464 61.7349V3.72315C47.0464 1.76669 45.4722 0.180664 43.5303 0.180664Z" stroke="#3E85D0" stroke-miterlimit="10"/>
<path d="M96.1987 0.180664H56.8814C54.9395 0.180664 53.3652 1.76669 53.3652 3.72315V61.7349C53.3652 63.6914 54.9395 65.2774 56.8814 65.2774H96.1987C98.1406 65.2774 99.7149 63.6914 99.7149 61.7349V3.72315C99.7149 1.76669 98.1406 0.180664 96.1987 0.180664Z" stroke="#F7BC3D" stroke-miterlimit="10"/>
<path d="M32.4478 24.7088C32.4478 25.9487 31.4457 26.9583 30.215 26.9583H16.8221C15.5915 26.9583 14.5894 25.9487 14.5894 24.7088V13.465C14.5894 12.2251 15.5915 11.2155 16.8221 11.2155H21.2876C21.9873 11.2155 22.6518 11.5485 23.0738 12.1153L23.7418 13.0151C23.9528 13.2985 24.2833 13.465 24.6349 13.465H30.215C31.4457 13.465 32.4478 14.4746 32.4478 15.7145V24.7124V24.7088ZM24.3536 23.3025V19.7139L25.4366 20.805C25.7636 21.1345 26.2945 21.1345 26.618 20.805C26.9415 20.4756 26.945 19.9407 26.618 19.6148L24.1075 17.0854C23.7805 16.756 23.2496 16.756 22.9261 17.0854L20.4156 19.6148C20.0886 19.9442 20.0886 20.4791 20.4156 20.805C20.7426 21.1309 21.2735 21.1345 21.597 20.805L22.68 19.7139V23.3025C22.68 23.7701 23.0527 24.1456 23.5168 24.1456C23.9809 24.1456 24.3536 23.7701 24.3536 23.3025Z" fill="white"/>
<path d="M85.4707 52.9C85.4707 54.1398 84.4686 55.1494 83.238 55.1494H69.845C68.6144 55.1494 67.6123 54.1398 67.6123 52.9V41.6561C67.6123 40.4162 68.6144 39.4066 69.845 39.4066H74.3105C75.0102 39.4066 75.6748 39.7396 76.0967 40.3064L76.7648 41.2062C76.9758 41.4896 77.3063 41.6561 77.6579 41.6561H83.238C84.4686 41.6561 85.4707 42.6657 85.4707 43.9056V52.9035V52.9ZM77.3766 45.3084C77.3766 44.8408 77.0039 44.4653 76.5398 44.4653C76.0756 44.4653 75.7029 44.8408 75.7029 45.3084V48.897L74.62 47.8059C74.293 47.4764 73.762 47.4764 73.4385 47.8059C73.115 48.1353 73.1115 48.6702 73.4385 48.9961L75.949 51.5255C76.276 51.8549 76.807 51.8549 77.1305 51.5255L79.641 48.9961C79.968 48.6667 79.968 48.1318 79.641 47.8059C79.314 47.48 78.783 47.4764 78.4596 47.8059L77.3766 48.897V45.3084Z" fill="white"/>
<path d="M37.1559 37.5539H10.5845C8.64258 37.5539 7.06836 39.1399 7.06836 41.0964V55.1459C7.06836 57.1024 8.64258 58.6884 10.5845 58.6884H37.1559C39.0978 58.6884 40.672 57.1024 40.672 55.1459V41.0964C40.672 39.1399 39.0978 37.5539 37.1559 37.5539Z" fill="#3E85D0"/>
<path d="M13.8753 46.4668C14.9919 46.4668 15.8971 45.5548 15.8971 44.4299C15.8971 43.3049 14.9919 42.3929 13.8753 42.3929C12.7587 42.3929 11.8535 43.3049 11.8535 44.4299C11.8535 45.5548 12.7587 46.4668 13.8753 46.4668Z" fill="white"/>
<path d="M13.8753 54.0229C14.9919 54.0229 15.8971 53.111 15.8971 51.986C15.8971 50.861 14.9919 49.9491 13.8753 49.9491C12.7587 49.9491 11.8535 50.861 11.8535 51.986C11.8535 53.111 12.7587 54.0229 13.8753 54.0229Z" fill="white"/>
<path d="M34.3886 43.0731H19.5541C18.8123 43.0731 18.2109 43.679 18.2109 44.4263V44.4299C18.2109 45.1772 18.8123 45.7831 19.5541 45.7831H34.3886C35.1305 45.7831 35.7318 45.1772 35.7318 44.4299V44.4263C35.7318 43.679 35.1305 43.0731 34.3886 43.0731Z" fill="white"/>
<path d="M34.3886 50.6328H19.5541C18.8123 50.6328 18.2109 51.2386 18.2109 51.986V51.9895C18.2109 52.7369 18.8123 53.3428 19.5541 53.3428H34.3886C35.1305 53.3428 35.7318 52.7369 35.7318 51.9895V51.986C35.7318 51.2386 35.1305 50.6328 34.3886 50.6328Z" fill="white"/>
<path d="M89.8273 6.6953H63.2559C61.314 6.6953 59.7397 8.28133 59.7397 10.2378V24.2873C59.7397 26.2438 61.314 27.8298 63.2559 27.8298H89.8273C91.7692 27.8298 93.3434 26.2438 93.3434 24.2873V10.2378C93.3434 8.28133 91.7692 6.6953 89.8273 6.6953Z" fill="#F7BC3D"/>
<path d="M66.5472 15.6082C67.6638 15.6082 68.5689 14.6962 68.5689 13.5713C68.5689 12.4463 67.6638 11.5343 66.5472 11.5343C65.4306 11.5343 64.5254 12.4463 64.5254 13.5713C64.5254 14.6962 65.4306 15.6082 66.5472 15.6082Z" fill="white"/>
<path d="M66.5472 23.1643C67.6638 23.1643 68.5689 22.2524 68.5689 21.1274C68.5689 20.0024 67.6638 19.0905 66.5472 19.0905C65.4306 19.0905 64.5254 20.0024 64.5254 21.1274C64.5254 22.2524 65.4306 23.1643 66.5472 23.1643Z" fill="white"/>
<path d="M86.3851 22.927C87.5017 22.927 88.4068 22.015 88.4068 20.89C88.4068 19.7651 87.5017 18.8531 86.3851 18.8531C85.2685 18.8531 84.3633 19.7651 84.3633 20.89C84.3633 22.015 85.2685 22.927 86.3851 22.927Z" fill="white"/>
<path d="M87.06 12.2145H72.2255C71.4837 12.2145 70.8823 12.8204 70.8823 13.5677V13.5713C70.8823 14.3186 71.4837 14.9245 72.2255 14.9245H87.06C87.8018 14.9245 88.4032 14.3186 88.4032 13.5713V13.5677C88.4032 12.8204 87.8018 12.2145 87.06 12.2145Z" fill="white"/>
<path d="M80.3442 19.7742H72.2255C71.4837 19.7742 70.8823 20.38 70.8823 21.1274V21.1309C70.8823 21.8783 71.4837 22.4842 72.2255 22.4842H80.3442C81.086 22.4842 81.6874 21.8783 81.6874 21.1309V21.1274C81.6874 20.38 81.086 19.7742 80.3442 19.7742Z" fill="white"/>
</g>
</g>
<defs>
<clipPath id="clip0_6924_3728">
<rect width="100" height="65.4545" fill="white" transform="translate(0.5)"/>
</clipPath>
<clipPath id="clip1_6924_3728">
<rect width="99.3939" height="65.4545" fill="white" transform="translate(0.5)"/>
</clipPath>
</defs>
</svg>
