<svg width="101" height="66" viewBox="0 0 101 66" fill="none" xmlns="http://www.w3.org/2000/svg">
<g clip-path="url(#clip0_6924_3462)">
<g clip-path="url(#clip1_6924_3462)">
<path opacity="0.3" d="M100.324 4.06749V60.4779C100.324 62.3773 98.7498 63.9188 96.8098 63.9188H22.8167C20.8767 63.9188 19.3022 62.3773 19.3022 60.4779V59.6899L43.5519 45.9813V18.5641L19.3022 4.8589V4.06749C19.3022 2.1681 20.8767 0.626572 22.8167 0.626572H96.8098C98.7498 0.626572 100.324 2.1681 100.324 4.06749Z" fill="#3E85D0"/>
<path opacity="0.3" d="M0.675781 23.7289V40.8131C0.675781 42.0415 1.34704 43.177 2.433 43.7929L17.5451 52.3367C18.6311 52.9526 19.9736 52.9526 21.0596 52.3367L36.1717 43.7929C37.2576 43.177 37.9289 42.0415 37.9289 40.8131V23.7289C37.9289 22.5005 37.2576 21.365 36.1717 20.7491L21.0596 12.2053C19.9736 11.5893 18.6311 11.5893 17.5451 12.2053L2.433 20.7491C1.34704 21.365 0.675781 22.5005 0.675781 23.7289Z" fill="#F7BC3D" stroke="#F7BC3D" stroke-miterlimit="10"/>
<path d="M0.675781 23.7289V40.8131C0.675781 42.0415 1.34704 43.177 2.433 43.7929L17.5451 52.3367C18.6311 52.9526 19.9736 52.9526 21.0596 52.3367L36.1717 43.7929C37.2576 43.177 37.9289 42.0415 37.9289 40.8131V23.7289C37.9289 22.5005 37.2576 21.365 36.1717 20.7491L21.0596 12.2053C19.9736 11.5893 18.6311 11.5893 17.5451 12.2053L2.433 20.7491C1.34704 21.365 0.675781 22.5005 0.675781 23.7289Z" stroke="#F7BC3D" stroke-miterlimit="10"/>
<path d="M18.441 24.2829C18.9155 23.8184 19.6886 23.8184 20.1631 24.2829L26.2466 30.2391C26.598 30.5832 26.6999 31.0925 26.5102 31.5398C26.3204 31.9871 25.8776 32.2762 25.3855 32.2762H21.734V39.1201C21.734 39.9425 21.0522 40.6101 20.2123 40.6101H18.3883C17.5483 40.6101 16.8665 39.9425 16.8665 39.1201V32.2693H13.215C12.723 32.2693 12.2802 31.9802 12.0904 31.5329C11.9006 31.0856 12.0061 30.5763 12.354 30.2323L18.4375 24.276H18.441V24.2829Z" fill="white"/>
<path d="M93.0073 6.9028H41.7703C41.0288 6.9028 40.4277 7.49129 40.4277 8.21723V8.22067C40.4277 8.94661 41.0288 9.53511 41.7703 9.53511H93.0073C93.7488 9.53511 94.3499 8.94661 94.3499 8.22067V8.21723C94.3499 7.49129 93.7488 6.9028 93.0073 6.9028Z" fill="white"/>
<path d="M93.0072 14.6449H50.2048C49.4634 14.6449 48.8623 15.2334 48.8623 15.9593V15.9627C48.8623 16.6887 49.4634 17.2772 50.2048 17.2772H93.0072C93.7487 17.2772 94.3498 16.6887 94.3498 15.9627V15.9593C94.3498 15.2334 93.7487 14.6449 93.0072 14.6449Z" fill="white"/>
<path d="M93.0108 22.387H77.8108C77.0693 22.387 76.4683 22.9755 76.4683 23.7014V23.7048C76.4683 24.4308 77.0693 25.0193 77.8108 25.0193H93.0108C93.7522 25.0193 94.3533 24.4308 94.3533 23.7048V23.7014C94.3533 22.9755 93.7522 22.387 93.0108 22.387Z" fill="white"/>
<path d="M72.627 22.387H57.427C56.6855 22.387 56.0845 22.9755 56.0845 23.7014V23.7048C56.0845 24.4308 56.6855 25.0193 57.427 25.0193H72.627C73.3684 25.0193 73.9695 24.4308 73.9695 23.7048V23.7014C73.9695 22.9755 73.3684 22.387 72.627 22.387Z" fill="white"/>
<path d="M90.8249 39.5434H79.6209C77.6799 39.5434 76.1064 41.0839 76.1064 42.9843V53.9539C76.1064 55.8543 77.6799 57.3949 79.6209 57.3949H90.8249C92.7659 57.3949 94.3394 55.8543 94.3394 53.9539V42.9843C94.3394 41.0839 92.7659 39.5434 90.8249 39.5434Z" fill="#3E85D0"/>
<path d="M68.3147 39.5434H57.1106C55.1697 39.5434 53.5962 41.0839 53.5962 42.9843V53.9539C53.5962 55.8543 55.1697 57.3949 57.1106 57.3949H68.3147C70.2557 57.3949 71.8291 55.8543 71.8291 53.9539V42.9843C71.8291 41.0839 70.2557 39.5434 68.3147 39.5434Z" fill="#3E85D0"/>
<path d="M85.2229 52.6567C87.5846 52.6567 89.5 50.7814 89.5 48.4691C89.5 46.1568 87.5846 44.2815 85.2229 44.2815C82.8612 44.2815 80.9458 46.1568 80.9458 48.4691C80.9458 50.7814 82.8612 52.6567 85.2229 52.6567ZM87.1101 47.6984L84.9698 49.7939C84.8117 49.9487 84.5587 49.9487 84.404 49.7939L83.3356 48.7478C83.1775 48.593 83.1775 48.3453 83.3356 48.1939C83.4938 48.0424 83.7468 48.039 83.9014 48.1939L84.6852 48.9612L86.5408 47.1444C86.699 46.9895 86.952 46.9895 87.1066 47.1444C87.2613 47.2992 87.2648 47.547 87.1066 47.6984H87.1101Z" fill="white"/>
<path d="M62.7126 52.8288C65.1727 52.8288 67.1654 50.8778 67.1654 48.4691C67.1654 46.0605 65.1727 44.1095 62.7126 44.1095C60.2525 44.1095 58.2598 46.0605 58.2598 48.4691C58.2598 50.8778 60.2525 52.8288 62.7126 52.8288ZM62.7126 46.291C62.9445 46.291 63.1308 46.4734 63.1308 46.7005V48.6067C63.1308 48.8338 62.9445 49.0162 62.7126 49.0162C62.4806 49.0162 62.2943 48.8338 62.2943 48.6067V46.7005C62.2943 46.4734 62.4806 46.291 62.7126 46.291ZM62.1573 50.1035C62.1573 49.8042 62.4068 49.5599 62.7126 49.5599C63.0183 49.5599 63.2679 49.8042 63.2679 50.1035C63.2679 50.4029 63.0183 50.6472 62.7126 50.6472C62.4068 50.6472 62.1573 50.4029 62.1573 50.1035Z" fill="white"/>
<path d="M100.324 4.06749V60.4779C100.324 62.3773 98.7498 63.9188 96.8098 63.9188H22.8167C20.8767 63.9188 19.3022 62.3773 19.3022 60.4779V59.6899L43.5519 45.9813V18.5641L19.3022 4.8589V4.06749C19.3022 2.1681 20.8767 0.626572 22.8167 0.626572H96.8098C98.7498 0.626572 100.324 2.1681 100.324 4.06749Z" stroke="#3E85D0" stroke-miterlimit="10"/>
</g>
</g>
<defs>
<clipPath id="clip0_6924_3462">
<rect width="100" height="65.4545" fill="white" transform="translate(0.5 0.454529)"/>
</clipPath>
<clipPath id="clip1_6924_3462">
<rect width="100" height="63.6364" fill="white" transform="translate(0.5 0.454529)"/>
</clipPath>
</defs>
</svg>
