<svg width="101" height="66" viewBox="0 0 101 66" fill="none" xmlns="http://www.w3.org/2000/svg">
<g clip-path="url(#clip0_6924_2288)">
<g clip-path="url(#clip1_6924_2288)">
<path opacity="0.3" d="M99.7179 3.80239V26.9264C99.7179 28.8563 98.1408 30.4226 96.1976 30.4226H88.0025V26.2202C88.0025 21.5947 84.2112 17.8292 79.5539 17.8292H20.7448C16.084 17.8292 12.2963 21.5947 12.2963 26.2202V30.4226H4.29123C4.19971 30.4226 4.1117 30.4191 4.0237 30.4121C3.99201 30.4121 3.96033 30.4121 3.93217 30.4051C2.15797 30.2268 0.770996 28.7374 0.770996 26.9264V3.80239C0.770996 1.87248 2.34806 0.306175 4.29123 0.306175H96.1976C96.2575 0.306175 96.3138 0.306175 96.3701 0.309671C96.4018 0.313168 96.4335 0.313168 96.4616 0.316664C98.2816 0.44952 99.7179 1.95989 99.7179 3.80239Z" fill="#3E85D0" stroke="#3E85D0" stroke-miterlimit="10"/>
<path opacity="0.3" d="M99.6226 37.9291V61.0496C99.6226 62.0145 99.2284 62.8886 98.5912 63.5214C98.4715 63.6403 98.3448 63.7487 98.2075 63.8535C97.6196 64.2906 96.8909 64.5493 96.1024 64.5493H4.19602C3.40749 64.5493 2.6788 64.2906 2.09092 63.8535C1.95363 63.7487 1.8269 63.6403 1.70721 63.5214C1.07005 62.8886 0.675781 62.0145 0.675781 61.0496V37.9291C0.675781 35.9957 2.25285 34.4329 4.19602 34.4329H12.2961V40.0863C12.2961 44.7118 16.0839 48.4772 20.7447 48.4772H79.5538C84.211 48.4772 88.0023 44.7118 88.0023 40.0863V34.4329H96.1024C98.0456 34.4329 99.6226 35.9957 99.6226 37.9291Z" fill="#F7BC3D" stroke="#F7BC3D" stroke-miterlimit="10"/>
<path d="M99.6226 3.79544V26.9194C99.6226 28.8493 98.0456 30.4156 96.1024 30.4156H88.0023V26.2202C88.0023 21.5947 84.211 17.8293 79.5538 17.8293H20.7447C16.0839 17.8293 12.2961 21.5947 12.2961 26.2202V30.4156H4.19602C4.13618 30.4156 4.07985 30.4156 4.02353 30.4121C3.99185 30.4121 3.96016 30.4122 3.932 30.4052C2.11204 30.2723 0.675781 28.7619 0.675781 26.9194V3.79544C0.675781 1.86552 2.25285 0.299217 4.19602 0.299217H96.1024C96.1939 0.299217 96.2819 0.302713 96.3699 0.309706C96.4016 0.313202 96.4333 0.313202 96.4615 0.316698C98.2357 0.495005 99.6226 1.98439 99.6226 3.79544Z" stroke="#3E85D0" stroke-miterlimit="10"/>
<path d="M99.6226 37.9291V61.0496C99.6226 62.0145 99.2284 62.8886 98.5912 63.5214C98.4715 63.6403 98.3448 63.7487 98.2075 63.8536C97.6196 64.2871 96.8909 64.5458 96.1024 64.5458H4.19602C3.40749 64.5458 2.6788 64.2871 2.09092 63.8536C1.95363 63.7487 1.8269 63.6403 1.70721 63.5214C1.07005 62.8886 0.675781 62.0145 0.675781 61.0496V37.9291C0.675781 35.9957 2.25285 34.4329 4.19602 34.4329H12.2961V40.0863C12.2961 44.7118 16.0839 48.4772 20.7447 48.4772H79.5538C84.211 48.4772 88.0023 44.7118 88.0023 40.0863V34.4329H96.1024C98.0456 34.4329 99.6226 35.9957 99.6226 37.9291Z" stroke="#F7BC3D" stroke-miterlimit="10"/>
<path d="M79.6492 22.724H20.8401C18.8959 22.724 17.3198 24.2893 17.3198 26.2202V40.0862C17.3198 42.0171 18.8959 43.5824 20.8401 43.5824H79.6492C81.5933 43.5824 83.1694 42.0171 83.1694 40.0862V26.2202C83.1694 24.2893 81.5933 22.724 79.6492 22.724Z" fill="#3E85D0"/>
<path d="M31.0206 28.0592C30.6792 27.9613 30.3236 28.1606 30.225 28.4997L27.6482 37.457C27.5497 37.7962 27.7503 38.1493 28.0918 38.2472C28.4332 38.3451 28.7888 38.1458 28.8874 37.8066L31.4642 28.8493C31.5627 28.5102 31.3621 28.1571 31.0206 28.0592ZM32.6434 30.4611C32.3935 30.7093 32.3935 31.1184 32.6434 31.3666L34.4423 33.1532L32.6434 34.9397C32.3935 35.188 32.3935 35.597 32.6434 35.8453C32.8934 36.0935 33.3053 36.0935 33.5552 35.8453L35.8117 33.6042C36.0616 33.356 36.0616 32.9469 35.8117 32.6987L33.5552 30.4576C33.3053 30.2094 32.8934 30.2094 32.6434 30.4576V30.4611ZM26.4689 30.4611C26.219 30.2129 25.8071 30.2129 25.5572 30.4611L23.3007 32.7022C23.0508 32.9504 23.0508 33.3595 23.3007 33.6077L25.5572 35.8488C25.8071 36.097 26.219 36.097 26.4689 35.8488C26.7189 35.6005 26.7189 35.1915 26.4689 34.9432L24.6701 33.1567L26.4689 31.3701C26.7189 31.1219 26.7189 30.7128 26.4689 30.4646V30.4611Z" fill="white"/>
<path d="M47.3578 36.7473H39.8949C39.471 36.7473 39.1274 37.0886 39.1274 37.5095C39.1274 37.9305 39.471 38.2717 39.8949 38.2717H47.3578C47.7816 38.2717 48.1252 37.9305 48.1252 37.5095C48.1252 37.0886 47.7816 36.7473 47.3578 36.7473Z" fill="white"/>
<path d="M58.4749 36.7473H51.012C50.5882 36.7473 50.2446 37.0886 50.2446 37.5095C50.2446 37.9305 50.5882 38.2717 51.012 38.2717H58.4749C58.8988 38.2717 59.2424 37.9305 59.2424 37.5095C59.2424 37.0886 58.8988 36.7473 58.4749 36.7473Z" fill="white"/>
<path d="M69.9754 36.7473H62.5125C62.0887 36.7473 61.7451 37.0886 61.7451 37.5095C61.7451 37.9305 62.0887 38.2717 62.5125 38.2717H69.9754C70.3993 38.2717 70.7428 37.9305 70.7428 37.5095C70.7428 37.0886 70.3993 36.7473 69.9754 36.7473Z" fill="white"/>
</g>
</g>
<defs>
<clipPath id="clip0_6924_2288">
<rect width="100" height="65.4545" fill="white" transform="translate(0.5)"/>
</clipPath>
<clipPath id="clip1_6924_2288">
<rect width="99.3939" height="67.2727" fill="white" transform="translate(0.5 -1.21212)"/>
</clipPath>
</defs>
</svg>
