<svg width="20" height="20" viewBox="0 0 20 20" fill="none" xmlns="http://www.w3.org/2000/svg">
<path d="M9.48599 6.11201C9.51555 6.12666 9.5392 6.16181 9.57467 6.16181C9.60719 6.16181 9.65745 6.1501 9.6604 6.11787C9.66631 6.07686 9.60424 6.05049 9.56581 6.03292C9.51555 6.01241 9.45052 6.00362 9.40322 6.02999C9.39139 6.03585 9.37957 6.05049 9.38548 6.06221C9.39435 6.10029 9.45347 6.09444 9.48599 6.11201ZM8.8386 6.16181C8.87407 6.16181 8.89772 6.12666 8.92728 6.11201C8.9598 6.09444 9.01892 6.10029 9.03074 6.06514C9.03666 6.05342 9.02483 6.03878 9.01301 6.03292C8.96571 6.00655 8.90067 6.01534 8.85042 6.03585C8.81199 6.05342 8.74991 6.07979 8.75582 6.1208C8.75878 6.1501 8.80903 6.16474 8.8386 6.16181ZM15.3746 14.3291C15.2682 14.2119 15.2179 13.9893 15.1618 13.752C15.1086 13.5147 15.0465 13.2599 14.8514 13.0958C14.8129 13.0636 14.7745 13.0343 14.7331 13.0109C14.6947 12.9874 14.6533 12.9669 14.6119 12.9523C14.8839 12.1525 14.7775 11.3557 14.5026 10.6351C14.1656 9.75331 13.5773 8.98287 13.128 8.45557C12.6225 7.82574 12.1317 7.22813 12.1406 6.34637C12.1554 5.00175 12.2914 2.50294 9.89985 2.50001C6.87277 2.49415 7.62954 5.52905 7.59702 6.46062C7.54676 7.14611 7.40783 7.68512 6.93189 8.35597C6.37318 9.01509 5.58685 10.0785 5.21437 11.1887C5.037 11.7131 4.95423 12.2463 5.03109 12.7501C4.83894 12.92 4.69409 13.1808 4.54037 13.3419C4.41622 13.4678 4.23589 13.5147 4.03783 13.585C3.83977 13.6553 3.62397 13.7608 3.49094 14.0098C3.42887 14.124 3.40817 14.2471 3.40817 14.373C3.40817 14.4873 3.42591 14.6045 3.44365 14.7187C3.47912 14.956 3.51755 15.1786 3.4673 15.328C3.31358 15.7499 3.29288 16.0428 3.40226 16.2567C3.51459 16.4705 3.73926 16.5643 3.99644 16.617C4.50786 16.7225 5.20255 16.6961 5.74943 16.9832C6.33475 17.2878 6.92893 17.3962 7.40191 17.2878C7.74483 17.2117 8.02566 17.0066 8.16755 16.6961C8.53707 16.6932 8.94502 16.5379 9.59537 16.5027C10.0358 16.4676 10.5886 16.658 11.2242 16.6229C11.2419 16.6902 11.2656 16.7576 11.2981 16.8191V16.8221C11.5435 17.3113 12.0017 17.5339 12.4894 17.4958C12.9801 17.4577 13.4975 17.1736 13.9172 16.6785C14.3193 16.1981 14.9814 15.9989 15.4219 15.7352C15.6407 15.6034 15.818 15.4394 15.8328 15.1991C15.8446 14.9589 15.7027 14.6924 15.3746 14.3291ZM9.57172 5.05741C9.86142 4.40708 10.5827 4.41879 10.8724 5.0457C11.0646 5.46168 10.9788 5.95089 10.7453 6.22919C10.698 6.20575 10.5709 6.15302 10.3728 6.08565C10.4053 6.05049 10.4645 6.00655 10.4881 5.95089C10.63 5.60522 10.4822 5.15994 10.2191 5.15115C10.0033 5.13651 9.80821 5.46754 9.87029 5.82493C9.74909 5.76634 9.59241 5.7224 9.48599 5.69603C9.45643 5.4939 9.47712 5.26833 9.57172 5.05741ZM8.36857 4.72053C8.66714 4.72053 8.98345 5.13651 8.93319 5.70189C8.82973 5.73118 8.72331 5.77513 8.63167 5.83664C8.66714 5.57592 8.53411 5.24783 8.34788 5.26247C8.09956 5.28298 8.05818 5.88352 8.29467 6.08565C8.32423 6.10908 8.35083 6.07979 8.12025 6.24677C7.6591 5.81907 7.80986 4.72053 8.36857 4.72053ZM7.96654 6.4987C8.14982 6.36394 8.36857 6.20575 8.38335 6.19111C8.52229 6.06221 8.78243 5.77513 9.20811 5.77513C9.418 5.77513 9.66927 5.8425 9.97375 6.03585C10.16 6.15595 10.3078 6.16474 10.6418 6.30829C10.8902 6.41082 11.0468 6.59244 10.9522 6.84144C10.8754 7.04943 10.6271 7.26328 10.2812 7.37167C9.95306 7.47713 9.69588 7.84038 9.15195 7.80816C9.03666 7.8023 8.94502 7.77887 8.86816 7.74664C8.63167 7.64411 8.50751 7.44198 8.27693 7.30723C8.0227 7.16661 7.88672 7.00256 7.84238 6.85902C7.80099 6.71548 7.84238 6.59537 7.96654 6.4987ZM8.06409 16.283C7.98427 17.3113 6.76634 17.2908 5.83812 16.8103C4.95423 16.3475 3.81021 16.6199 3.57667 16.1688C3.50572 16.0311 3.50572 15.7968 3.65353 15.3954V15.3896C3.72448 15.1669 3.67127 14.9208 3.63579 14.6894C3.60032 14.4609 3.58258 14.25 3.6624 14.1035C3.76586 13.9073 3.91367 13.837 4.09991 13.7725C4.40439 13.6641 4.44873 13.6729 4.67931 13.4825C4.8419 13.3155 4.96014 13.1046 5.10204 12.9552C5.2528 12.7941 5.39765 12.7179 5.62527 12.7531C5.86472 12.7882 6.07165 12.9523 6.27267 13.2218L6.85207 14.2647C7.1329 14.8476 8.12617 15.6825 8.06409 16.283ZM8.0227 15.5243C7.9015 15.331 7.73891 15.1259 7.59702 14.9501C7.8069 14.9501 8.01679 14.8857 8.09069 14.6894C8.15868 14.5078 8.09069 14.2529 7.87194 13.96C7.47286 13.4268 6.73974 13.0079 6.73974 13.0079C6.34066 12.7618 6.11599 12.4601 6.01253 12.132C5.90906 11.8039 5.92384 11.4495 6.00366 11.1009C6.15738 10.43 6.5535 9.77675 6.80773 9.36662C6.87572 9.31682 6.83138 9.46037 6.55055 9.97595C6.29927 10.4476 5.82925 11.5373 6.47369 12.3898C6.49142 11.7834 6.63627 11.1653 6.88163 10.5882C7.23637 9.78553 7.98427 8.39405 8.0434 7.28672C8.07591 7.31015 8.17938 7.38046 8.22668 7.40683C8.36266 7.48592 8.46612 7.6031 8.59915 7.70856C8.96571 8.0015 9.44165 7.97807 9.85255 7.74371C10.0358 7.64118 10.1836 7.524 10.3226 7.48006C10.6152 7.38925 10.8488 7.22813 10.9818 7.04065C11.2094 7.9312 11.7415 9.21722 12.0815 9.84412C12.2618 10.1781 12.6225 10.8841 12.7791 11.7365C12.8767 11.7336 12.9861 11.7483 13.1013 11.7776C13.5093 10.7317 12.7555 9.60391 12.4126 9.29046C12.2736 9.1557 12.2677 9.09712 12.3357 9.10005C12.7082 9.42814 13.1989 10.0873 13.3763 10.8284C13.459 11.1682 13.4738 11.5227 13.3881 11.8742C13.8729 12.0734 14.4493 12.3986 14.2956 12.8937C14.2306 12.8907 14.201 12.8937 14.1715 12.8937C14.2661 12.5978 14.0562 12.3781 13.4975 12.1291C12.9181 11.8772 12.4333 11.8772 12.3653 12.4953C12.0076 12.6183 11.8243 12.9259 11.7327 13.295C11.6499 13.6231 11.6262 14.0186 11.6026 14.4639C11.5878 14.6894 11.4962 14.9912 11.4016 15.3134C10.4526 15.9842 9.13421 16.2772 8.0227 15.5243ZM15.6318 15.1874C15.6052 15.6796 14.4139 15.7704 13.7635 16.5496C13.3733 17.0095 12.8944 17.2644 12.4746 17.2966C12.0549 17.3289 11.6913 17.156 11.4784 16.7312C11.3395 16.4061 11.4075 16.0545 11.5109 15.6679C11.6203 15.2519 11.7829 14.8242 11.8036 14.4785C11.8273 14.0332 11.8539 13.6436 11.9278 13.3448C12.0046 13.0431 12.1229 12.8409 12.3327 12.7267C12.3416 12.7208 12.3534 12.7179 12.3623 12.712C12.386 13.0987 12.5781 13.4913 12.9181 13.5762C13.2905 13.6729 13.8256 13.3565 14.0532 13.0987C14.3193 13.0899 14.5173 13.0724 14.7213 13.2481C15.014 13.4971 14.9312 14.1358 15.2268 14.4668C15.5402 14.8066 15.6407 15.038 15.6318 15.1874ZM8.08182 6.85609C8.14095 6.91175 8.22076 6.98792 8.31832 7.06408C8.51342 7.21641 8.78539 7.3746 9.12534 7.3746C9.46825 7.3746 9.79047 7.20177 10.0654 7.05822C10.2102 6.98206 10.3876 6.85316 10.5029 6.75356C10.6182 6.65396 10.6773 6.56901 10.5945 6.56022C10.5118 6.55143 10.5177 6.63638 10.4172 6.70962C10.2871 6.80336 10.1304 6.9264 10.0063 6.9967C9.78752 7.11974 9.42982 7.29551 9.12239 7.29551C8.81495 7.29551 8.56959 7.15489 8.38631 7.01135C8.29467 6.93812 8.21781 6.86488 8.15868 6.80922C8.11434 6.76821 8.10252 6.67447 8.03157 6.66568C7.99018 6.66275 7.97836 6.77407 8.08182 6.85609Z" fill="white"/>
</svg>
