<svg width="174" height="40" viewBox="0 0 174 40" fill="none" xmlns="http://www.w3.org/2000/svg">
<path d="M38.5957 14.6802C38.5957 11.7893 37.0026 9.12321 34.4286 7.70657L24.4306 2.20395C21.944 0.835382 18.9084 0.835506 16.4219 2.20428L6.42671 7.70645C3.85307 9.12319 2.26025 11.7891 2.26025 14.6798V25.3202C2.26025 28.2109 3.85307 30.8768 6.42671 32.2936L16.4219 37.7957C18.9084 39.1645 21.944 39.1646 24.4306 37.7961L34.4286 32.2934C37.0026 30.8768 38.5957 28.2107 38.5957 25.3198V14.6802Z" fill="#2B6CB0"/>
<path d="M20.4255 29.7807C23.5208 29.7807 26.0307 27.3877 26.0307 24.4366V23.5294C26.0307 23.4507 26.081 23.3822 26.1564 23.3548C27.0254 23.0227 32.1567 20.842 31.4816 16.0183C30.7527 10.8214 23.9804 11.6362 20.5655 14.7413C20.4865 14.8132 20.368 14.8132 20.2926 14.7413C16.8778 11.6362 10.1055 10.8214 9.37657 16.0183C8.69791 20.842 13.8292 23.0227 14.7017 23.3548C14.7772 23.3822 14.8274 23.4541 14.8274 23.5294V24.4366C14.8238 27.3911 17.3302 29.7807 20.4255 29.7807Z" fill="white"/>
<path d="M18.0295 19.4828C18.0475 19.6677 17.8069 19.7669 17.6812 19.6266C17.2718 19.1712 16.489 18.5242 15.1748 18.175C13.0203 17.6067 15.3041 16.3948 16.1874 16.7885C16.9846 17.148 17.8643 17.6478 18.0295 19.4828Z" fill="#2B6CB0"/>
<path d="M22.8271 19.4829C22.8092 19.6678 23.0498 19.7671 23.1754 19.6267C23.5848 19.1714 24.3676 18.5243 25.6818 18.1751C27.8363 17.6068 25.5525 16.3949 24.6692 16.7886C23.872 17.1481 22.9923 17.6479 22.8271 19.4829Z" fill="#2B6CB0"/>
<path d="M21.6953 22.2044C21.9897 22.824 22.4601 24.0633 22.0508 24.9397C21.9933 25.063 21.8174 25.0835 21.724 24.9842C21.3865 24.6214 20.7868 23.7141 21.3254 22.2249C21.3865 22.0606 21.6235 22.0503 21.6953 22.2044Z" fill="#2B6CB0"/>
<path d="M19.1596 22.2044C18.8652 22.824 18.3948 24.0633 18.8042 24.9397C18.8616 25.063 19.0376 25.0835 19.1309 24.9842C19.4685 24.6214 20.0681 23.7141 19.5295 22.2249C19.472 22.0606 19.2351 22.0503 19.1596 22.2044Z" fill="#2B6CB0"/>
<path d="M55.0987 27.6233C58.6585 27.6233 62.4129 25.1897 62.4129 20.3329C62.4129 19.9169 62.3913 19.4801 62.3264 19.0225H54.7958V21.9137H58.3447C57.9119 23.3385 56.8191 24.0561 54.9148 24.0561C52.9781 24.0561 51.1928 22.7353 51.1928 20.0833C51.1928 17.8057 52.7076 16.2249 54.8499 16.2249C56.1374 16.2249 57.0571 16.6513 57.7388 17.2961L60.6385 14.5505C59.3509 13.2921 57.5007 12.5329 55.0987 12.5329C50.338 12.5329 46.9839 15.6529 46.9839 20.0833C46.9839 24.5033 50.338 27.6233 55.0987 27.6233Z" fill="white"/>
<path d="M70.716 27.3633C75.455 27.3633 78.5711 24.4721 78.5711 20.0833C78.5711 15.6945 75.455 12.8033 70.716 12.8033H64.0293V27.3633H70.716ZM68.1408 16.4329H70.6078C73.0963 16.4329 74.2973 17.9513 74.2973 20.0833C74.2973 22.1841 73.0963 23.7337 70.6078 23.7337H68.1408V16.4329Z" fill="white"/>
<path d="M91.5997 27.3633V23.7233H84.3072V12.8033H80.1956V27.3633H91.5997Z" fill="white"/>
<path d="M97.2541 27.6337C98.6065 27.6337 99.537 27.1449 100.175 26.4585V27.3633H103.876V17.0569H100.175V17.9825C99.537 17.2753 98.6065 16.7761 97.2649 16.7761C94.3868 16.7761 92.3743 19.2201 92.3743 22.1945C92.3743 25.1897 94.3868 27.6337 97.2541 27.6337ZM98.2495 24.1913C97.1459 24.1913 96.3452 23.3593 96.3452 22.2049C96.3452 21.0505 97.1459 20.2185 98.2495 20.2185C99.3531 20.2185 100.154 21.0505 100.154 22.2049C100.154 23.3593 99.3531 24.1913 98.2495 24.1913Z" fill="white"/>
<path d="M110.956 27.6337C113.953 27.6337 116.215 26.1361 116.215 22.9329V17.0569H112.363V22.6105C112.363 23.6401 111.8 24.1913 110.956 24.1913C110.112 24.1913 109.55 23.6401 109.55 22.6105V17.0569H105.698V22.9225C105.698 26.1361 107.959 27.6337 110.956 27.6337Z" fill="white"/>
<path d="M121.903 27.3633V21.8409C121.903 20.7281 122.476 20.2393 123.245 20.2393C124.089 20.2393 124.597 20.7905 124.597 21.8201V27.3633H128.449V20.6553C128.449 18.2841 126.837 16.7761 124.619 16.7761C123.277 16.7761 122.325 17.2233 121.719 18.1177V17.0569H118.051V27.3633H121.903Z" fill="white"/>
<path d="M135.643 27.6337C137.785 27.6337 139.419 26.6769 140.468 25.1585L137.298 23.2137C136.833 23.8793 136.248 24.1913 135.524 24.1913C134.582 24.1913 133.738 23.5049 133.738 22.2049C133.738 20.9153 134.615 20.2185 135.556 20.2185C136.313 20.2185 136.844 20.5305 137.298 21.1857L140.457 19.2721C139.397 17.7329 137.785 16.7761 135.643 16.7761C132.213 16.7761 129.8 19.0225 129.8 22.2049C129.8 25.3873 132.213 27.6337 135.643 27.6337Z" fill="white"/>
<path d="M145.423 27.3633V21.8409C145.423 20.7073 146.018 20.2393 146.765 20.2393C147.609 20.2393 148.117 20.7905 148.117 21.8201V27.3633H151.969V20.6553C151.969 18.2841 150.357 16.7761 148.139 16.7761C146.927 16.7761 146.029 17.1401 145.423 17.8681V12.3665H141.571V27.3633H145.423Z" fill="white"/>
<path d="M159.044 27.6337C161.165 27.6337 162.853 26.9265 163.891 25.8449L161.251 23.7233C160.667 24.2745 159.92 24.5553 159.228 24.5553C158.211 24.5553 157.562 24.1393 157.302 23.3073H164.302C164.346 23.0993 164.378 22.5585 164.378 22.2049C164.367 18.9809 162.138 16.7761 158.892 16.7761C155.592 16.7761 153.32 19.0329 153.32 22.2985C153.32 25.4913 155.614 27.6337 159.044 27.6337ZM157.313 21.0713C157.562 20.2705 158.092 19.8857 158.914 19.8857C159.715 19.8857 160.256 20.2705 160.537 21.0713H157.313Z" fill="white"/>
<path d="M169.631 27.3633V21.8409C169.631 20.7073 170.28 20.3433 171.351 20.3433C171.968 20.3433 172.595 20.4681 173.039 20.5825L173.255 16.8801C173.104 16.8489 172.714 16.7761 172.292 16.7761C170.983 16.7761 170.042 17.1817 169.447 18.0969V17.0569H165.768V27.3633H169.631Z" fill="white"/>
</svg>
