<svg width="1440" height="791" viewBox="0 0 1440 791" fill="none" xmlns="http://www.w3.org/2000/svg">
<g opacity="0.2">
<rect x="-80.5" y="0.5" width="98" height="97" rx="7.5" stroke="url(#paint0_linear_6804_149077)"/>
</g>
<g opacity="0.15">
<rect x="18.5" y="0.5" width="97" height="97" rx="7.5" fill="url(#paint1_linear_6804_149077)"/>
<rect x="18.5" y="0.5" width="97" height="97" rx="7.5" stroke="url(#paint2_linear_6804_149077)"/>
</g>
<g opacity="0.2">
<rect x="116.5" y="0.5" width="97" height="97" rx="7.5" stroke="url(#paint3_linear_6804_149077)"/>
</g>
<g opacity="0.2">
<rect x="214.5" y="0.5" width="98" height="97" rx="7.5" stroke="url(#paint4_linear_6804_149077)"/>
</g>
<g opacity="0.2">
<rect x="313.5" y="0.5" width="97" height="97" rx="7.5" stroke="url(#paint5_linear_6804_149077)"/>
</g>
<g opacity="0.2">
<rect x="411.5" y="0.5" width="98" height="97" rx="7.5" stroke="url(#paint6_linear_6804_149077)"/>
</g>
<g opacity="0.2">
<rect x="510.5" y="0.5" width="97" height="97" rx="7.5" stroke="url(#paint7_linear_6804_149077)"/>
</g>
<g opacity="0.2">
<rect x="608.5" y="0.5" width="98" height="97" rx="7.5" stroke="url(#paint8_linear_6804_149077)"/>
</g>
<g opacity="0.2">
<rect x="707.5" y="0.5" width="97" height="97" rx="7.5" stroke="url(#paint9_linear_6804_149077)"/>
</g>
<g opacity="0.2">
<rect x="805.5" y="0.5" width="98" height="97" rx="7.5" stroke="url(#paint10_linear_6804_149077)"/>
</g>
<g opacity="0.2">
<rect x="904.5" y="0.5" width="97" height="97" rx="7.5" stroke="url(#paint11_linear_6804_149077)"/>
</g>
<g opacity="0.2">
<rect x="1002.5" y="0.5" width="98" height="97" rx="7.5" stroke="url(#paint12_linear_6804_149077)"/>
</g>
<g opacity="0.2">
<rect x="1101.5" y="0.5" width="97" height="97" rx="7.5" stroke="url(#paint13_linear_6804_149077)"/>
</g>
<g opacity="0.15">
<rect x="1199.5" y="0.5" width="98" height="97" rx="7.5" fill="url(#paint14_linear_6804_149077)"/>
<rect x="1199.5" y="0.5" width="98" height="97" rx="7.5" stroke="url(#paint15_linear_6804_149077)"/>
</g>
<g opacity="0.2">
<rect x="1298.5" y="0.5" width="97" height="97" rx="7.5" stroke="url(#paint16_linear_6804_149077)"/>
</g>
<g opacity="0.2">
<rect x="1396.5" y="0.5" width="98" height="97" rx="7.5" stroke="url(#paint17_linear_6804_149077)"/>
</g>
<g opacity="0.2">
<rect x="-80.5" y="98.5" width="98" height="98" rx="7.5" stroke="url(#paint18_linear_6804_149077)"/>
</g>
<g opacity="0.2">
<rect x="18.5" y="98.5" width="97" height="98" rx="7.5" stroke="url(#paint19_linear_6804_149077)"/>
</g>
<g opacity="0.2">
<rect x="116.5" y="98.5" width="97" height="98" rx="7.5" stroke="url(#paint20_linear_6804_149077)"/>
</g>
<g opacity="0.2">
<rect x="214.5" y="98.5" width="98" height="98" rx="7.5" stroke="url(#paint21_linear_6804_149077)"/>
</g>
<g opacity="0.15">
<rect x="313.5" y="98.5" width="97" height="98" rx="7.5" fill="url(#paint22_linear_6804_149077)"/>
<rect x="313.5" y="98.5" width="97" height="98" rx="7.5" stroke="url(#paint23_linear_6804_149077)"/>
</g>
<g opacity="0.2">
<rect x="411.5" y="98.5" width="98" height="98" rx="7.5" stroke="url(#paint24_linear_6804_149077)"/>
</g>
<g opacity="0.2">
<rect x="510.5" y="98.5" width="97" height="98" rx="7.5" stroke="url(#paint25_linear_6804_149077)"/>
</g>
<g opacity="0.2">
<rect x="608.5" y="98.5" width="98" height="98" rx="7.5" stroke="url(#paint26_linear_6804_149077)"/>
</g>
<g opacity="0.2">
<rect x="707.5" y="98.5" width="97" height="98" rx="7.5" stroke="url(#paint27_linear_6804_149077)"/>
</g>
<g opacity="0.2">
<rect x="805.5" y="98.5" width="98" height="98" rx="7.5" stroke="url(#paint28_linear_6804_149077)"/>
</g>
<g opacity="0.2">
<rect x="904.5" y="98.5" width="97" height="98" rx="7.5" stroke="url(#paint29_linear_6804_149077)"/>
</g>
<g opacity="0.2">
<rect x="1002.5" y="98.5" width="98" height="98" rx="7.5" stroke="url(#paint30_linear_6804_149077)"/>
</g>
<g opacity="0.2">
<rect x="1101.5" y="98.5" width="97" height="98" rx="7.5" stroke="url(#paint31_linear_6804_149077)"/>
</g>
<g opacity="0.2">
<rect x="1199.5" y="98.5" width="98" height="98" rx="7.5" stroke="url(#paint32_linear_6804_149077)"/>
</g>
<g opacity="0.2">
<rect x="1298.5" y="98.5" width="97" height="98" rx="7.5" stroke="url(#paint33_linear_6804_149077)"/>
</g>
<g opacity="0.2">
<rect x="1396.5" y="98.5" width="98" height="98" rx="7.5" stroke="url(#paint34_linear_6804_149077)"/>
</g>
<g opacity="0.2">
<rect x="-80.5" y="197.5" width="98" height="98" rx="7.5" stroke="url(#paint35_linear_6804_149077)"/>
</g>
<g opacity="0.2">
<rect x="18.5" y="197.5" width="97" height="98" rx="7.5" stroke="url(#paint36_linear_6804_149077)"/>
</g>
<g opacity="0.2">
<rect x="116.5" y="197.5" width="97" height="98" rx="7.5" stroke="url(#paint37_linear_6804_149077)"/>
</g>
<g opacity="0.2">
<rect x="214.5" y="197.5" width="98" height="98" rx="7.5" stroke="url(#paint38_linear_6804_149077)"/>
</g>
<g opacity="0.2">
<rect x="313.5" y="197.5" width="97" height="98" rx="7.5" stroke="url(#paint39_linear_6804_149077)"/>
</g>
<g opacity="0.2">
<rect x="411.5" y="197.5" width="98" height="98" rx="7.5" stroke="url(#paint40_linear_6804_149077)"/>
</g>
<g opacity="0.2">
<rect x="510.5" y="197.5" width="97" height="98" rx="7.5" stroke="url(#paint41_linear_6804_149077)"/>
</g>
<g opacity="0.2">
<rect x="608.5" y="197.5" width="98" height="98" rx="7.5" stroke="url(#paint42_linear_6804_149077)"/>
</g>
<g opacity="0.2">
<rect x="707.5" y="197.5" width="97" height="98" rx="7.5" stroke="url(#paint43_linear_6804_149077)"/>
</g>
<g opacity="0.2">
<rect x="805.5" y="197.5" width="98" height="98" rx="7.5" stroke="url(#paint44_linear_6804_149077)"/>
</g>
<g opacity="0.2">
<rect x="904.5" y="197.5" width="97" height="98" rx="7.5" stroke="url(#paint45_linear_6804_149077)"/>
</g>
<g opacity="0.2">
<rect x="1002.5" y="197.5" width="98" height="98" rx="7.5" stroke="url(#paint46_linear_6804_149077)"/>
</g>
<g opacity="0.2">
<rect x="1101.5" y="197.5" width="97" height="98" rx="7.5" stroke="url(#paint47_linear_6804_149077)"/>
</g>
<g opacity="0.2">
<rect x="1199.5" y="197.5" width="98" height="98" rx="7.5" stroke="url(#paint48_linear_6804_149077)"/>
</g>
<g opacity="0.2">
<rect x="1298.5" y="197.5" width="97" height="98" rx="7.5" stroke="url(#paint49_linear_6804_149077)"/>
</g>
<g opacity="0.15">
<rect x="1396.5" y="197.5" width="98" height="98" rx="7.5" fill="url(#paint50_linear_6804_149077)"/>
<rect x="1396.5" y="197.5" width="98" height="98" rx="7.5" stroke="url(#paint51_linear_6804_149077)"/>
</g>
<g opacity="0.6">
<g opacity="0.2">
<rect x="-80.5" y="296.5" width="98" height="98" rx="7.5" stroke="url(#paint52_linear_6804_149077)"/>
</g>
<g opacity="0.2">
<rect x="18.5" y="296.5" width="97" height="98" rx="7.5" stroke="url(#paint53_linear_6804_149077)"/>
</g>
<g opacity="0.2">
<rect x="116.5" y="296.5" width="97" height="98" rx="7.5" stroke="url(#paint54_linear_6804_149077)"/>
</g>
<g opacity="0.2">
<rect x="214.5" y="296.5" width="98" height="98" rx="7.5" stroke="url(#paint55_linear_6804_149077)"/>
</g>
<g opacity="0.2">
<rect x="313.5" y="296.5" width="97" height="98" rx="7.5" stroke="url(#paint56_linear_6804_149077)"/>
</g>
<g opacity="0.2">
<rect x="411.5" y="296.5" width="98" height="98" rx="7.5" stroke="url(#paint57_linear_6804_149077)"/>
</g>
<g opacity="0.2">
<rect x="510.5" y="296.5" width="97" height="98" rx="7.5" stroke="url(#paint58_linear_6804_149077)"/>
</g>
<g opacity="0.2">
<rect x="608.5" y="296.5" width="98" height="98" rx="7.5" stroke="url(#paint59_linear_6804_149077)"/>
</g>
<g opacity="0.2">
<rect x="707.5" y="296.5" width="97" height="98" rx="7.5" stroke="url(#paint60_linear_6804_149077)"/>
</g>
<g opacity="0.2">
<rect x="805.5" y="296.5" width="98" height="98" rx="7.5" stroke="url(#paint61_linear_6804_149077)"/>
</g>
<g opacity="0.2">
<rect x="904.5" y="296.5" width="97" height="98" rx="7.5" stroke="url(#paint62_linear_6804_149077)"/>
</g>
<g opacity="0.2">
<rect x="1002.5" y="296.5" width="98" height="98" rx="7.5" stroke="url(#paint63_linear_6804_149077)"/>
</g>
<g opacity="0.2">
<rect x="1101.5" y="296.5" width="97" height="98" rx="7.5" stroke="url(#paint64_linear_6804_149077)"/>
</g>
<g opacity="0.2">
<rect x="1199.5" y="296.5" width="98" height="98" rx="7.5" stroke="url(#paint65_linear_6804_149077)"/>
</g>
<g opacity="0.2">
<rect x="1298.5" y="296.5" width="97" height="98" rx="7.5" stroke="url(#paint66_linear_6804_149077)"/>
</g>
<g opacity="0.2">
<rect x="1396.5" y="296.5" width="98" height="98" rx="7.5" stroke="url(#paint67_linear_6804_149077)"/>
</g>
</g>
<g opacity="0.4">
<g opacity="0.2">
<rect x="-80.5" y="395.5" width="98" height="98" rx="7.5" stroke="url(#paint68_linear_6804_149077)"/>
</g>
<g opacity="0.2">
<rect x="18.5" y="395.5" width="97" height="98" rx="7.5" stroke="url(#paint69_linear_6804_149077)"/>
</g>
<g opacity="0.2">
<rect x="116.5" y="395.5" width="97" height="98" rx="7.5" stroke="url(#paint70_linear_6804_149077)"/>
</g>
<g opacity="0.2">
<rect x="214.5" y="395.5" width="98" height="98" rx="7.5" stroke="url(#paint71_linear_6804_149077)"/>
</g>
<g opacity="0.2">
<rect x="313.5" y="395.5" width="97" height="98" rx="7.5" stroke="url(#paint72_linear_6804_149077)"/>
</g>
<g opacity="0.2">
<rect x="411.5" y="395.5" width="98" height="98" rx="7.5" stroke="url(#paint73_linear_6804_149077)"/>
</g>
<g opacity="0.2">
<rect x="510.5" y="395.5" width="97" height="98" rx="7.5" stroke="url(#paint74_linear_6804_149077)"/>
</g>
<g opacity="0.2">
<rect x="608.5" y="395.5" width="98" height="98" rx="7.5" stroke="url(#paint75_linear_6804_149077)"/>
</g>
<g opacity="0.2">
<rect x="707.5" y="395.5" width="97" height="98" rx="7.5" stroke="url(#paint76_linear_6804_149077)"/>
</g>
<g opacity="0.2">
<rect x="805.5" y="395.5" width="98" height="98" rx="7.5" stroke="url(#paint77_linear_6804_149077)"/>
</g>
<g opacity="0.2">
<rect x="904.5" y="395.5" width="97" height="98" rx="7.5" stroke="url(#paint78_linear_6804_149077)"/>
</g>
<g opacity="0.2">
<rect x="1002.5" y="395.5" width="98" height="98" rx="7.5" stroke="url(#paint79_linear_6804_149077)"/>
</g>
<g opacity="0.2">
<rect x="1101.5" y="395.5" width="97" height="98" rx="7.5" stroke="url(#paint80_linear_6804_149077)"/>
</g>
<g opacity="0.2">
<rect x="1199.5" y="395.5" width="98" height="98" rx="7.5" stroke="url(#paint81_linear_6804_149077)"/>
</g>
<g opacity="0.2">
<rect x="1298.5" y="395.5" width="97" height="98" rx="7.5" stroke="url(#paint82_linear_6804_149077)"/>
</g>
<g opacity="0.2">
<rect x="1396.5" y="395.5" width="98" height="98" rx="7.5" stroke="url(#paint83_linear_6804_149077)"/>
</g>
</g>
<g opacity="0.4">
<g opacity="0.2">
<rect x="-80.5" y="494.5" width="98" height="98" rx="7.5" stroke="url(#paint84_linear_6804_149077)"/>
</g>
<g opacity="0.2">
<rect x="18.5" y="494.5" width="97" height="98" rx="7.5" stroke="url(#paint85_linear_6804_149077)"/>
</g>
<g opacity="0.2">
<rect x="116.5" y="494.5" width="97" height="98" rx="7.5" stroke="url(#paint86_linear_6804_149077)"/>
</g>
<g opacity="0.2">
<rect x="214.5" y="494.5" width="98" height="98" rx="7.5" stroke="url(#paint87_linear_6804_149077)"/>
</g>
<g opacity="0.2">
<rect x="313.5" y="494.5" width="97" height="98" rx="7.5" stroke="url(#paint88_linear_6804_149077)"/>
</g>
<g opacity="0.2">
<rect x="411.5" y="494.5" width="98" height="98" rx="7.5" stroke="url(#paint89_linear_6804_149077)"/>
</g>
<g opacity="0.2">
<rect x="510.5" y="494.5" width="97" height="98" rx="7.5" stroke="url(#paint90_linear_6804_149077)"/>
</g>
<g opacity="0.2">
<rect x="608.5" y="494.5" width="98" height="98" rx="7.5" stroke="url(#paint91_linear_6804_149077)"/>
</g>
<g opacity="0.2">
<rect x="707.5" y="494.5" width="97" height="98" rx="7.5" stroke="url(#paint92_linear_6804_149077)"/>
</g>
<g opacity="0.2">
<rect x="805.5" y="494.5" width="98" height="98" rx="7.5" stroke="url(#paint93_linear_6804_149077)"/>
</g>
<g opacity="0.2">
<rect x="904.5" y="494.5" width="97" height="98" rx="7.5" stroke="url(#paint94_linear_6804_149077)"/>
</g>
<g opacity="0.2">
<rect x="1002.5" y="494.5" width="98" height="98" rx="7.5" stroke="url(#paint95_linear_6804_149077)"/>
</g>
<g opacity="0.2">
<rect x="1101.5" y="494.5" width="97" height="98" rx="7.5" stroke="url(#paint96_linear_6804_149077)"/>
</g>
<g opacity="0.2">
<rect x="1199.5" y="494.5" width="98" height="98" rx="7.5" stroke="url(#paint97_linear_6804_149077)"/>
</g>
<g opacity="0.2">
<rect x="1298.5" y="494.5" width="97" height="98" rx="7.5" stroke="url(#paint98_linear_6804_149077)"/>
</g>
<g opacity="0.2">
<rect x="1396.5" y="494.5" width="98" height="98" rx="7.5" stroke="url(#paint99_linear_6804_149077)"/>
</g>
</g>
<g opacity="0.4">
<g opacity="0.2">
<rect x="-80.5" y="593.5" width="98" height="98" rx="7.5" stroke="url(#paint100_linear_6804_149077)"/>
</g>
<g opacity="0.2">
<rect x="18.5" y="593.5" width="97" height="98" rx="7.5" stroke="url(#paint101_linear_6804_149077)"/>
</g>
<g opacity="0.2">
<rect x="116.5" y="593.5" width="97" height="98" rx="7.5" stroke="url(#paint102_linear_6804_149077)"/>
</g>
<g opacity="0.2">
<rect x="214.5" y="593.5" width="98" height="98" rx="7.5" stroke="url(#paint103_linear_6804_149077)"/>
</g>
<g opacity="0.2">
<rect x="313.5" y="593.5" width="97" height="98" rx="7.5" stroke="url(#paint104_linear_6804_149077)"/>
</g>
<g opacity="0.2">
<rect x="411.5" y="593.5" width="98" height="98" rx="7.5" stroke="url(#paint105_linear_6804_149077)"/>
</g>
<g opacity="0.2">
<rect x="510.5" y="593.5" width="97" height="98" rx="7.5" stroke="url(#paint106_linear_6804_149077)"/>
</g>
<g opacity="0.2">
<rect x="608.5" y="593.5" width="98" height="98" rx="7.5" stroke="url(#paint107_linear_6804_149077)"/>
</g>
<g opacity="0.2">
<rect x="707.5" y="593.5" width="97" height="98" rx="7.5" stroke="url(#paint108_linear_6804_149077)"/>
</g>
<g opacity="0.2">
<rect x="805.5" y="593.5" width="98" height="98" rx="7.5" stroke="url(#paint109_linear_6804_149077)"/>
</g>
<g opacity="0.2">
<rect x="904.5" y="593.5" width="97" height="98" rx="7.5" stroke="url(#paint110_linear_6804_149077)"/>
</g>
<g opacity="0.2">
<rect x="1002.5" y="593.5" width="98" height="98" rx="7.5" stroke="url(#paint111_linear_6804_149077)"/>
</g>
<g opacity="0.2">
<rect x="1101.5" y="593.5" width="97" height="98" rx="7.5" stroke="url(#paint112_linear_6804_149077)"/>
</g>
<g opacity="0.2">
<rect x="1199.5" y="593.5" width="98" height="98" rx="7.5" stroke="url(#paint113_linear_6804_149077)"/>
</g>
<g opacity="0.2">
<rect x="1298.5" y="593.5" width="97" height="98" rx="7.5" stroke="url(#paint114_linear_6804_149077)"/>
</g>
<g opacity="0.2">
<rect x="1396.5" y="593.5" width="98" height="98" rx="7.5" stroke="url(#paint115_linear_6804_149077)"/>
</g>
</g>
<g opacity="0.4">
<g opacity="0.2">
<rect x="-80.5" y="692.5" width="98" height="98" rx="7.5" stroke="url(#paint116_linear_6804_149077)"/>
</g>
<g opacity="0.2">
<rect x="18.5" y="692.5" width="97" height="98" rx="7.5" stroke="url(#paint117_linear_6804_149077)"/>
</g>
<g opacity="0.2">
<rect x="116.5" y="692.5" width="97" height="98" rx="7.5" stroke="url(#paint118_linear_6804_149077)"/>
</g>
<g opacity="0.2">
<rect x="214.5" y="692.5" width="98" height="98" rx="7.5" stroke="url(#paint119_linear_6804_149077)"/>
</g>
<g opacity="0.2">
<rect x="313.5" y="692.5" width="97" height="98" rx="7.5" stroke="url(#paint120_linear_6804_149077)"/>
</g>
<g opacity="0.2">
<rect x="411.5" y="692.5" width="98" height="98" rx="7.5" stroke="url(#paint121_linear_6804_149077)"/>
</g>
<g opacity="0.2">
<rect x="510.5" y="692.5" width="97" height="98" rx="7.5" stroke="url(#paint122_linear_6804_149077)"/>
</g>
<g opacity="0.2">
<rect x="608.5" y="692.5" width="98" height="98" rx="7.5" stroke="url(#paint123_linear_6804_149077)"/>
</g>
<g opacity="0.2">
<rect x="707.5" y="692.5" width="97" height="98" rx="7.5" stroke="url(#paint124_linear_6804_149077)"/>
</g>
<g opacity="0.2">
<rect x="805.5" y="692.5" width="98" height="98" rx="7.5" stroke="url(#paint125_linear_6804_149077)"/>
</g>
<g opacity="0.2">
<rect x="904.5" y="692.5" width="97" height="98" rx="7.5" stroke="url(#paint126_linear_6804_149077)"/>
</g>
<g opacity="0.2">
<rect x="1002.5" y="692.5" width="98" height="98" rx="7.5" stroke="url(#paint127_linear_6804_149077)"/>
</g>
<g opacity="0.2">
<rect x="1101.5" y="692.5" width="97" height="98" rx="7.5" stroke="url(#paint128_linear_6804_149077)"/>
</g>
<g opacity="0.2">
<rect x="1199.5" y="692.5" width="98" height="98" rx="7.5" stroke="url(#paint129_linear_6804_149077)"/>
</g>
<g opacity="0.2">
<rect x="1298.5" y="692.5" width="97" height="98" rx="7.5" stroke="url(#paint130_linear_6804_149077)"/>
</g>
<g opacity="0.2">
<rect x="1396.5" y="692.5" width="98" height="98" rx="7.5" stroke="url(#paint131_linear_6804_149077)"/>
</g>
</g>
<defs>
<linearGradient id="paint0_linear_6804_149077" x1="18" y1="-1.13121e-05" x2="-59.4862" y2="-14.7811" gradientUnits="userSpaceOnUse">
<stop stop-color="#2B6CB0"/>
<stop offset="1" stop-color="#2B6CB0" stop-opacity="0"/>
</linearGradient>
<linearGradient id="paint1_linear_6804_149077" x1="116" y1="-1.13121e-05" x2="39.2423" y2="-14.4942" gradientUnits="userSpaceOnUse">
<stop stop-color="#2B6CB0"/>
<stop offset="1" stop-color="#2B6CB0" stop-opacity="0"/>
</linearGradient>
<linearGradient id="paint2_linear_6804_149077" x1="116" y1="-1.13121e-05" x2="39.2423" y2="-14.4942" gradientUnits="userSpaceOnUse">
<stop stop-color="#2B6CB0"/>
<stop offset="1" stop-color="#2B6CB0" stop-opacity="0"/>
</linearGradient>
<linearGradient id="paint3_linear_6804_149077" x1="214" y1="-1.13121e-05" x2="137.242" y2="-14.4942" gradientUnits="userSpaceOnUse">
<stop stop-color="#2B6CB0"/>
<stop offset="1" stop-color="#2B6CB0" stop-opacity="0"/>
</linearGradient>
<linearGradient id="paint4_linear_6804_149077" x1="313" y1="-1.13121e-05" x2="235.514" y2="-14.7811" gradientUnits="userSpaceOnUse">
<stop stop-color="#2B6CB0"/>
<stop offset="1" stop-color="#2B6CB0" stop-opacity="0"/>
</linearGradient>
<linearGradient id="paint5_linear_6804_149077" x1="411" y1="-1.13121e-05" x2="334.242" y2="-14.4942" gradientUnits="userSpaceOnUse">
<stop stop-color="#2B6CB0"/>
<stop offset="1" stop-color="#2B6CB0" stop-opacity="0"/>
</linearGradient>
<linearGradient id="paint6_linear_6804_149077" x1="510" y1="-1.13121e-05" x2="432.514" y2="-14.7811" gradientUnits="userSpaceOnUse">
<stop stop-color="#2B6CB0"/>
<stop offset="1" stop-color="#2B6CB0" stop-opacity="0"/>
</linearGradient>
<linearGradient id="paint7_linear_6804_149077" x1="608" y1="-1.13121e-05" x2="531.242" y2="-14.4942" gradientUnits="userSpaceOnUse">
<stop stop-color="#2B6CB0"/>
<stop offset="1" stop-color="#2B6CB0" stop-opacity="0"/>
</linearGradient>
<linearGradient id="paint8_linear_6804_149077" x1="707" y1="-1.13121e-05" x2="629.514" y2="-14.7811" gradientUnits="userSpaceOnUse">
<stop stop-color="#2B6CB0"/>
<stop offset="1" stop-color="#2B6CB0" stop-opacity="0"/>
</linearGradient>
<linearGradient id="paint9_linear_6804_149077" x1="805" y1="-1.13121e-05" x2="728.242" y2="-14.4942" gradientUnits="userSpaceOnUse">
<stop stop-color="#2B6CB0"/>
<stop offset="1" stop-color="#2B6CB0" stop-opacity="0"/>
</linearGradient>
<linearGradient id="paint10_linear_6804_149077" x1="904" y1="-1.13121e-05" x2="826.514" y2="-14.7811" gradientUnits="userSpaceOnUse">
<stop stop-color="#2B6CB0"/>
<stop offset="1" stop-color="#2B6CB0" stop-opacity="0"/>
</linearGradient>
<linearGradient id="paint11_linear_6804_149077" x1="1002" y1="-1.13121e-05" x2="925.242" y2="-14.4942" gradientUnits="userSpaceOnUse">
<stop stop-color="#2B6CB0"/>
<stop offset="1" stop-color="#2B6CB0" stop-opacity="0"/>
</linearGradient>
<linearGradient id="paint12_linear_6804_149077" x1="1101" y1="-1.13121e-05" x2="1023.51" y2="-14.7811" gradientUnits="userSpaceOnUse">
<stop stop-color="#2B6CB0"/>
<stop offset="1" stop-color="#2B6CB0" stop-opacity="0"/>
</linearGradient>
<linearGradient id="paint13_linear_6804_149077" x1="1199" y1="-1.13121e-05" x2="1122.24" y2="-14.4942" gradientUnits="userSpaceOnUse">
<stop stop-color="#2B6CB0"/>
<stop offset="1" stop-color="#2B6CB0" stop-opacity="0"/>
</linearGradient>
<linearGradient id="paint14_linear_6804_149077" x1="1298" y1="-1.13121e-05" x2="1220.51" y2="-14.7811" gradientUnits="userSpaceOnUse">
<stop stop-color="#2B6CB0"/>
<stop offset="1" stop-color="#2B6CB0" stop-opacity="0"/>
</linearGradient>
<linearGradient id="paint15_linear_6804_149077" x1="1298" y1="-1.13121e-05" x2="1220.51" y2="-14.7811" gradientUnits="userSpaceOnUse">
<stop stop-color="#2B6CB0"/>
<stop offset="1" stop-color="#2B6CB0" stop-opacity="0"/>
</linearGradient>
<linearGradient id="paint16_linear_6804_149077" x1="1396" y1="-1.13121e-05" x2="1319.24" y2="-14.4942" gradientUnits="userSpaceOnUse">
<stop stop-color="#2B6CB0"/>
<stop offset="1" stop-color="#2B6CB0" stop-opacity="0"/>
</linearGradient>
<linearGradient id="paint17_linear_6804_149077" x1="1495" y1="-1.13121e-05" x2="1417.51" y2="-14.7811" gradientUnits="userSpaceOnUse">
<stop stop-color="#2B6CB0"/>
<stop offset="1" stop-color="#2B6CB0" stop-opacity="0"/>
</linearGradient>
<linearGradient id="paint18_linear_6804_149077" x1="18" y1="98" x2="-59.5409" y2="83.3579" gradientUnits="userSpaceOnUse">
<stop stop-color="#2B6CB0"/>
<stop offset="1" stop-color="#2B6CB0" stop-opacity="0"/>
</linearGradient>
<linearGradient id="paint19_linear_6804_149077" x1="116" y1="98" x2="39.1892" y2="83.6423" gradientUnits="userSpaceOnUse">
<stop stop-color="#2B6CB0"/>
<stop offset="1" stop-color="#2B6CB0" stop-opacity="0"/>
</linearGradient>
<linearGradient id="paint20_linear_6804_149077" x1="214" y1="98" x2="137.189" y2="83.6423" gradientUnits="userSpaceOnUse">
<stop stop-color="#2B6CB0"/>
<stop offset="1" stop-color="#2B6CB0" stop-opacity="0"/>
</linearGradient>
<linearGradient id="paint21_linear_6804_149077" x1="313" y1="98" x2="235.459" y2="83.3579" gradientUnits="userSpaceOnUse">
<stop stop-color="#2B6CB0"/>
<stop offset="1" stop-color="#2B6CB0" stop-opacity="0"/>
</linearGradient>
<linearGradient id="paint22_linear_6804_149077" x1="411" y1="98" x2="334.189" y2="83.6423" gradientUnits="userSpaceOnUse">
<stop stop-color="#2B6CB0"/>
<stop offset="1" stop-color="#2B6CB0" stop-opacity="0"/>
</linearGradient>
<linearGradient id="paint23_linear_6804_149077" x1="411" y1="98" x2="334.189" y2="83.6423" gradientUnits="userSpaceOnUse">
<stop stop-color="#2B6CB0"/>
<stop offset="1" stop-color="#2B6CB0" stop-opacity="0"/>
</linearGradient>
<linearGradient id="paint24_linear_6804_149077" x1="510" y1="98" x2="432.459" y2="83.3579" gradientUnits="userSpaceOnUse">
<stop stop-color="#2B6CB0"/>
<stop offset="1" stop-color="#2B6CB0" stop-opacity="0"/>
</linearGradient>
<linearGradient id="paint25_linear_6804_149077" x1="608" y1="98" x2="531.189" y2="83.6423" gradientUnits="userSpaceOnUse">
<stop stop-color="#2B6CB0"/>
<stop offset="1" stop-color="#2B6CB0" stop-opacity="0"/>
</linearGradient>
<linearGradient id="paint26_linear_6804_149077" x1="707" y1="98" x2="629.459" y2="83.3579" gradientUnits="userSpaceOnUse">
<stop stop-color="#2B6CB0"/>
<stop offset="1" stop-color="#2B6CB0" stop-opacity="0"/>
</linearGradient>
<linearGradient id="paint27_linear_6804_149077" x1="805" y1="98" x2="728.189" y2="83.6423" gradientUnits="userSpaceOnUse">
<stop stop-color="#2B6CB0"/>
<stop offset="1" stop-color="#2B6CB0" stop-opacity="0"/>
</linearGradient>
<linearGradient id="paint28_linear_6804_149077" x1="904" y1="98" x2="826.459" y2="83.3579" gradientUnits="userSpaceOnUse">
<stop stop-color="#2B6CB0"/>
<stop offset="1" stop-color="#2B6CB0" stop-opacity="0"/>
</linearGradient>
<linearGradient id="paint29_linear_6804_149077" x1="1002" y1="98" x2="925.189" y2="83.6423" gradientUnits="userSpaceOnUse">
<stop stop-color="#2B6CB0"/>
<stop offset="1" stop-color="#2B6CB0" stop-opacity="0"/>
</linearGradient>
<linearGradient id="paint30_linear_6804_149077" x1="1101" y1="98" x2="1023.46" y2="83.3579" gradientUnits="userSpaceOnUse">
<stop stop-color="#2B6CB0"/>
<stop offset="1" stop-color="#2B6CB0" stop-opacity="0"/>
</linearGradient>
<linearGradient id="paint31_linear_6804_149077" x1="1199" y1="98" x2="1122.19" y2="83.6423" gradientUnits="userSpaceOnUse">
<stop stop-color="#2B6CB0"/>
<stop offset="1" stop-color="#2B6CB0" stop-opacity="0"/>
</linearGradient>
<linearGradient id="paint32_linear_6804_149077" x1="1298" y1="98" x2="1220.46" y2="83.3579" gradientUnits="userSpaceOnUse">
<stop stop-color="#2B6CB0"/>
<stop offset="1" stop-color="#2B6CB0" stop-opacity="0"/>
</linearGradient>
<linearGradient id="paint33_linear_6804_149077" x1="1396" y1="98" x2="1319.19" y2="83.6423" gradientUnits="userSpaceOnUse">
<stop stop-color="#2B6CB0"/>
<stop offset="1" stop-color="#2B6CB0" stop-opacity="0"/>
</linearGradient>
<linearGradient id="paint34_linear_6804_149077" x1="1495" y1="98" x2="1417.46" y2="83.3579" gradientUnits="userSpaceOnUse">
<stop stop-color="#2B6CB0"/>
<stop offset="1" stop-color="#2B6CB0" stop-opacity="0"/>
</linearGradient>
<linearGradient id="paint35_linear_6804_149077" x1="18" y1="197" x2="-59.5409" y2="182.358" gradientUnits="userSpaceOnUse">
<stop stop-color="#2B6CB0"/>
<stop offset="1" stop-color="#2B6CB0" stop-opacity="0"/>
</linearGradient>
<linearGradient id="paint36_linear_6804_149077" x1="116" y1="197" x2="39.1892" y2="182.642" gradientUnits="userSpaceOnUse">
<stop stop-color="#2B6CB0"/>
<stop offset="1" stop-color="#2B6CB0" stop-opacity="0"/>
</linearGradient>
<linearGradient id="paint37_linear_6804_149077" x1="214" y1="197" x2="137.189" y2="182.642" gradientUnits="userSpaceOnUse">
<stop stop-color="#2B6CB0"/>
<stop offset="1" stop-color="#2B6CB0" stop-opacity="0"/>
</linearGradient>
<linearGradient id="paint38_linear_6804_149077" x1="313" y1="197" x2="235.459" y2="182.358" gradientUnits="userSpaceOnUse">
<stop stop-color="#2B6CB0"/>
<stop offset="1" stop-color="#2B6CB0" stop-opacity="0"/>
</linearGradient>
<linearGradient id="paint39_linear_6804_149077" x1="411" y1="197" x2="334.189" y2="182.642" gradientUnits="userSpaceOnUse">
<stop stop-color="#2B6CB0"/>
<stop offset="1" stop-color="#2B6CB0" stop-opacity="0"/>
</linearGradient>
<linearGradient id="paint40_linear_6804_149077" x1="510" y1="197" x2="432.459" y2="182.358" gradientUnits="userSpaceOnUse">
<stop stop-color="#2B6CB0"/>
<stop offset="1" stop-color="#2B6CB0" stop-opacity="0"/>
</linearGradient>
<linearGradient id="paint41_linear_6804_149077" x1="608" y1="197" x2="531.189" y2="182.642" gradientUnits="userSpaceOnUse">
<stop stop-color="#2B6CB0"/>
<stop offset="1" stop-color="#2B6CB0" stop-opacity="0"/>
</linearGradient>
<linearGradient id="paint42_linear_6804_149077" x1="707" y1="197" x2="629.459" y2="182.358" gradientUnits="userSpaceOnUse">
<stop stop-color="#2B6CB0"/>
<stop offset="1" stop-color="#2B6CB0" stop-opacity="0"/>
</linearGradient>
<linearGradient id="paint43_linear_6804_149077" x1="805" y1="197" x2="728.189" y2="182.642" gradientUnits="userSpaceOnUse">
<stop stop-color="#2B6CB0"/>
<stop offset="1" stop-color="#2B6CB0" stop-opacity="0"/>
</linearGradient>
<linearGradient id="paint44_linear_6804_149077" x1="904" y1="197" x2="826.459" y2="182.358" gradientUnits="userSpaceOnUse">
<stop stop-color="#2B6CB0"/>
<stop offset="1" stop-color="#2B6CB0" stop-opacity="0"/>
</linearGradient>
<linearGradient id="paint45_linear_6804_149077" x1="1002" y1="197" x2="925.189" y2="182.642" gradientUnits="userSpaceOnUse">
<stop stop-color="#2B6CB0"/>
<stop offset="1" stop-color="#2B6CB0" stop-opacity="0"/>
</linearGradient>
<linearGradient id="paint46_linear_6804_149077" x1="1101" y1="197" x2="1023.46" y2="182.358" gradientUnits="userSpaceOnUse">
<stop stop-color="#2B6CB0"/>
<stop offset="1" stop-color="#2B6CB0" stop-opacity="0"/>
</linearGradient>
<linearGradient id="paint47_linear_6804_149077" x1="1199" y1="197" x2="1122.19" y2="182.642" gradientUnits="userSpaceOnUse">
<stop stop-color="#2B6CB0"/>
<stop offset="1" stop-color="#2B6CB0" stop-opacity="0"/>
</linearGradient>
<linearGradient id="paint48_linear_6804_149077" x1="1298" y1="197" x2="1220.46" y2="182.358" gradientUnits="userSpaceOnUse">
<stop stop-color="#2B6CB0"/>
<stop offset="1" stop-color="#2B6CB0" stop-opacity="0"/>
</linearGradient>
<linearGradient id="paint49_linear_6804_149077" x1="1396" y1="197" x2="1319.19" y2="182.642" gradientUnits="userSpaceOnUse">
<stop stop-color="#2B6CB0"/>
<stop offset="1" stop-color="#2B6CB0" stop-opacity="0"/>
</linearGradient>
<linearGradient id="paint50_linear_6804_149077" x1="1495" y1="197" x2="1417.46" y2="182.358" gradientUnits="userSpaceOnUse">
<stop stop-color="#2B6CB0"/>
<stop offset="1" stop-color="#2B6CB0" stop-opacity="0"/>
</linearGradient>
<linearGradient id="paint51_linear_6804_149077" x1="1495" y1="197" x2="1417.46" y2="182.358" gradientUnits="userSpaceOnUse">
<stop stop-color="#2B6CB0"/>
<stop offset="1" stop-color="#2B6CB0" stop-opacity="0"/>
</linearGradient>
<linearGradient id="paint52_linear_6804_149077" x1="18" y1="296" x2="-59.5409" y2="281.358" gradientUnits="userSpaceOnUse">
<stop stop-color="#2B6CB0"/>
<stop offset="1" stop-color="#2B6CB0" stop-opacity="0"/>
</linearGradient>
<linearGradient id="paint53_linear_6804_149077" x1="116" y1="296" x2="39.1892" y2="281.642" gradientUnits="userSpaceOnUse">
<stop stop-color="#2B6CB0"/>
<stop offset="1" stop-color="#2B6CB0" stop-opacity="0"/>
</linearGradient>
<linearGradient id="paint54_linear_6804_149077" x1="214" y1="296" x2="137.189" y2="281.642" gradientUnits="userSpaceOnUse">
<stop stop-color="#2B6CB0"/>
<stop offset="1" stop-color="#2B6CB0" stop-opacity="0"/>
</linearGradient>
<linearGradient id="paint55_linear_6804_149077" x1="313" y1="296" x2="235.459" y2="281.358" gradientUnits="userSpaceOnUse">
<stop stop-color="#2B6CB0"/>
<stop offset="1" stop-color="#2B6CB0" stop-opacity="0"/>
</linearGradient>
<linearGradient id="paint56_linear_6804_149077" x1="411" y1="296" x2="334.189" y2="281.642" gradientUnits="userSpaceOnUse">
<stop stop-color="#2B6CB0"/>
<stop offset="1" stop-color="#2B6CB0" stop-opacity="0"/>
</linearGradient>
<linearGradient id="paint57_linear_6804_149077" x1="510" y1="296" x2="432.459" y2="281.358" gradientUnits="userSpaceOnUse">
<stop stop-color="#2B6CB0"/>
<stop offset="1" stop-color="#2B6CB0" stop-opacity="0"/>
</linearGradient>
<linearGradient id="paint58_linear_6804_149077" x1="608" y1="296" x2="531.189" y2="281.642" gradientUnits="userSpaceOnUse">
<stop stop-color="#2B6CB0"/>
<stop offset="1" stop-color="#2B6CB0" stop-opacity="0"/>
</linearGradient>
<linearGradient id="paint59_linear_6804_149077" x1="707" y1="296" x2="629.459" y2="281.358" gradientUnits="userSpaceOnUse">
<stop stop-color="#2B6CB0"/>
<stop offset="1" stop-color="#2B6CB0" stop-opacity="0"/>
</linearGradient>
<linearGradient id="paint60_linear_6804_149077" x1="805" y1="296" x2="728.189" y2="281.642" gradientUnits="userSpaceOnUse">
<stop stop-color="#2B6CB0"/>
<stop offset="1" stop-color="#2B6CB0" stop-opacity="0"/>
</linearGradient>
<linearGradient id="paint61_linear_6804_149077" x1="904" y1="296" x2="826.459" y2="281.358" gradientUnits="userSpaceOnUse">
<stop stop-color="#2B6CB0"/>
<stop offset="1" stop-color="#2B6CB0" stop-opacity="0"/>
</linearGradient>
<linearGradient id="paint62_linear_6804_149077" x1="1002" y1="296" x2="925.189" y2="281.642" gradientUnits="userSpaceOnUse">
<stop stop-color="#2B6CB0"/>
<stop offset="1" stop-color="#2B6CB0" stop-opacity="0"/>
</linearGradient>
<linearGradient id="paint63_linear_6804_149077" x1="1101" y1="296" x2="1023.46" y2="281.358" gradientUnits="userSpaceOnUse">
<stop stop-color="#2B6CB0"/>
<stop offset="1" stop-color="#2B6CB0" stop-opacity="0"/>
</linearGradient>
<linearGradient id="paint64_linear_6804_149077" x1="1199" y1="296" x2="1122.19" y2="281.642" gradientUnits="userSpaceOnUse">
<stop stop-color="#2B6CB0"/>
<stop offset="1" stop-color="#2B6CB0" stop-opacity="0"/>
</linearGradient>
<linearGradient id="paint65_linear_6804_149077" x1="1298" y1="296" x2="1220.46" y2="281.358" gradientUnits="userSpaceOnUse">
<stop stop-color="#2B6CB0"/>
<stop offset="1" stop-color="#2B6CB0" stop-opacity="0"/>
</linearGradient>
<linearGradient id="paint66_linear_6804_149077" x1="1396" y1="296" x2="1319.19" y2="281.642" gradientUnits="userSpaceOnUse">
<stop stop-color="#2B6CB0"/>
<stop offset="1" stop-color="#2B6CB0" stop-opacity="0"/>
</linearGradient>
<linearGradient id="paint67_linear_6804_149077" x1="1495" y1="296" x2="1417.46" y2="281.358" gradientUnits="userSpaceOnUse">
<stop stop-color="#2B6CB0"/>
<stop offset="1" stop-color="#2B6CB0" stop-opacity="0"/>
</linearGradient>
<linearGradient id="paint68_linear_6804_149077" x1="18" y1="395" x2="-59.5409" y2="380.358" gradientUnits="userSpaceOnUse">
<stop stop-color="#2B6CB0"/>
<stop offset="1" stop-color="#2B6CB0" stop-opacity="0"/>
</linearGradient>
<linearGradient id="paint69_linear_6804_149077" x1="116" y1="395" x2="39.1892" y2="380.642" gradientUnits="userSpaceOnUse">
<stop stop-color="#2B6CB0"/>
<stop offset="1" stop-color="#2B6CB0" stop-opacity="0"/>
</linearGradient>
<linearGradient id="paint70_linear_6804_149077" x1="214" y1="395" x2="137.189" y2="380.642" gradientUnits="userSpaceOnUse">
<stop stop-color="#2B6CB0"/>
<stop offset="1" stop-color="#2B6CB0" stop-opacity="0"/>
</linearGradient>
<linearGradient id="paint71_linear_6804_149077" x1="313" y1="395" x2="235.459" y2="380.358" gradientUnits="userSpaceOnUse">
<stop stop-color="#2B6CB0"/>
<stop offset="1" stop-color="#2B6CB0" stop-opacity="0"/>
</linearGradient>
<linearGradient id="paint72_linear_6804_149077" x1="411" y1="395" x2="334.189" y2="380.642" gradientUnits="userSpaceOnUse">
<stop stop-color="#2B6CB0"/>
<stop offset="1" stop-color="#2B6CB0" stop-opacity="0"/>
</linearGradient>
<linearGradient id="paint73_linear_6804_149077" x1="510" y1="395" x2="432.459" y2="380.358" gradientUnits="userSpaceOnUse">
<stop stop-color="#2B6CB0"/>
<stop offset="1" stop-color="#2B6CB0" stop-opacity="0"/>
</linearGradient>
<linearGradient id="paint74_linear_6804_149077" x1="608" y1="395" x2="531.189" y2="380.642" gradientUnits="userSpaceOnUse">
<stop stop-color="#2B6CB0"/>
<stop offset="1" stop-color="#2B6CB0" stop-opacity="0"/>
</linearGradient>
<linearGradient id="paint75_linear_6804_149077" x1="707" y1="395" x2="629.459" y2="380.358" gradientUnits="userSpaceOnUse">
<stop stop-color="#2B6CB0"/>
<stop offset="1" stop-color="#2B6CB0" stop-opacity="0"/>
</linearGradient>
<linearGradient id="paint76_linear_6804_149077" x1="805" y1="395" x2="728.189" y2="380.642" gradientUnits="userSpaceOnUse">
<stop stop-color="#2B6CB0"/>
<stop offset="1" stop-color="#2B6CB0" stop-opacity="0"/>
</linearGradient>
<linearGradient id="paint77_linear_6804_149077" x1="904" y1="395" x2="826.459" y2="380.358" gradientUnits="userSpaceOnUse">
<stop stop-color="#2B6CB0"/>
<stop offset="1" stop-color="#2B6CB0" stop-opacity="0"/>
</linearGradient>
<linearGradient id="paint78_linear_6804_149077" x1="1002" y1="395" x2="925.189" y2="380.642" gradientUnits="userSpaceOnUse">
<stop stop-color="#2B6CB0"/>
<stop offset="1" stop-color="#2B6CB0" stop-opacity="0"/>
</linearGradient>
<linearGradient id="paint79_linear_6804_149077" x1="1101" y1="395" x2="1023.46" y2="380.358" gradientUnits="userSpaceOnUse">
<stop stop-color="#2B6CB0"/>
<stop offset="1" stop-color="#2B6CB0" stop-opacity="0"/>
</linearGradient>
<linearGradient id="paint80_linear_6804_149077" x1="1199" y1="395" x2="1122.19" y2="380.642" gradientUnits="userSpaceOnUse">
<stop stop-color="#2B6CB0"/>
<stop offset="1" stop-color="#2B6CB0" stop-opacity="0"/>
</linearGradient>
<linearGradient id="paint81_linear_6804_149077" x1="1298" y1="395" x2="1220.46" y2="380.358" gradientUnits="userSpaceOnUse">
<stop stop-color="#2B6CB0"/>
<stop offset="1" stop-color="#2B6CB0" stop-opacity="0"/>
</linearGradient>
<linearGradient id="paint82_linear_6804_149077" x1="1396" y1="395" x2="1319.19" y2="380.642" gradientUnits="userSpaceOnUse">
<stop stop-color="#2B6CB0"/>
<stop offset="1" stop-color="#2B6CB0" stop-opacity="0"/>
</linearGradient>
<linearGradient id="paint83_linear_6804_149077" x1="1495" y1="395" x2="1417.46" y2="380.358" gradientUnits="userSpaceOnUse">
<stop stop-color="#2B6CB0"/>
<stop offset="1" stop-color="#2B6CB0" stop-opacity="0"/>
</linearGradient>
<linearGradient id="paint84_linear_6804_149077" x1="18" y1="494" x2="-59.5409" y2="479.358" gradientUnits="userSpaceOnUse">
<stop stop-color="#2B6CB0"/>
<stop offset="1" stop-color="#2B6CB0" stop-opacity="0"/>
</linearGradient>
<linearGradient id="paint85_linear_6804_149077" x1="116" y1="494" x2="39.1892" y2="479.642" gradientUnits="userSpaceOnUse">
<stop stop-color="#2B6CB0"/>
<stop offset="1" stop-color="#2B6CB0" stop-opacity="0"/>
</linearGradient>
<linearGradient id="paint86_linear_6804_149077" x1="214" y1="494" x2="137.189" y2="479.642" gradientUnits="userSpaceOnUse">
<stop stop-color="#2B6CB0"/>
<stop offset="1" stop-color="#2B6CB0" stop-opacity="0"/>
</linearGradient>
<linearGradient id="paint87_linear_6804_149077" x1="313" y1="494" x2="235.459" y2="479.358" gradientUnits="userSpaceOnUse">
<stop stop-color="#2B6CB0"/>
<stop offset="1" stop-color="#2B6CB0" stop-opacity="0"/>
</linearGradient>
<linearGradient id="paint88_linear_6804_149077" x1="411" y1="494" x2="334.189" y2="479.642" gradientUnits="userSpaceOnUse">
<stop stop-color="#2B6CB0"/>
<stop offset="1" stop-color="#2B6CB0" stop-opacity="0"/>
</linearGradient>
<linearGradient id="paint89_linear_6804_149077" x1="510" y1="494" x2="432.459" y2="479.358" gradientUnits="userSpaceOnUse">
<stop stop-color="#2B6CB0"/>
<stop offset="1" stop-color="#2B6CB0" stop-opacity="0"/>
</linearGradient>
<linearGradient id="paint90_linear_6804_149077" x1="608" y1="494" x2="531.189" y2="479.642" gradientUnits="userSpaceOnUse">
<stop stop-color="#2B6CB0"/>
<stop offset="1" stop-color="#2B6CB0" stop-opacity="0"/>
</linearGradient>
<linearGradient id="paint91_linear_6804_149077" x1="707" y1="494" x2="629.459" y2="479.358" gradientUnits="userSpaceOnUse">
<stop stop-color="#2B6CB0"/>
<stop offset="1" stop-color="#2B6CB0" stop-opacity="0"/>
</linearGradient>
<linearGradient id="paint92_linear_6804_149077" x1="805" y1="494" x2="728.189" y2="479.642" gradientUnits="userSpaceOnUse">
<stop stop-color="#2B6CB0"/>
<stop offset="1" stop-color="#2B6CB0" stop-opacity="0"/>
</linearGradient>
<linearGradient id="paint93_linear_6804_149077" x1="904" y1="494" x2="826.459" y2="479.358" gradientUnits="userSpaceOnUse">
<stop stop-color="#2B6CB0"/>
<stop offset="1" stop-color="#2B6CB0" stop-opacity="0"/>
</linearGradient>
<linearGradient id="paint94_linear_6804_149077" x1="1002" y1="494" x2="925.189" y2="479.642" gradientUnits="userSpaceOnUse">
<stop stop-color="#2B6CB0"/>
<stop offset="1" stop-color="#2B6CB0" stop-opacity="0"/>
</linearGradient>
<linearGradient id="paint95_linear_6804_149077" x1="1101" y1="494" x2="1023.46" y2="479.358" gradientUnits="userSpaceOnUse">
<stop stop-color="#2B6CB0"/>
<stop offset="1" stop-color="#2B6CB0" stop-opacity="0"/>
</linearGradient>
<linearGradient id="paint96_linear_6804_149077" x1="1199" y1="494" x2="1122.19" y2="479.642" gradientUnits="userSpaceOnUse">
<stop stop-color="#2B6CB0"/>
<stop offset="1" stop-color="#2B6CB0" stop-opacity="0"/>
</linearGradient>
<linearGradient id="paint97_linear_6804_149077" x1="1298" y1="494" x2="1220.46" y2="479.358" gradientUnits="userSpaceOnUse">
<stop stop-color="#2B6CB0"/>
<stop offset="1" stop-color="#2B6CB0" stop-opacity="0"/>
</linearGradient>
<linearGradient id="paint98_linear_6804_149077" x1="1396" y1="494" x2="1319.19" y2="479.642" gradientUnits="userSpaceOnUse">
<stop stop-color="#2B6CB0"/>
<stop offset="1" stop-color="#2B6CB0" stop-opacity="0"/>
</linearGradient>
<linearGradient id="paint99_linear_6804_149077" x1="1495" y1="494" x2="1417.46" y2="479.358" gradientUnits="userSpaceOnUse">
<stop stop-color="#2B6CB0"/>
<stop offset="1" stop-color="#2B6CB0" stop-opacity="0"/>
</linearGradient>
<linearGradient id="paint100_linear_6804_149077" x1="18" y1="593" x2="-59.5409" y2="578.358" gradientUnits="userSpaceOnUse">
<stop stop-color="#2B6CB0"/>
<stop offset="1" stop-color="#2B6CB0" stop-opacity="0"/>
</linearGradient>
<linearGradient id="paint101_linear_6804_149077" x1="116" y1="593" x2="39.1892" y2="578.642" gradientUnits="userSpaceOnUse">
<stop stop-color="#2B6CB0"/>
<stop offset="1" stop-color="#2B6CB0" stop-opacity="0"/>
</linearGradient>
<linearGradient id="paint102_linear_6804_149077" x1="214" y1="593" x2="137.189" y2="578.642" gradientUnits="userSpaceOnUse">
<stop stop-color="#2B6CB0"/>
<stop offset="1" stop-color="#2B6CB0" stop-opacity="0"/>
</linearGradient>
<linearGradient id="paint103_linear_6804_149077" x1="313" y1="593" x2="235.459" y2="578.358" gradientUnits="userSpaceOnUse">
<stop stop-color="#2B6CB0"/>
<stop offset="1" stop-color="#2B6CB0" stop-opacity="0"/>
</linearGradient>
<linearGradient id="paint104_linear_6804_149077" x1="411" y1="593" x2="334.189" y2="578.642" gradientUnits="userSpaceOnUse">
<stop stop-color="#2B6CB0"/>
<stop offset="1" stop-color="#2B6CB0" stop-opacity="0"/>
</linearGradient>
<linearGradient id="paint105_linear_6804_149077" x1="510" y1="593" x2="432.459" y2="578.358" gradientUnits="userSpaceOnUse">
<stop stop-color="#2B6CB0"/>
<stop offset="1" stop-color="#2B6CB0" stop-opacity="0"/>
</linearGradient>
<linearGradient id="paint106_linear_6804_149077" x1="608" y1="593" x2="531.189" y2="578.642" gradientUnits="userSpaceOnUse">
<stop stop-color="#2B6CB0"/>
<stop offset="1" stop-color="#2B6CB0" stop-opacity="0"/>
</linearGradient>
<linearGradient id="paint107_linear_6804_149077" x1="707" y1="593" x2="629.459" y2="578.358" gradientUnits="userSpaceOnUse">
<stop stop-color="#2B6CB0"/>
<stop offset="1" stop-color="#2B6CB0" stop-opacity="0"/>
</linearGradient>
<linearGradient id="paint108_linear_6804_149077" x1="805" y1="593" x2="728.189" y2="578.642" gradientUnits="userSpaceOnUse">
<stop stop-color="#2B6CB0"/>
<stop offset="1" stop-color="#2B6CB0" stop-opacity="0"/>
</linearGradient>
<linearGradient id="paint109_linear_6804_149077" x1="904" y1="593" x2="826.459" y2="578.358" gradientUnits="userSpaceOnUse">
<stop stop-color="#2B6CB0"/>
<stop offset="1" stop-color="#2B6CB0" stop-opacity="0"/>
</linearGradient>
<linearGradient id="paint110_linear_6804_149077" x1="1002" y1="593" x2="925.189" y2="578.642" gradientUnits="userSpaceOnUse">
<stop stop-color="#2B6CB0"/>
<stop offset="1" stop-color="#2B6CB0" stop-opacity="0"/>
</linearGradient>
<linearGradient id="paint111_linear_6804_149077" x1="1101" y1="593" x2="1023.46" y2="578.358" gradientUnits="userSpaceOnUse">
<stop stop-color="#2B6CB0"/>
<stop offset="1" stop-color="#2B6CB0" stop-opacity="0"/>
</linearGradient>
<linearGradient id="paint112_linear_6804_149077" x1="1199" y1="593" x2="1122.19" y2="578.642" gradientUnits="userSpaceOnUse">
<stop stop-color="#2B6CB0"/>
<stop offset="1" stop-color="#2B6CB0" stop-opacity="0"/>
</linearGradient>
<linearGradient id="paint113_linear_6804_149077" x1="1298" y1="593" x2="1220.46" y2="578.358" gradientUnits="userSpaceOnUse">
<stop stop-color="#2B6CB0"/>
<stop offset="1" stop-color="#2B6CB0" stop-opacity="0"/>
</linearGradient>
<linearGradient id="paint114_linear_6804_149077" x1="1396" y1="593" x2="1319.19" y2="578.642" gradientUnits="userSpaceOnUse">
<stop stop-color="#2B6CB0"/>
<stop offset="1" stop-color="#2B6CB0" stop-opacity="0"/>
</linearGradient>
<linearGradient id="paint115_linear_6804_149077" x1="1495" y1="593" x2="1417.46" y2="578.358" gradientUnits="userSpaceOnUse">
<stop stop-color="#2B6CB0"/>
<stop offset="1" stop-color="#2B6CB0" stop-opacity="0"/>
</linearGradient>
<linearGradient id="paint116_linear_6804_149077" x1="18" y1="692" x2="-59.5409" y2="677.358" gradientUnits="userSpaceOnUse">
<stop stop-color="#2B6CB0"/>
<stop offset="1" stop-color="#2B6CB0" stop-opacity="0"/>
</linearGradient>
<linearGradient id="paint117_linear_6804_149077" x1="116" y1="692" x2="39.1892" y2="677.642" gradientUnits="userSpaceOnUse">
<stop stop-color="#2B6CB0"/>
<stop offset="1" stop-color="#2B6CB0" stop-opacity="0"/>
</linearGradient>
<linearGradient id="paint118_linear_6804_149077" x1="214" y1="692" x2="137.189" y2="677.642" gradientUnits="userSpaceOnUse">
<stop stop-color="#2B6CB0"/>
<stop offset="1" stop-color="#2B6CB0" stop-opacity="0"/>
</linearGradient>
<linearGradient id="paint119_linear_6804_149077" x1="313" y1="692" x2="235.459" y2="677.358" gradientUnits="userSpaceOnUse">
<stop stop-color="#2B6CB0"/>
<stop offset="1" stop-color="#2B6CB0" stop-opacity="0"/>
</linearGradient>
<linearGradient id="paint120_linear_6804_149077" x1="411" y1="692" x2="334.189" y2="677.642" gradientUnits="userSpaceOnUse">
<stop stop-color="#2B6CB0"/>
<stop offset="1" stop-color="#2B6CB0" stop-opacity="0"/>
</linearGradient>
<linearGradient id="paint121_linear_6804_149077" x1="510" y1="692" x2="432.459" y2="677.358" gradientUnits="userSpaceOnUse">
<stop stop-color="#2B6CB0"/>
<stop offset="1" stop-color="#2B6CB0" stop-opacity="0"/>
</linearGradient>
<linearGradient id="paint122_linear_6804_149077" x1="608" y1="692" x2="531.189" y2="677.642" gradientUnits="userSpaceOnUse">
<stop stop-color="#2B6CB0"/>
<stop offset="1" stop-color="#2B6CB0" stop-opacity="0"/>
</linearGradient>
<linearGradient id="paint123_linear_6804_149077" x1="707" y1="692" x2="629.459" y2="677.358" gradientUnits="userSpaceOnUse">
<stop stop-color="#2B6CB0"/>
<stop offset="1" stop-color="#2B6CB0" stop-opacity="0"/>
</linearGradient>
<linearGradient id="paint124_linear_6804_149077" x1="805" y1="692" x2="728.189" y2="677.642" gradientUnits="userSpaceOnUse">
<stop stop-color="#2B6CB0"/>
<stop offset="1" stop-color="#2B6CB0" stop-opacity="0"/>
</linearGradient>
<linearGradient id="paint125_linear_6804_149077" x1="904" y1="692" x2="826.459" y2="677.358" gradientUnits="userSpaceOnUse">
<stop stop-color="#2B6CB0"/>
<stop offset="1" stop-color="#2B6CB0" stop-opacity="0"/>
</linearGradient>
<linearGradient id="paint126_linear_6804_149077" x1="1002" y1="692" x2="925.189" y2="677.642" gradientUnits="userSpaceOnUse">
<stop stop-color="#2B6CB0"/>
<stop offset="1" stop-color="#2B6CB0" stop-opacity="0"/>
</linearGradient>
<linearGradient id="paint127_linear_6804_149077" x1="1101" y1="692" x2="1023.46" y2="677.358" gradientUnits="userSpaceOnUse">
<stop stop-color="#2B6CB0"/>
<stop offset="1" stop-color="#2B6CB0" stop-opacity="0"/>
</linearGradient>
<linearGradient id="paint128_linear_6804_149077" x1="1199" y1="692" x2="1122.19" y2="677.642" gradientUnits="userSpaceOnUse">
<stop stop-color="#2B6CB0"/>
<stop offset="1" stop-color="#2B6CB0" stop-opacity="0"/>
</linearGradient>
<linearGradient id="paint129_linear_6804_149077" x1="1298" y1="692" x2="1220.46" y2="677.358" gradientUnits="userSpaceOnUse">
<stop stop-color="#2B6CB0"/>
<stop offset="1" stop-color="#2B6CB0" stop-opacity="0"/>
</linearGradient>
<linearGradient id="paint130_linear_6804_149077" x1="1396" y1="692" x2="1319.19" y2="677.642" gradientUnits="userSpaceOnUse">
<stop stop-color="#2B6CB0"/>
<stop offset="1" stop-color="#2B6CB0" stop-opacity="0"/>
</linearGradient>
<linearGradient id="paint131_linear_6804_149077" x1="1495" y1="692" x2="1417.46" y2="677.358" gradientUnits="userSpaceOnUse">
<stop stop-color="#2B6CB0"/>
<stop offset="1" stop-color="#2B6CB0" stop-opacity="0"/>
</linearGradient>
</defs>
</svg>
