<svg width="40" height="40" viewBox="0 0 40 40" fill="none" xmlns="http://www.w3.org/2000/svg">
<rect width="40" height="40" rx="20" fill="#272B35"/>
<path d="M16.34 30.55C25.21 30.55 30.06 23.2 30.06 16.83C30.06 16.62 30.06 16.41 30.05 16.21C30.99 15.53 31.81 14.68 32.46 13.71C31.6 14.09 30.67 14.35 29.69 14.47C30.69 13.87 31.45 12.93 31.81 11.8C30.88 12.35 29.85 12.75 28.75 12.97C27.87 12.03 26.62 11.45 25.23 11.45C22.57 11.45 20.41 13.61 20.41 16.27C20.41 16.65 20.45 17.02 20.54 17.37C16.53 17.17 12.98 15.25 10.6 12.33C10.19 13.04 9.94997 13.87 9.94997 14.75C9.94997 16.42 10.8 17.9 12.1 18.76C11.31 18.74 10.57 18.52 9.91997 18.16C9.91997 18.18 9.91997 18.2 9.91997 18.22C9.91997 20.56 11.58 22.5 13.79 22.95C13.39 23.06 12.96 23.12 12.52 23.12C12.21 23.12 11.91 23.09 11.61 23.03C12.22 24.95 14 26.34 16.11 26.38C14.46 27.67 12.38 28.44 10.12 28.44C9.72997 28.44 9.34997 28.42 8.96997 28.37C11.08 29.75 13.62 30.55 16.34 30.55Z" fill="white"/>
</svg>
