<svg width="170" height="20" viewBox="0 0 170 20" fill="none" xmlns="http://www.w3.org/2000/svg">
<path d="M10.9251 19.9864C15.7175 19.9864 20.7722 16.7984 20.7722 10.436C20.7722 9.89101 20.7431 9.3188 20.6557 8.71935H10.5172V12.5068H15.2951C14.7124 14.3733 13.2412 15.3134 10.6774 15.3134C8.06999 15.3134 5.66647 13.5831 5.66647 10.109C5.66647 7.12534 7.70582 5.0545 10.59 5.0545C12.3235 5.0545 13.5617 5.61308 14.4794 6.45777L18.3832 2.86103C16.6498 1.21253 14.1589 0.217984 10.9251 0.217984C4.5157 0.217984 0 4.30518 0 10.109C0 15.8992 4.5157 19.9864 10.9251 19.9864Z" fill="#2B6CB0"/>
<path d="M31.9506 19.6458C38.3308 19.6458 42.5261 15.8583 42.5261 10.109C42.5261 4.35967 38.3308 0.572209 31.9506 0.572209H22.9483V19.6458H31.9506ZM28.4837 5.32698H31.8049C35.1553 5.32698 36.7722 7.31608 36.7722 10.109C36.7722 12.861 35.1553 14.891 31.8049 14.891H28.4837V5.32698Z" fill="#2B6CB0"/>
<path d="M60.0665 19.6458V14.8774H50.2485V0.572209H44.7131V19.6458H60.0665Z" fill="#2B6CB0"/>
<path d="M67.679 20C69.4998 20 70.7526 19.3597 71.612 18.4605V19.6458H76.5938V6.14442H71.612V7.35695C70.7526 6.43052 69.4998 5.77657 67.6936 5.77657C63.8188 5.77657 61.1094 8.9782 61.1094 12.8747C61.1094 16.7984 63.8188 20 67.679 20ZM69.0191 15.4905C67.5333 15.4905 66.4554 14.4005 66.4554 12.8883C66.4554 11.376 67.5333 10.2861 69.0191 10.2861C70.5049 10.2861 71.5829 11.376 71.5829 12.8883C71.5829 14.4005 70.5049 15.4905 69.0191 15.4905Z" fill="#2B6CB0"/>
<path d="M86.1264 20C90.1614 20 93.2059 18.0381 93.2059 13.842V6.14442H88.0201V13.4196C88.0201 14.7684 87.2626 15.4905 86.1264 15.4905C84.9902 15.4905 84.2327 14.7684 84.2327 13.4196V6.14442H79.047V13.8283C79.047 18.0381 82.0914 20 86.1264 20Z" fill="#2B6CB0"/>
<path d="M100.864 19.6458V12.4114C100.864 10.9537 101.636 10.3133 102.67 10.3133C103.806 10.3133 104.491 11.0354 104.491 12.3842V19.6458H109.677V10.8583C109.677 7.75204 107.506 5.77657 104.52 5.77657C102.714 5.77657 101.432 6.3624 100.616 7.53406V6.14442H95.6781V19.6458H100.864Z" fill="#2B6CB0"/>
<path d="M119.362 20C122.246 20 124.445 18.7466 125.858 16.7575L121.59 14.2098C120.964 15.0817 120.177 15.4905 119.201 15.4905C117.934 15.4905 116.798 14.5913 116.798 12.8883C116.798 11.1989 117.978 10.2861 119.245 10.2861C120.265 10.2861 120.979 10.6948 121.59 11.5531L125.844 9.04632C124.416 7.02997 122.246 5.77657 119.362 5.77657C114.744 5.77657 111.496 8.71935 111.496 12.8883C111.496 17.0572 114.744 20 119.362 20Z" fill="#2B6CB0"/>
<path d="M132.53 19.6458V12.4114C132.53 10.9264 133.331 10.3133 134.336 10.3133C135.472 10.3133 136.157 11.0354 136.157 12.3842V19.6458H141.342V10.8583C141.342 7.75204 139.172 5.77657 136.186 5.77657C134.554 5.77657 133.345 6.25341 132.53 7.20709V0H127.344V19.6458H132.53Z" fill="#2B6CB0"/>
<path d="M150.867 20C153.722 20 155.995 19.0736 157.393 17.6567L153.839 14.8774C153.052 15.5995 152.047 15.9673 151.115 15.9673C149.745 15.9673 148.871 15.4223 148.522 14.3324H157.946C158.005 14.0599 158.048 13.3515 158.048 12.8883C158.034 8.66485 155.033 5.77657 150.663 5.77657C146.22 5.77657 143.161 8.73297 143.161 13.0109C143.161 17.1935 146.249 20 150.867 20ZM148.536 11.4033C148.871 10.3542 149.585 9.85014 150.692 9.85014C151.77 9.85014 152.498 10.3542 152.877 11.4033H148.536Z" fill="#2B6CB0"/>
<path d="M165.12 19.6458V12.4114C165.12 10.9264 165.994 10.4496 167.436 10.4496C168.267 10.4496 169.111 10.6131 169.709 10.7629L170 5.91281C169.796 5.87194 169.272 5.77657 168.704 5.77657C166.941 5.77657 165.674 6.3079 164.872 7.50681V6.14442H159.92V19.6458H165.12Z" fill="#2B6CB0"/>
</svg>
