<svg width="266" height="64" viewBox="0 0 266 64" fill="none" xmlns="http://www.w3.org/2000/svg">
<path d="M56 20.6428C56 17.7718 54.4616 15.121 51.9688 13.6967L31.9664 2.2679C29.5069 0.862595 26.4876 0.862721 24.0282 2.26823L4.03059 13.6966C1.53816 15.121 0 17.7716 0 20.6424V43.3576C0 46.2284 1.53816 48.879 4.03059 50.3034L24.0282 61.7318C26.4876 63.1373 29.5069 63.1374 31.9664 61.7321L51.9688 50.3033C54.4616 48.879 56 46.2282 56 43.3572V20.6428Z" fill="#2B6CB0"/>
<path d="M27.9963 47.649C32.7668 47.649 36.6351 43.8202 36.6351 39.0985V37.647C36.6351 37.521 36.7126 37.4114 36.8288 37.3676C38.1681 36.8363 46.0764 33.3471 45.036 25.6292C43.9125 17.3142 33.4752 18.6179 28.2122 23.586C28.0904 23.7011 27.9078 23.7011 27.7916 23.586C22.5286 18.6179 12.0912 17.3142 10.9678 25.6292C9.92184 33.3471 17.8301 36.8363 19.1749 37.3676C19.2911 37.4114 19.3686 37.5265 19.3686 37.647V39.0985C19.3631 43.8257 23.2259 47.649 27.9963 47.649Z" fill="white"/>
<path d="M24.304 31.1724C24.3317 31.4682 23.9609 31.6271 23.7672 31.4025C23.1363 30.674 21.9299 29.6387 19.9044 29.08C16.5839 28.1707 20.1036 26.2317 21.465 26.8616C22.6936 27.4367 24.0494 28.2365 24.304 31.1724Z" fill="#2B6CB0"/>
<path d="M31.6977 31.1726C31.6701 31.4684 32.0409 31.6273 32.2346 31.4027C32.8654 30.6742 34.0719 29.6389 36.0974 29.0802C39.4179 28.1709 35.8982 26.2318 34.5368 26.8618C33.3082 27.4369 31.9523 28.2366 31.6977 31.1726Z" fill="#2B6CB0"/>
<path d="M29.9536 35.5269C30.4074 36.5183 31.1323 38.5012 30.5014 39.9034C30.4129 40.1006 30.1417 40.1335 29.9978 39.9746C29.4776 39.394 28.5534 37.9425 29.3836 35.5597C29.4776 35.2968 29.8429 35.2804 29.9536 35.5269Z" fill="#2B6CB0"/>
<path d="M26.0455 35.5269C25.5917 36.5183 24.8668 38.5012 25.4977 39.9035C25.5862 40.1007 25.8574 40.1335 26.0013 39.9747C26.5215 39.394 27.4457 37.9425 26.6156 35.5597C26.527 35.2968 26.1618 35.2804 26.0455 35.5269Z" fill="#2B6CB0"/>
<path d="M76.4 44.3875C81.4995 44.3875 86.878 40.7605 86.878 33.522C86.878 32.902 86.847 32.251 86.754 31.569H75.966V35.878H81.05C80.43 38.0015 78.8645 39.071 76.1365 39.071C73.362 39.071 70.8045 37.1025 70.8045 33.15C70.8045 29.7555 72.9745 27.3995 76.0435 27.3995C77.888 27.3995 79.2055 28.035 80.182 28.996L84.336 24.904C82.4915 23.0285 79.841 21.897 76.4 21.897C69.58 21.897 64.775 26.547 64.775 33.15C64.775 39.7375 69.58 44.3875 76.4 44.3875ZM98.7726 44C105.562 44 110.026 39.691 110.026 33.15C110.026 26.609 105.562 22.3 98.7726 22.3H89.1936V44H98.7726ZM95.0836 27.7095H98.6176C102.183 27.7095 103.903 29.9725 103.903 33.15C103.903 36.281 102.183 38.5905 98.6176 38.5905H95.0836V27.7095ZM128.69 44V38.575H118.243V22.3H112.353V44H128.69ZM136.79 44.403C138.727 44.403 140.06 43.6745 140.975 42.6515V44H146.276V28.6395H140.975V30.019C140.06 28.965 138.727 28.221 136.805 28.221C132.682 28.221 129.799 31.8635 129.799 36.2965C129.799 40.7605 132.682 44.403 136.79 44.403ZM138.216 39.2725C136.635 39.2725 135.488 38.0325 135.488 36.312C135.488 34.5915 136.635 33.3515 138.216 33.3515C139.797 33.3515 140.944 34.5915 140.944 36.312C140.944 38.0325 139.797 39.2725 138.216 39.2725ZM156.419 44.403C160.713 44.403 163.952 42.171 163.952 37.397V28.6395H158.434V36.9165C158.434 38.451 157.628 39.2725 156.419 39.2725C155.21 39.2725 154.404 38.451 154.404 36.9165V28.6395H148.886V37.3815C148.886 42.171 152.126 44.403 156.419 44.403ZM172.101 44V35.7695C172.101 34.111 172.922 33.3825 174.023 33.3825C175.232 33.3825 175.96 34.204 175.96 35.7385V44H181.478V34.0025C181.478 30.4685 179.169 28.221 175.991 28.221C174.069 28.221 172.705 28.8875 171.837 30.2205V28.6395H166.583V44H172.101ZM191.784 44.403C194.853 44.403 197.193 42.977 198.697 40.714L194.155 37.8155C193.489 38.8075 192.652 39.2725 191.613 39.2725C190.265 39.2725 189.056 38.2495 189.056 36.312C189.056 34.39 190.311 33.3515 191.66 33.3515C192.745 33.3515 193.504 33.8165 194.155 34.793L198.681 31.941C197.162 29.647 194.853 28.221 191.784 28.221C186.87 28.221 183.414 31.569 183.414 36.312C183.414 41.055 186.87 44.403 191.784 44.403ZM205.795 44V35.7695C205.795 34.08 206.648 33.3825 207.717 33.3825C208.926 33.3825 209.655 34.204 209.655 35.7385V44H215.173V34.0025C215.173 30.4685 212.863 28.221 209.686 28.221C207.95 28.221 206.663 28.7635 205.795 29.8485V21.649H200.277V44H205.795ZM225.308 44.403C228.346 44.403 230.764 43.349 232.252 41.737L228.47 38.575C227.633 39.3965 226.563 39.815 225.571 39.815C224.114 39.815 223.184 39.195 222.812 37.955H232.841C232.903 37.645 232.949 36.839 232.949 36.312C232.934 31.507 229.741 28.221 225.091 28.221C220.363 28.221 217.108 31.5845 217.108 36.4515C217.108 41.21 220.394 44.403 225.308 44.403ZM222.828 34.6225C223.184 33.429 223.944 32.8555 225.122 32.8555C226.269 32.8555 227.044 33.429 227.447 34.6225H222.828ZM240.474 44V35.7695C240.474 34.08 241.404 33.5375 242.938 33.5375C243.822 33.5375 244.721 33.7235 245.356 33.894L245.666 28.376C245.449 28.3295 244.891 28.221 244.287 28.221C242.411 28.221 241.063 28.8255 240.21 30.1895V28.6395H234.94V44H240.474Z" fill="#2B6CB0"/>
</svg>
