<svg width="56" height="56" viewBox="0 0 56 56" fill="none" xmlns="http://www.w3.org/2000/svg">
<path d="M52.9019 20.5523C52.9019 16.505 50.7183 12.7725 47.1902 10.7892L33.4862 3.08556C30.0778 1.16956 25.9169 1.16973 22.5087 3.08602L8.80854 10.789C5.2809 12.7725 3.09766 16.5047 3.09766 20.5517V35.4484C3.09766 39.4954 5.2809 43.2276 8.80853 45.211L22.5087 52.914C25.9169 54.8303 30.0778 54.8305 33.4862 52.9145L47.1902 45.2108C50.7183 43.2275 52.9019 39.4951 52.9019 35.4477V20.5523Z" fill="#404759"/>
<path d="M27.9966 41.6931C32.2392 41.6931 35.6796 38.3429 35.6796 34.2114V32.9413C35.6796 32.8311 35.7485 32.7352 35.8519 32.6968C37.043 32.2319 44.0763 29.1789 43.151 22.4257C42.1518 15.1501 32.8692 16.2908 28.1885 20.638C28.0803 20.7386 27.9178 20.7386 27.8145 20.638C23.1338 16.2908 13.8512 15.1501 12.8521 22.4257C11.9218 29.1789 18.9552 32.2319 20.1512 32.6968C20.2545 32.7352 20.3234 32.8358 20.3234 32.9413V34.2114C20.3185 38.3477 23.754 41.6931 27.9966 41.6931Z" fill="#1D2028"/>
<path d="M24.7127 27.2761C24.7373 27.5349 24.4076 27.6739 24.2353 27.4774C23.6742 26.8399 22.6012 25.9341 20.7998 25.4452C17.8467 24.6496 20.977 22.9529 22.1878 23.5041C23.2804 24.0073 24.4863 24.7071 24.7127 27.2761Z" fill="#404759"/>
<path d="M31.2884 27.2762C31.2638 27.535 31.5936 27.674 31.7658 27.4775C32.3269 26.84 33.3999 25.9342 35.2013 25.4453C38.1544 24.6497 35.0241 22.953 33.8133 23.5042C32.7207 24.0074 31.5148 24.7072 31.2884 27.2762Z" fill="#404759"/>
<path d="M29.738 31.0861C30.1416 31.9537 30.7863 33.6887 30.2252 34.9157C30.1465 35.0882 29.9053 35.117 29.7774 34.978C29.3147 34.4699 28.4928 33.1998 29.231 31.1149C29.3147 30.8848 29.6395 30.8705 29.738 31.0861Z" fill="#404759"/>
<path d="M26.2614 31.0861C25.8578 31.9537 25.2131 33.6887 25.7742 34.9157C25.8529 35.0882 26.0941 35.117 26.222 34.978C26.6847 34.4699 27.5066 33.1998 26.7684 31.1149C26.6896 30.8848 26.3648 30.8705 26.2614 31.0861Z" fill="#404759"/>
</svg>
