<svg xmlns="http://www.w3.org/2000/svg" width="49.924" height="54.007" viewBox="0 0 49.924 54.007"><path d="M49.924,18.1a9.077,9.077,0,0,0-4.592-7.892L29.444,1.185a9.076,9.076,0,0,0-8.968,0L4.592,10.21A9.078,9.078,0,0,0,0,18.1V35.9A9.076,9.076,0,0,0,4.592,43.8l15.884,9.025a9.074,9.074,0,0,0,8.968,0L45.332,43.8A9.078,9.078,0,0,0,49.924,35.9Z" fill="#2b6cb0"/><path d="M24.959,40.875a7.642,7.642,0,0,0,7.7-7.58V32.009a.264.264,0,0,1,.172-.248c1.194-.471,8.244-3.564,7.317-10.4-1-7.371-10.307-6.215-15-1.811a.268.268,0,0,1-.375,0c-4.692-4.4-14-5.56-15,1.811-.933,6.841,6.118,9.934,7.317,10.4a.269.269,0,0,1,.172.248v1.286a7.627,7.627,0,0,0,7.692,7.58" fill="#fff"/><path d="M21.667,26.27a.274.274,0,0,1-.479.2,6.9,6.9,0,0,0-3.443-2.059c-2.961-.806.177-2.525,1.391-1.966,1.1.51,2.3,1.218,2.531,3.821" fill="#2b6cb0"/><path d="M28.259,26.27a.274.274,0,0,0,.479.2,6.9,6.9,0,0,1,3.443-2.059c2.961-.806-.177-2.525-1.391-1.966-1.1.51-2.3,1.218-2.531,3.821" fill="#2b6cb0"/><path d="M26.7,30.13c.4.879,1.051,2.637.488,3.88a.275.275,0,0,1-.449.063,3.723,3.723,0,0,1-.547-3.914.276.276,0,0,1,.508-.029" fill="#2b6cb0"/><path d="M23.22,30.13c-.4.879-1.051,2.637-.488,3.88a.275.275,0,0,0,.449.063,3.723,3.723,0,0,0,.547-3.914.276.276,0,0,0-.508-.029" fill="#2b6cb0"/></svg>