<svg width="16" height="18" viewBox="0 0 16 18" fill="none" xmlns="http://www.w3.org/2000/svg">
<path d="M3.83333 4.00033V1.50033C3.83333 1.27931 3.92113 1.06735 4.07741 0.91107C4.23369 0.75479 4.44565 0.666992 4.66667 0.666992H14.6667C14.8877 0.666992 15.0996 0.75479 15.2559 0.91107C15.4122 1.06735 15.5 1.27931 15.5 1.50033V13.167C15.5 13.388 15.4122 13.6 15.2559 13.7562C15.0996 13.9125 14.8877 14.0003 14.6667 14.0003H12.1667V16.5003C12.1667 16.9603 11.7917 17.3337 11.3275 17.3337H1.33917C1.22927 17.3343 1.12033 17.3133 1.0186 17.2717C0.916873 17.2301 0.824361 17.1688 0.746382 17.0914C0.668403 17.014 0.606494 16.9219 0.564212 16.8205C0.52193 16.719 0.500108 16.6102 0.5 16.5003L0.5025 4.83366C0.5025 4.37366 0.8775 4.00033 1.34167 4.00033H3.83333ZM5.5 4.00033H12.1667V12.3337H13.8333V2.33366H5.5V4.00033Z" fill="#8A8B8F"/>
</svg>
