<svg width="64" height="64" viewBox="0 0 64 64" fill="none" xmlns="http://www.w3.org/2000/svg">
<path d="M24.0409 49.5454C24.0409 49.5454 21.6561 50.9476 25.7381 51.4221C30.6833 51.9925 33.2108 51.9107 38.6605 50.8679C38.6605 50.8679 40.0932 51.7762 42.0942 52.563C29.8775 57.8569 14.4453 52.2563 24.0409 49.5454Z" fill="#5382A1"/>
<path d="M22.5482 42.6372C22.5482 42.6372 19.8734 44.6391 23.9585 45.0663C29.2411 45.6173 33.4129 45.6624 40.6318 44.257C40.6318 44.257 41.6303 45.2804 43.2003 45.8401C28.4295 50.2072 11.9775 46.1845 22.5482 42.6372Z" fill="#5382A1"/>
<path d="M35.1321 30.9186C38.1423 34.4227 34.3412 37.576 34.3412 37.576C34.3412 37.576 41.9846 33.5865 38.4743 28.5907C35.1958 23.9318 32.6817 21.617 46.2923 13.6357C46.2923 13.6357 24.9281 19.0307 35.1321 30.9186Z" fill="#E76F00"/>
<path d="M51.2917 54.6553C51.2917 54.6553 53.0565 56.1255 49.3481 57.2629C42.2964 59.4228 19.9983 60.0751 13.804 57.349C11.5773 56.3696 15.753 55.0104 17.0665 54.7252C18.4364 54.4248 19.2192 54.4808 19.2192 54.4808C16.7429 52.717 3.21328 57.9441 12.3468 59.441C37.2553 63.5253 57.7526 57.6019 51.2917 54.6553Z" fill="#5382A1"/>
<path d="M25.1887 35.4795C25.1887 35.4795 13.8465 38.2033 21.1722 39.1925C24.2653 39.6112 30.4313 39.5165 36.1749 39.0299C40.8688 38.6295 45.5821 37.7783 45.5821 37.7783C45.5821 37.7783 43.927 38.495 42.7295 39.3217C31.2117 42.3845 8.9613 40.9597 15.3669 37.8268C20.7841 35.1792 25.1887 35.4795 25.1887 35.4795Z" fill="#5382A1"/>
<path d="M45.5341 46.9786C57.2426 40.827 51.8291 34.9154 48.0505 35.7118C47.1244 35.9067 46.7114 36.0756 46.7114 36.0756C46.7114 36.0756 47.0552 35.531 47.7119 35.2953C55.1871 32.6381 60.936 43.1323 45.2988 47.2886C45.2988 47.2888 45.48 47.125 45.5341 46.9786Z" fill="#5382A1"/>
<path d="M38.4746 0.748047C38.4746 0.748047 44.9589 7.30645 32.3246 17.3914C22.1931 25.4813 30.0143 30.094 32.3203 35.3641C26.4064 29.9691 22.0664 25.2199 24.978 20.7998C29.2516 14.3115 41.0909 11.1657 38.4746 0.748047Z" fill="#E76F00"/>
<path d="M26.3385 63.648C37.5771 64.3754 54.8353 63.2444 55.244 57.8677C55.244 57.8677 54.4583 59.906 45.9559 61.5247C36.3635 63.3499 24.5326 63.1368 17.5156 61.967C17.5158 61.9669 18.9521 63.1691 26.3385 63.648Z" fill="#5382A1"/>
</svg>
