<svg width="512" height="513" viewBox="0 0 512 513" fill="none" xmlns="http://www.w3.org/2000/svg">
<path d="M485.366 128.027L255.519 0L25.717 128.027V384.08L255.519 512.107L485.366 384.08V128.027Z" fill="#365076"/>
<path d="M255.513 381.27C294.668 381.27 326.42 350.633 326.42 312.852V301.237C326.42 300.229 327.056 299.353 328.01 299.002C339.003 294.751 403.914 266.831 395.374 205.075C386.153 138.541 300.483 148.973 257.284 188.726C256.285 189.647 254.786 189.647 253.832 188.726C210.633 148.973 124.963 138.541 115.742 205.075C107.157 266.831 172.068 294.751 183.106 299.002C184.06 299.353 184.696 300.273 184.696 301.237V312.852C184.651 350.677 216.357 381.27 255.513 381.27Z" fill="white"/>
<path d="M224.178 246.346C224.405 248.713 221.361 249.984 219.772 248.187C214.593 242.358 204.691 234.074 188.065 229.603C160.811 222.328 189.701 206.812 200.875 211.852C210.959 216.454 222.088 222.854 224.178 246.346Z" fill="#365076"/>
<path d="M285.893 249.433C285.666 251.8 288.709 253.071 290.299 251.274C295.477 245.445 305.38 237.161 322.005 232.69C349.26 225.414 320.37 209.899 309.196 214.939C299.111 219.541 287.982 225.94 285.893 249.433Z" fill="#365076"/>
<path d="M270.551 281.188C274.276 289.121 280.226 304.988 275.048 316.208C274.321 317.786 272.095 318.049 270.914 316.778C266.644 312.132 259.059 300.517 265.872 281.451C266.644 279.347 269.642 279.216 270.551 281.188Z" fill="#365076"/>
<path d="M238.474 281.188C234.749 289.121 228.798 304.988 233.977 316.208C234.703 317.786 236.929 318.049 238.11 316.778C242.38 312.132 249.966 300.517 243.152 281.451C242.426 279.347 239.428 279.216 238.474 281.188Z" fill="#365076"/>
</svg>