<svg xmlns="http://www.w3.org/2000/svg" id="Layer_1" data-name="Layer 1" viewBox="0 0 913.53 913.53"><defs><style>.cls-1{fill:#9722ff}.cls-2{fill:#dc29dd}.cls-3{fill:#27a2fd}.cls-4{fill:#34f}</style></defs><path d="M249.16 128.54a15.28 15.28 0 0 0 15.26 15.27h26v58h-26a15.27 15.27 0 0 0 0 30.53h26v44.5a13.52 13.52 0 0 1-13.52 13.53h-44.5v-26a15.27 15.27 0 0 0-30.54 0v26h-58v-26a15.27 15.27 0 1 0-30.53 0v26H68.77a13.54 13.54 0 0 1-13.53-13.53V68.78a13.53 13.53 0 0 1 13.53-13.53h208.09a13.52 13.52 0 0 1 13.52 13.53v44.48h-26a15.27 15.27 0 0 0-15.22 15.28Z" class="cls-1"/><path d="M514.84 128.54a15.27 15.27 0 0 0 15.26 15.27h26v58h-26a15.27 15.27 0 0 0 0 30.53h26v44.5a13.53 13.53 0 0 1-13.52 13.53H334.45a13.52 13.52 0 0 1-13.52-13.53v-44.5h25.94a15.27 15.27 0 1 0 0-30.53h-25.94v-58h25.94a15.28 15.28 0 1 0 0-30.55h-25.94V68.78a13.51 13.51 0 0 1 13.52-13.53h208.09a13.52 13.52 0 0 1 13.52 13.53v44.48h-26a15.27 15.27 0 0 0-15.22 15.28Z" class="cls-2"/><path d="M821.73 68.78v208.08a13.52 13.52 0 0 1-13.52 13.53h-44.5v-26a15.27 15.27 0 1 0-30.53 0v26h-58v-26a15.27 15.27 0 1 0-30.53 0v26h-44.5a13.54 13.54 0 0 1-13.53-13.53v-44.5h26a15.27 15.27 0 1 0 0-30.53h-26v-58h26a15.28 15.28 0 0 0 0-30.55h-26v-44.5a13.53 13.53 0 0 1 13.53-13.53h208.06a13.52 13.52 0 0 1 13.52 13.53Z" class="cls-3"/><path d="M290.38 334.44v208.09a13.52 13.52 0 0 1-13.52 13.53h-44.5v-26a15.27 15.27 0 0 0-30.54 0v26h-58v-26a15.27 15.27 0 1 0-30.53 0v26H68.77a13.53 13.53 0 0 1-13.53-13.53V334.44a13.54 13.54 0 0 1 13.53-13.52h44.5v26a15.27 15.27 0 0 0 30.53 0v-26h58v26a15.27 15.27 0 0 0 30.54 0v-26h44.5a13.52 13.52 0 0 1 13.54 13.52Z" class="cls-2"/><path d="M514.84 394.21a15.25 15.25 0 0 0 15.26 15.26h26v58h-26a15.27 15.27 0 0 0 0 30.53h26v44.5a13.52 13.52 0 0 1-13.52 13.53H498v-26a15.27 15.27 0 1 0-30.53 0v26h-58v-26a15.27 15.27 0 1 0-30.54 0v26h-44.48a13.51 13.51 0 0 1-13.52-13.53V334.44a13.52 13.52 0 0 1 13.52-13.52h208.09a13.53 13.53 0 0 1 13.52 13.52v44.5h-26a15.26 15.26 0 0 0-15.22 15.27Z" class="cls-3"/><path d="M821.73 334.44v208.09a13.52 13.52 0 0 1-13.52 13.53H600.12a13.53 13.53 0 0 1-13.53-13.53V498h26a15.27 15.27 0 1 0 0-30.53h-26v-58h26a15.27 15.27 0 1 0 0-30.53h-26v-44.5a13.54 13.54 0 0 1 13.53-13.52h44.5v26a15.27 15.27 0 0 0 30.53 0v-26h58v26a15.27 15.27 0 0 0 30.53 0v-26h44.5a13.52 13.52 0 0 1 13.55 13.52Z" class="cls-4"/><path d="M249.16 659.89a15.28 15.28 0 0 0 15.26 15.27h26v58h-26a15.27 15.27 0 0 0 0 30.54h26v44.5a13.52 13.52 0 0 1-13.52 13.53H68.77a13.54 13.54 0 0 1-13.53-13.53V600.13a13.53 13.53 0 0 1 13.53-13.53h44.5v25.95a15.27 15.27 0 1 0 30.53 0V586.6h58v25.95a15.27 15.27 0 1 0 30.54 0V586.6h44.5a13.52 13.52 0 0 1 13.52 13.53v44.48h-26a15.28 15.28 0 0 0-15.2 15.28Z" class="cls-1"/><path d="M556.06 600.13v208.08a13.53 13.53 0 0 1-13.52 13.53H334.45a13.52 13.52 0 0 1-13.52-13.53v-44.5h25.94a15.27 15.27 0 1 0 0-30.54h-25.94v-58h25.94a15.28 15.28 0 1 0 0-30.55h-25.94v-44.49a13.51 13.51 0 0 1 13.52-13.53h44.49v25.95a15.27 15.27 0 1 0 30.54 0V586.6h58v25.95a15.27 15.27 0 1 0 30.53 0V586.6h44.5a13.52 13.52 0 0 1 13.55 13.53Z" class="cls-4"/><rect width="235.14" height="235.14" x="635.3" y="635.29" class="cls-1" rx="13.53" transform="rotate(-45 752.857 752.866)"/></svg>