<svg width="170" height="160" viewBox="0 0 170 160" fill="none" xmlns="http://www.w3.org/2000/svg">
<path d="M138.362 44.0407C138.362 35.3678 133.683 27.3696 126.123 23.1197L96.7569 6.61186C89.4532 2.50614 80.5371 2.50652 73.2338 6.61285L43.8763 23.1193C36.3171 27.3696 31.6387 35.3672 31.6387 44.0393V75.9607C31.6387 84.6328 36.3171 92.6305 43.8763 96.8807L73.2338 113.387C80.5371 117.494 89.4532 117.494 96.7569 113.388L126.123 96.8803C133.683 92.6304 138.362 84.6322 138.362 75.9593V44.0407Z" fill="#2B6CB0"/>
<path d="M84.993 89.3422C94.0844 89.3422 101.457 82.1632 101.457 73.3101V70.5884C101.457 70.3522 101.604 70.1468 101.826 70.0646C104.378 69.0684 119.449 62.5261 117.467 48.055C115.326 32.4645 95.4343 34.9088 85.4043 44.2241C85.1723 44.4398 84.8242 44.4398 84.6028 44.2241C74.5727 34.9088 54.6814 32.4645 52.5404 48.055C50.547 62.5261 65.6185 69.0684 68.1813 70.0646C68.4028 70.1468 68.5505 70.3624 68.5505 70.5884V73.3101C68.5399 82.1735 75.9016 89.3422 84.993 89.3422Z" fill="white"/>
<path d="M77.9572 58.4486C78.0099 59.0032 77.3033 59.301 76.9341 58.88C75.7318 57.514 73.4326 55.5729 69.5725 54.5253C63.2444 52.8204 69.9521 49.1846 72.5467 50.3657C74.8881 51.4441 77.472 52.9436 77.9572 58.4486Z" fill="#2B6CB0"/>
<path d="M92.0477 58.449C91.995 59.0036 92.7016 59.3014 93.0708 58.8803C94.2731 57.5143 96.5723 55.5732 100.432 54.5256C106.761 52.8207 100.053 49.185 97.4582 50.3661C95.1168 51.4445 92.5329 52.944 92.0477 58.449Z" fill="#2B6CB0"/>
<path d="M88.7234 66.6132C89.5883 68.4722 90.9699 72.1901 89.7676 74.8193C89.5988 75.1891 89.082 75.2507 88.8078 74.9529C87.8164 73.8642 86.0551 71.1425 87.6371 66.6749C87.8164 66.1819 88.5125 66.1511 88.7234 66.6132Z" fill="#2B6CB0"/>
<path d="M81.2761 66.6132C80.4113 68.4722 79.0297 72.1901 80.232 74.8193C80.4008 75.1891 80.9175 75.2507 81.1918 74.9528C82.1832 73.8642 83.9445 71.1425 82.3625 66.6749C82.1937 66.1819 81.4976 66.1511 81.2761 66.6132Z" fill="#2B6CB0"/>
<path d="M10.9251 159.986C15.7175 159.986 20.7722 156.798 20.7722 150.436C20.7722 149.891 20.7431 149.319 20.6557 148.719H10.5172V152.507H15.2951C14.7124 154.373 13.2412 155.313 10.6774 155.313C8.06999 155.313 5.66647 153.583 5.66647 150.109C5.66647 147.125 7.70582 145.054 10.59 145.054C12.3235 145.054 13.5617 145.613 14.4794 146.458L18.3832 142.861C16.6498 141.213 14.1589 140.218 10.9251 140.218C4.5157 140.218 0 144.305 0 150.109C0 155.899 4.5157 159.986 10.9251 159.986Z" fill="#2B6CB0"/>
<path d="M31.9506 159.646C38.3308 159.646 42.5261 155.858 42.5261 150.109C42.5261 144.36 38.3308 140.572 31.9506 140.572H22.9483V159.646H31.9506ZM28.4837 145.327H31.8049C35.1553 145.327 36.7722 147.316 36.7722 150.109C36.7722 152.861 35.1553 154.891 31.8049 154.891H28.4837V145.327Z" fill="#2B6CB0"/>
<path d="M60.0665 159.646V154.877H50.2485V140.572H44.7131V159.646H60.0665Z" fill="#2B6CB0"/>
<path d="M67.679 160C69.4998 160 70.7526 159.36 71.612 158.46V159.646H76.5938V146.144H71.612V147.357C70.7526 146.431 69.4998 145.777 67.6935 145.777C63.8188 145.777 61.1094 148.978 61.1094 152.875C61.1094 156.798 63.8188 160 67.679 160ZM69.0191 155.49C67.5333 155.49 66.4554 154.401 66.4554 152.888C66.4554 151.376 67.5333 150.286 69.0191 150.286C70.5049 150.286 71.5829 151.376 71.5829 152.888C71.5829 154.401 70.5049 155.49 69.0191 155.49Z" fill="#2B6CB0"/>
<path d="M86.1264 160C90.1614 160 93.2059 158.038 93.2059 153.842V146.144H88.0201V153.42C88.0201 154.768 87.2626 155.49 86.1264 155.49C84.9902 155.49 84.2327 154.768 84.2327 153.42V146.144H79.047V153.828C79.047 158.038 82.0914 160 86.1264 160Z" fill="#2B6CB0"/>
<path d="M100.864 159.646V152.411C100.864 150.954 101.636 150.313 102.67 150.313C103.806 150.313 104.491 151.035 104.491 152.384V159.646H109.677V150.858C109.677 147.752 107.506 145.777 104.52 145.777C102.714 145.777 101.432 146.362 100.616 147.534V146.144H95.6781V159.646H100.864Z" fill="#2B6CB0"/>
<path d="M119.362 160C122.246 160 124.445 158.747 125.858 156.757L121.59 154.21C120.964 155.082 120.177 155.49 119.201 155.49C117.934 155.49 116.798 154.591 116.798 152.888C116.798 151.199 117.978 150.286 119.245 150.286C120.265 150.286 120.979 150.695 121.59 151.553L125.844 149.046C124.416 147.03 122.246 145.777 119.362 145.777C114.744 145.777 111.496 148.719 111.496 152.888C111.496 157.057 114.744 160 119.362 160Z" fill="#2B6CB0"/>
<path d="M132.53 159.646V152.411C132.53 150.926 133.331 150.313 134.336 150.313C135.472 150.313 136.157 151.035 136.157 152.384V159.646H141.342V150.858C141.342 147.752 139.172 145.777 136.186 145.777C134.554 145.777 133.345 146.253 132.53 147.207V140H127.344V159.646H132.53Z" fill="#2B6CB0"/>
<path d="M150.867 160C153.722 160 155.995 159.074 157.393 157.657L153.839 154.877C153.052 155.599 152.047 155.967 151.115 155.967C149.745 155.967 148.871 155.422 148.522 154.332H157.946C158.005 154.06 158.048 153.351 158.048 152.888C158.034 148.665 155.033 145.777 150.663 145.777C146.22 145.777 143.161 148.733 143.161 153.011C143.161 157.193 146.249 160 150.867 160ZM148.536 151.403C148.871 150.354 149.585 149.85 150.692 149.85C151.77 149.85 152.498 150.354 152.877 151.403H148.536Z" fill="#2B6CB0"/>
<path d="M165.12 159.646V152.411C165.12 150.926 165.994 150.45 167.436 150.45C168.267 150.45 169.111 150.613 169.709 150.763L170 145.913C169.796 145.872 169.272 145.777 168.704 145.777C166.941 145.777 165.674 146.308 164.872 147.507V146.144H159.92V159.646H165.12Z" fill="#2B6CB0"/>
</svg>
